{
.appVersion = "945";
classes = (
{
automatic = 1;
code = "A Aacute Acircumflex Adieresis Agrave Aring Atilde AE B C Ccedilla D Eth E Eacute Ecircumflex Edieresis Egrave F G H I IJ Iacute Icircumflex Idieresis Igrave J K L Ldot Lslash M N Ntilde O Oacute Ocircumflex Odieresis Ograve Oslash Otilde OE P Thorn Q R S Scaron T U Uacute Ucircumflex Udieresis Ugrave V W Wacute Wcircumflex Wdieresis Wgrave X Y Yacute Ycircumflex Ydieresis Ygrave Z Zcaron Delta Omega";
name = Uppercase;
}
);
copyright = "Copyright 2016 The Unna Project Authors (omnibus.type@gmail.com)";
customParameters = (
{
name = fsType;
value = (
);
},
{
name = license;
value = "This Font Software is licensed under the SIL Open Font License, Version 1.1. This license is available with a FAQ at: http://scripts.sil.org/OFL";
},
{
name = licenseURL;
value = "http://scripts.sil.org/OFL";
},
{
name = "Disable Last Change";
value = 1;
},
{
name = "Use Line Breaks";
value = 1;
},
{
name = vendorID;
value = OMNI;
},
{
name = "Use Typo Metrics";
value = 1;
}
);
date = "2015-01-29 04:12:27 +0000";
designer = "Jorge de Buen Unna";
designerURL = "http://www.omnibus-type.com";
familyName = Unna;
featurePrefixes = (
{
automatic = 1;
code = "languagesystem DFLT dflt;
languagesystem latn dflt;
languagesystem grek dflt;
languagesystem latn CAT;
languagesystem latn TRK;
";
name = Languagesystems;
}
);
features = (
{
automatic = 1;
code = "feature locl;
feature sups;
feature frac;
feature ordn;
feature case;
feature salt;
feature ss01;
feature ss02;
feature ss03;
feature ss04;";
name = aalt;
},
{
automatic = 1;
code = "script latn;
language CRT;
sub i by idotaccent;
language TAT;
sub i by idotaccent;
language KAZ;
sub i by idotaccent;
language CAT;
sub  l' periodcentered' l by ldot;
sub  L' periodcentered' L by Ldot;
language AZE;
sub i by idotaccent;
language TRK;
sub i by idotaccent;";
name = locl;
},
{
automatic = 1;
code = "sub one by onesuperior;
sub two by twosuperior;
sub three by threesuperior;";
name = sups;
},

glyphs = (
{
color = 4;
glyphname = A;
layers = (
{
anchors = (
{
name = ogonek;
position = "{561, 14}";
},
{
name = top;
position = "{349, 598}";
}
);
layerId = UUID0;
paths = (
{
closed = 1;
nodes = (
"326 607 LINE",
"53 104 LINE SMOOTH",
"28 58 OFFCURVE",
"8 27 OFFCURVE",
"-16 27 CURVE",
"-47 29 LINE",
"-51 0 LINE",
"119 0 LINE",
"123 29 LINE",
"72 26 LINE",
"62 26 OFFCURVE",
"58 32 OFFCURVE",
"58 41 CURVE SMOOTH",
"58 56 OFFCURVE",
"68 76 OFFCURVE",
"79 96 CURVE SMOOTH",
"293 494 LINE",
"355 607 LINE"
);
},
{
closed = 1;
nodes = (
"145 236 LINE",
"132 208 LINE",
"368 208 LINE",
"362 236 LINE"
);
},
{
closed = 1;
nodes = (
"285 495 LINE",
"392 90 LINE SMOOTH",
"395 80 OFFCURVE",
"396 67 OFFCURVE",
"396 58 CURVE SMOOTH",
"396 40 OFFCURVE",
"389 26 OFFCURVE",
"369 27 CURVE SMOOTH",
"316 29 LINE",
"312 0 LINE",
"571 0 LINE",
"575 29 LINE",
"541 27 LINE",
"536 27 LINE SMOOTH",
"509 27 OFFCURVE",
"499 53 OFFCURVE",
"486 102 CURVE SMOOTH",
"355 607 LINE"
);
}
);
width = 580;
},
{
anchors = (
{
name = ogonek;
position = "{565, 14}";
},
{
name = top;
position = "{353, 598}";
}
);
layerId = "E888B586-AF79-49A4-B375-A6F02287AAF4";
paths = (
{
closed = 1;
nodes = (
"331 607 LINE",
"65 114 LINE SMOOTH",
"48 82 OFFCURVE",
"24 37 OFFCURVE",
"-7 37 CURVE SMOOTH",
"-41 39 LINE",
"-46 0 LINE",
"137 0 LINE",
"142 39 LINE",
"97 36 LINE SMOOTH",
"83 35 OFFCURVE",
"78 41 OFFCURVE",
"78 51 CURVE SMOOTH",
"78 65 OFFCURVE",
"87 86 OFFCURVE",
"98 106 CURVE SMOOTH",
"308 498 LINE",
"387 607 LINE"
);
},
{
closed = 1;
nodes = (
"138 216 LINE",
"123 178 LINE",
"369 178 LINE",
"364 216 LINE"
);
},
{
closed = 1;
nodes = (
"273 453 LINE",
"376 100 LINE SMOOTH",
"379 88 OFFCURVE",
"382 76 OFFCURVE",
"382 65 CURVE SMOOTH",
"381 48 OFFCURVE",
"373 35 OFFCURVE",
"349 37 CURVE SMOOTH",
"304 39 LINE",
"299 0 LINE",
"611 0 LINE",
"616 39 LINE",
"593 37 LINE",
"588 37 LINE SMOOTH",
"556 37 OFFCURVE",
"546 67 OFFCURVE",
"533 112 CURVE SMOOTH",
"387 607 LINE"
);
}
);
width = 617;
}
);
leftKerningGroup = A;
rightKerningGroup = A;
unicode = 0041;
},
{
color = 4;
glyphname = Aacute;
layers = (
{
background = {
paths = (
{
closed = 1;
nodes = (
"-51 0 LINE",
"119 0 LINE",
"123 29 LINE",
"72 26 LINE",
"62 26 OFFCURVE",
"58 32 OFFCURVE",
"58 41 CURVE SMOOTH",
"58 56 OFFCURVE",
"68 76 OFFCURVE",
"79 96 CURVE SMOOTH",
"140 208 LINE",
"362 208 LINE",
"392 90 LINE SMOOTH",
"395 80 OFFCURVE",
"397 66 OFFCURVE",
"397 57 CURVE SMOOTH",
"397 40 OFFCURVE",
"390 26 OFFCURVE",
"370 27 CURVE SMOOTH",
"317 29 LINE",
"313 0 LINE",
"572 0 LINE",
"576 29 LINE",
"565 29 OFFCURVE",
"553 27 OFFCURVE",
"542 27 CURVE SMOOTH",
"537 27 LINE SMOOTH",
"508 27 OFFCURVE",
"499 55 OFFCURVE",
"487 102 CURVE SMOOTH",
"354 607 LINE",
"326 607 LINE",
"53 104 LINE SMOOTH",
"28 58 OFFCURVE",
"8 27 OFFCURVE",
"-16 27 CURVE",
"-47 29 LINE"
);
},
{
closed = 1;
nodes = (
"153 236 LINE",
"288 485 LINE",
"311 403 OFFCURVE",
"334 318 OFFCURVE",
"355 236 CURVE"
);
},
{
closed = 1;
nodes = (
"508 808 OFFCURVE",
"479 826 OFFCURVE",
"455 826 CURVE SMOOTH",
"440 826 OFFCURVE",
"436 820 OFFCURVE",
"420 805 CURVE SMOOTH",
"317 705 LINE SMOOTH",
"305 693 OFFCURVE",
"289 679 OFFCURVE",
"289 673 CURVE SMOOTH",
"289 669 OFFCURVE",
"292 666 OFFCURVE",
"302 666 CURVE SMOOTH",
"309 666 OFFCURVE",
"319 672 OFFCURVE",
"323 675 CURVE SMOOTH",
"498 788 LINE SMOOTH",
"503 791 OFFCURVE",
"508 795 OFFCURVE",
"508 800 CURVE SMOOTH"
);
}
);
};
components = (
{
name = A;
},
{
name = acute.case;
transform = "{1, 0, 0, 1, 193, 0}";
}
);
layerId = UUID0;
width = 580;
},
{
background = {
paths = (
{
closed = 1;
nodes = (
"-51 0 LINE",
"119 0 LINE",
"123 29 LINE",
"72 26 LINE",
"62 26 OFFCURVE",
"58 32 OFFCURVE",
"58 41 CURVE SMOOTH",
"58 56 OFFCURVE",
"68 76 OFFCURVE",
"79 96 CURVE SMOOTH",
"140 208 LINE",
"362 208 LINE",
"392 90 LINE SMOOTH",
"395 80 OFFCURVE",
"397 66 OFFCURVE",
"397 57 CURVE SMOOTH",
"397 40 OFFCURVE",
"390 26 OFFCURVE",
"370 27 CURVE SMOOTH",
"317 29 LINE",
"313 0 LINE",
"572 0 LINE",
"576 29 LINE",
"565 29 OFFCURVE",
"553 27 OFFCURVE",
"542 27 CURVE SMOOTH",
"537 27 LINE SMOOTH",
"508 27 OFFCURVE",
"499 55 OFFCURVE",
"487 102 CURVE SMOOTH",
"354 607 LINE",
"326 607 LINE",
"53 104 LINE SMOOTH",
"28 58 OFFCURVE",
"8 27 OFFCURVE",
"-16 27 CURVE",
"-47 29 LINE"
);
},
{
closed = 1;
nodes = (
"153 236 LINE",
"288 485 LINE",
"311 403 OFFCURVE",
"334 318 OFFCURVE",
"355 236 CURVE"
);
},
{
closed = 1;
nodes = (
"508 808 OFFCURVE",
"479 826 OFFCURVE",
"455 826 CURVE SMOOTH",
"440 826 OFFCURVE",
"436 820 OFFCURVE",
"420 805 CURVE SMOOTH",
"317 705 LINE SMOOTH",
"305 693 OFFCURVE",
"289 679 OFFCURVE",
"289 673 CURVE SMOOTH",
"289 669 OFFCURVE",
"292 666 OFFCURVE",
"302 666 CURVE SMOOTH",
"309 666 OFFCURVE",
"319 672 OFFCURVE",
"323 675 CURVE SMOOTH",
"498 788 LINE SMOOTH",
"503 791 OFFCURVE",
"508 795 OFFCURVE",
"508 800 CURVE SMOOTH"
);
}
);
};
components = (
{
name = A;
},
{
name = acute.case;
transform = "{1, 0, 0, 1, 197, 0}";
}
);
layerId = "E888B586-AF79-49A4-B375-A6F02287AAF4";
width = 617;
}
);
leftKerningGroup = A;
rightKerningGroup = A;
unicode = 00C1;
},
{
color = 4;
glyphname = Acircumflex;
layers = (
{
background = {
paths = (
{
closed = 1;
nodes = (
"-51 0 LINE",
"119 0 LINE",
"123 29 LINE",
"72 26 LINE",
"62 26 OFFCURVE",
"58 32 OFFCURVE",
"58 41 CURVE SMOOTH",
"58 56 OFFCURVE",
"68 76 OFFCURVE",
"79 96 CURVE SMOOTH",
"140 208 LINE",
"362 208 LINE",
"392 90 LINE SMOOTH",
"395 80 OFFCURVE",
"397 66 OFFCURVE",
"397 57 CURVE SMOOTH",
"397 40 OFFCURVE",
"390 26 OFFCURVE",
"370 27 CURVE SMOOTH",
"317 29 LINE",
"313 0 LINE",
"572 0 LINE",
"576 29 LINE",
"565 29 OFFCURVE",
"553 27 OFFCURVE",
"542 27 CURVE SMOOTH",
"537 27 LINE SMOOTH",
"508 27 OFFCURVE",
"499 55 OFFCURVE",
"487 102 CURVE SMOOTH",
"354 607 LINE",
"326 607 LINE",
"53 104 LINE SMOOTH",
"28 58 OFFCURVE",
"8 27 OFFCURVE",
"-16 27 CURVE",
"-47 29 LINE"
);
},
{
closed = 1;
nodes = (
"153 236 LINE",
"288 485 LINE",
"311 403 OFFCURVE",
"334 318 OFFCURVE",
"355 236 CURVE"
);
},
{
closed = 1;
nodes = (
"204 670 OFFCURVE",
"205 666 OFFCURVE",
"213 666 CURVE SMOOTH",
"220 666 OFFCURVE",
"233 673 OFFCURVE",
"242 678 CURVE SMOOTH",
"367 752 LINE",
"470 678 LINE SMOOTH",
"477 673 OFFCURVE",
"490 666 OFFCURVE",
"497 666 CURVE SMOOTH",
"506 666 OFFCURVE",
"508 671 OFFCURVE",
"508 674 CURVE SMOOTH",
"508 682 OFFCURVE",
"477 705 OFFCURVE",
"441 749 CURVE SMOOTH",
"402 797 LINE SMOOTH",
"389 812 OFFCURVE",
"381 822 OFFCURVE",
"377 822 CURVE SMOOTH",
"373 822 OFFCURVE",
"360 812 OFFCURVE",
"344 797 CURVE SMOOTH",
"291 749 LINE SMOOTH",
"241 704 OFFCURVE",
"204 681 OFFCURVE",
"204 673 CURVE SMOOTH"
);
}
);
};
components = (
{
name = A;
},
{
name = circumflex.case;
transform = "{1, 0, 0, 1, 110, 0}";
}
);
layerId = UUID0;
width = 580;
},
{
background = {
paths = (
{
closed = 1;
nodes = (
"-51 0 LINE",
"119 0 LINE",
"123 29 LINE",
"72 26 LINE",
"62 26 OFFCURVE",
"58 32 OFFCURVE",
"58 41 CURVE SMOOTH",
"58 56 OFFCURVE",
"68 76 OFFCURVE",
"79 96 CURVE SMOOTH",
"140 208 LINE",
"362 208 LINE",
"392 90 LINE SMOOTH",
"395 80 OFFCURVE",
"397 66 OFFCURVE",
"397 57 CURVE SMOOTH",
"397 40 OFFCURVE",
"390 26 OFFCURVE",
"370 27 CURVE SMOOTH",
"317 29 LINE",
"313 0 LINE",
"572 0 LINE",
"576 29 LINE",
"565 29 OFFCURVE",
"553 27 OFFCURVE",
"542 27 CURVE SMOOTH",
"537 27 LINE SMOOTH",
"508 27 OFFCURVE",
"499 55 OFFCURVE",
"487 102 CURVE SMOOTH",
"354 607 LINE",
"326 607 LINE",
"53 104 LINE SMOOTH",
"28 58 OFFCURVE",
"8 27 OFFCURVE",
"-16 27 CURVE",
"-47 29 LINE"
);
},
{
closed = 1;
nodes = (
"153 236 LINE",
"288 485 LINE",
"311 403 OFFCURVE",
"334 318 OFFCURVE",
"355 236 CURVE"
);
},
{
closed = 1;
nodes = (
"204 670 OFFCURVE",
"205 666 OFFCURVE",
"213 666 CURVE SMOOTH",
"220 666 OFFCURVE",
"233 673 OFFCURVE",
"242 678 CURVE SMOOTH",
"367 752 LINE",
"470 678 LINE SMOOTH",
"477 673 OFFCURVE",
"490 666 OFFCURVE",
"497 666 CURVE SMOOTH",
"506 666 OFFCURVE",
"508 671 OFFCURVE",
"508 674 CURVE SMOOTH",
"508 682 OFFCURVE",
"477 705 OFFCURVE",
"441 749 CURVE SMOOTH",
"402 797 LINE SMOOTH",
"389 812 OFFCURVE",
"381 822 OFFCURVE",
"377 822 CURVE SMOOTH",
"373 822 OFFCURVE",
"360 812 OFFCURVE",
"344 797 CURVE SMOOTH",
"291 749 LINE SMOOTH",
"241 704 OFFCURVE",
"204 681 OFFCURVE",
"204 673 CURVE SMOOTH"
);
}
);
};
components = (
{
name = A;
},
{
name = circumflex.case;
transform = "{1, 0, 0, 1, 114, 0}";
}
);
layerId = "E888B586-AF79-49A4-B375-A6F02287AAF4";
width = 617;
}
);
leftKerningGroup = A;
rightKerningGroup = A;
unicode = 00C2;
},
{
color = 4;
glyphname = Adieresis;
layers = (
{
background = {
paths = (
{
closed = 1;
nodes = (
"-51 0 LINE",
"119 0 LINE",
"123 29 LINE",
"72 26 LINE",
"62 26 OFFCURVE",
"58 32 OFFCURVE",
"58 41 CURVE SMOOTH",
"58 56 OFFCURVE",
"68 76 OFFCURVE",
"79 96 CURVE SMOOTH",
"140 208 LINE",
"362 208 LINE",
"392 90 LINE SMOOTH",
"395 80 OFFCURVE",
"397 66 OFFCURVE",
"397 57 CURVE SMOOTH",
"397 40 OFFCURVE",
"390 26 OFFCURVE",
"370 27 CURVE SMOOTH",
"316 29 LINE",
"312 0 LINE",
"571 0 LINE",
"575 29 LINE",
"565 29 OFFCURVE",
"553 27 OFFCURVE",
"542 27 CURVE SMOOTH",
"537 27 LINE SMOOTH",
"510 27 OFFCURVE",
"498 55 OFFCURVE",
"487 102 CURVE",
"354 607 LINE",
"326 607 LINE",
"53 104 LINE SMOOTH",
"28 58 OFFCURVE",
"8 27 OFFCURVE",
"-16 27 CURVE",
"-47 29 LINE"
);
},
{
closed = 1;
nodes = (
"153 236 LINE",
"288 485 LINE",
"311 403 OFFCURVE",
"334 318 OFFCURVE",
"355 236 CURVE"
);
},
{
closed = 1;
nodes = (
"213 693 OFFCURVE",
"233 676 OFFCURVE",
"261 676 CURVE SMOOTH",
"295 676 OFFCURVE",
"322 698 OFFCURVE",
"322 729 CURVE SMOOTH",
"322 754 OFFCURVE",
"301 773 OFFCURVE",
"275 773 CURVE SMOOTH",
"241 773 OFFCURVE",
"213 749 OFFCURVE",
"213 718 CURVE SMOOTH"
);
},
{
closed = 1;
nodes = (
"402 693 OFFCURVE",
"422 676 OFFCURVE",
"449 676 CURVE SMOOTH",
"483 676 OFFCURVE",
"510 698 OFFCURVE",
"510 729 CURVE SMOOTH",
"510 754 OFFCURVE",
"490 773 OFFCURVE",
"463 773 CURVE SMOOTH",
"430 773 OFFCURVE",
"402 749 OFFCURVE",
"402 718 CURVE SMOOTH"
);
}
);
};
components = (
{
name = A;
},
{
name = dieresis.case;
transform = "{1, 0, 0, 1, 153, 0}";
}
);
layerId = UUID0;
width = 580;
},
{
background = {
paths = (
{
closed = 1;
nodes = (
"-51 0 LINE",
"119 0 LINE",
"123 29 LINE",
"72 26 LINE",
"62 26 OFFCURVE",
"58 32 OFFCURVE",
"58 41 CURVE SMOOTH",
"58 56 OFFCURVE",
"68 76 OFFCURVE",
"79 96 CURVE SMOOTH",
"140 208 LINE",
"362 208 LINE",
"392 90 LINE SMOOTH",
"395 80 OFFCURVE",
"397 66 OFFCURVE",
"397 57 CURVE SMOOTH",
"397 40 OFFCURVE",
"390 26 OFFCURVE",
"370 27 CURVE SMOOTH",
"316 29 LINE",
"312 0 LINE",
"571 0 LINE",
"575 29 LINE",
"565 29 OFFCURVE",
"553 27 OFFCURVE",
"542 27 CURVE SMOOTH",
"537 27 LINE SMOOTH",
"510 27 OFFCURVE",
"498 55 OFFCURVE",
"487 102 CURVE",
"354 607 LINE",
"326 607 LINE",
"53 104 LINE SMOOTH",
"28 58 OFFCURVE",
"8 27 OFFCURVE",
"-16 27 CURVE",
"-47 29 LINE"
);
},
{
closed = 1;
nodes = (
"153 236 LINE",
"288 485 LINE",
"311 403 OFFCURVE",
"334 318 OFFCURVE",
"355 236 CURVE"
);
},
{
closed = 1;
nodes = (
"213 693 OFFCURVE",
"233 676 OFFCURVE",
"261 676 CURVE SMOOTH",
"295 676 OFFCURVE",
"322 698 OFFCURVE",
"322 729 CURVE SMOOTH",
"322 754 OFFCURVE",
"301 773 OFFCURVE",
"275 773 CURVE SMOOTH",
"241 773 OFFCURVE",
"213 749 OFFCURVE",
"213 718 CURVE SMOOTH"
);
},
{
closed = 1;
nodes = (
"402 693 OFFCURVE",
"422 676 OFFCURVE",
"449 676 CURVE SMOOTH",
"483 676 OFFCURVE",
"510 698 OFFCURVE",
"510 729 CURVE SMOOTH",
"510 754 OFFCURVE",
"490 773 OFFCURVE",
"463 773 CURVE SMOOTH",
"430 773 OFFCURVE",
"402 749 OFFCURVE",
"402 718 CURVE SMOOTH"
);
}
);
};
components = (
{
name = A;
},
{
name = dieresis.case;
transform = "{1, 0, 0, 1, 157, 0}";
}
);
layerId = "E888B586-AF79-49A4-B375-A6F02287AAF4";
width = 617;
}
);
leftKerningGroup = A;
rightKerningGroup = A;
unicode = 00C4;
},
{
color = 4;
glyphname = Agrave;
layers = (
{
background = {
paths = (
{
closed = 1;
nodes = (
"-51 0 LINE",
"119 0 LINE",
"123 29 LINE",
"72 26 LINE",
"62 26 OFFCURVE",
"58 32 OFFCURVE",
"58 41 CURVE SMOOTH",
"58 56 OFFCURVE",
"68 76 OFFCURVE",
"79 96 CURVE SMOOTH",
"140 208 LINE",
"362 208 LINE",
"392 90 LINE SMOOTH",
"395 80 OFFCURVE",
"397 66 OFFCURVE",
"397 57 CURVE SMOOTH",
"397 40 OFFCURVE",
"390 26 OFFCURVE",
"370 27 CURVE SMOOTH",
"317 29 LINE",
"313 0 LINE",
"572 0 LINE",
"576 29 LINE",
"565 29 OFFCURVE",
"553 27 OFFCURVE",
"542 27 CURVE SMOOTH",
"537 27 LINE SMOOTH",
"508 27 OFFCURVE",
"499 55 OFFCURVE",
"487 102 CURVE SMOOTH",
"354 607 LINE",
"326 607 LINE",
"53 104 LINE SMOOTH",
"28 58 OFFCURVE",
"8 27 OFFCURVE",
"-16 27 CURVE",
"-47 29 LINE"
);
},
{
closed = 1;
nodes = (
"153 236 LINE",
"288 485 LINE",
"311 403 OFFCURVE",
"334 318 OFFCURVE",
"355 236 CURVE"
);
},
{
closed = 1;
nodes = (
"239 795 OFFCURVE",
"243 791 OFFCURVE",
"247 788 CURVE SMOOTH",
"389 675 LINE SMOOTH",
"393 672 OFFCURVE",
"401 666 OFFCURVE",
"409 666 CURVE SMOOTH",
"420 666 OFFCURVE",
"424 669 OFFCURVE",
"424 674 CURVE SMOOTH",
"424 677 OFFCURVE",
"419 684 OFFCURVE",
"414 691 CURVE SMOOTH",
"329 805 LINE SMOOTH",
"317 821 OFFCURVE",
"314 826 OFFCURVE",
"300 826 CURVE SMOOTH",
"276 826 OFFCURVE",
"239 808 OFFCURVE",
"239 799 CURVE SMOOTH"
);
}
);
};
components = (
{
name = A;
},
{
name = grave.case;
transform = "{1, 0, 0, 1, 125, 0}";
}
);
layerId = UUID0;
width = 580;
},
{
background = {
paths = (
{
closed = 1;
nodes = (
"-51 0 LINE",
"119 0 LINE",
"123 29 LINE",
"72 26 LINE",
"62 26 OFFCURVE",
"58 32 OFFCURVE",
"58 41 CURVE SMOOTH",
"58 56 OFFCURVE",
"68 76 OFFCURVE",
"79 96 CURVE SMOOTH",
"140 208 LINE",
"362 208 LINE",
"392 90 LINE SMOOTH",
"395 80 OFFCURVE",
"397 66 OFFCURVE",
"397 57 CURVE SMOOTH",
"397 40 OFFCURVE",
"390 26 OFFCURVE",
"370 27 CURVE SMOOTH",
"317 29 LINE",
"313 0 LINE",
"572 0 LINE",
"576 29 LINE",
"565 29 OFFCURVE",
"553 27 OFFCURVE",
"542 27 CURVE SMOOTH",
"537 27 LINE SMOOTH",
"508 27 OFFCURVE",
"499 55 OFFCURVE",
"487 102 CURVE SMOOTH",
"354 607 LINE",
"326 607 LINE",
"53 104 LINE SMOOTH",
"28 58 OFFCURVE",
"8 27 OFFCURVE",
"-16 27 CURVE",
"-47 29 LINE"
);
},
{
closed = 1;
nodes = (
"153 236 LINE",
"288 485 LINE",
"311 403 OFFCURVE",
"334 318 OFFCURVE",
"355 236 CURVE"
);
},
{
closed = 1;
nodes = (
"239 795 OFFCURVE",
"243 791 OFFCURVE",
"247 788 CURVE SMOOTH",
"389 675 LINE SMOOTH",
"393 672 OFFCURVE",
"401 666 OFFCURVE",
"409 666 CURVE SMOOTH",
"420 666 OFFCURVE",
"424 669 OFFCURVE",
"424 674 CURVE SMOOTH",
"424 677 OFFCURVE",
"419 684 OFFCURVE",
"414 691 CURVE SMOOTH",
"329 805 LINE SMOOTH",
"317 821 OFFCURVE",
"314 826 OFFCURVE",
"300 826 CURVE SMOOTH",
"276 826 OFFCURVE",
"239 808 OFFCURVE",
"239 799 CURVE SMOOTH"
);
}
);
};
components = (
{
name = A;
},
{
name = grave.case;
transform = "{1, 0, 0, 1, 129, 0}";
}
);
layerId = "E888B586-AF79-49A4-B375-A6F02287AAF4";
width = 617;
}
);
leftKerningGroup = A;
rightKerningGroup = A;
unicode = 00C0;
},
{
color = 4;
glyphname = Aring;
layers = (
{
background = {
paths = (
{
closed = 1;
nodes = (
"-51 0 LINE",
"119 0 LINE",
"123 29 LINE",
"72 26 LINE",
"62 26 OFFCURVE",
"58 32 OFFCURVE",
"58 41 CURVE SMOOTH",
"58 56 OFFCURVE",
"68 76 OFFCURVE",
"79 96 CURVE SMOOTH",
"140 208 LINE",
"362 208 LINE",
"392 90 LINE SMOOTH",
"395 80 OFFCURVE",
"397 66 OFFCURVE",
"397 57 CURVE SMOOTH",
"397 40 OFFCURVE",
"390 26 OFFCURVE",
"370 27 CURVE SMOOTH",
"317 29 LINE",
"313 0 LINE",
"572 0 LINE",
"576 29 LINE",
"565 29 OFFCURVE",
"553 27 OFFCURVE",
"542 27 CURVE SMOOTH",
"537 27 LINE SMOOTH",
"508 27 OFFCURVE",
"499 55 OFFCURVE",
"487 102 CURVE SMOOTH",
"354 607 LINE",
"326 607 LINE",
"53 104 LINE SMOOTH",
"28 58 OFFCURVE",
"8 27 OFFCURVE",
"-16 27 CURVE",
"-47 29 LINE"
);
},
{
closed = 1;
nodes = (
"153 236 LINE",
"288 485 LINE",
"311 403 OFFCURVE",
"334 318 OFFCURVE",
"355 236 CURVE"
);
},
{
closed = 1;
nodes = (
"282 696 OFFCURVE",
"312 666 OFFCURVE",
"354 666 CURVE SMOOTH",
"404 666 OFFCURVE",
"449 706 OFFCURVE",
"449 758 CURVE SMOOTH",
"449 799 OFFCURVE",
"418 829 OFFCURVE",
"377 829 CURVE SMOOTH",
"329 829 OFFCURVE",
"282 788 OFFCURVE",
"282 738 CURVE SMOOTH"
);
},
{
closed = 1;
nodes = (
"327 768 OFFCURVE",
"347 793 OFFCURVE",
"371 793 CURVE SMOOTH",
"391 793 OFFCURVE",
"405 774 OFFCURVE",
"405 753 CURVE SMOOTH",
"405 728 OFFCURVE",
"382 702 OFFCURVE",
"359 702 CURVE SMOOTH",
"339 702 OFFCURVE",
"327 722 OFFCURVE",
"327 742 CURVE SMOOTH"
);
}
);
};
components = (
{
name = A;
},
{
name = ring.case;
transform = "{1, 0, 0, 1, 178, 0}";
}
);
layerId = UUID0;
width = 580;
},
{
background = {
paths = (
{
closed = 1;
nodes = (
"-51 0 LINE",
"119 0 LINE",
"123 29 LINE",
"72 26 LINE",
"62 26 OFFCURVE",
"58 32 OFFCURVE",
"58 41 CURVE SMOOTH",
"58 56 OFFCURVE",
"68 76 OFFCURVE",
"79 96 CURVE SMOOTH",
"140 208 LINE",
"362 208 LINE",
"392 90 LINE SMOOTH",
"395 80 OFFCURVE",
"397 66 OFFCURVE",
"397 57 CURVE SMOOTH",
"397 40 OFFCURVE",
"390 26 OFFCURVE",
"370 27 CURVE SMOOTH",
"317 29 LINE",
"313 0 LINE",
"572 0 LINE",
"576 29 LINE",
"565 29 OFFCURVE",
"553 27 OFFCURVE",
"542 27 CURVE SMOOTH",
"537 27 LINE SMOOTH",
"508 27 OFFCURVE",
"499 55 OFFCURVE",
"487 102 CURVE SMOOTH",
"354 607 LINE",
"326 607 LINE",
"53 104 LINE SMOOTH",
"28 58 OFFCURVE",
"8 27 OFFCURVE",
"-16 27 CURVE",
"-47 29 LINE"
);
},
{
closed = 1;
nodes = (
"153 236 LINE",
"288 485 LINE",
"311 403 OFFCURVE",
"334 318 OFFCURVE",
"355 236 CURVE"
);
},
{
closed = 1;
nodes = (
"282 696 OFFCURVE",
"312 666 OFFCURVE",
"354 666 CURVE SMOOTH",
"404 666 OFFCURVE",
"449 706 OFFCURVE",
"449 758 CURVE SMOOTH",
"449 799 OFFCURVE",
"418 829 OFFCURVE",
"377 829 CURVE SMOOTH",
"329 829 OFFCURVE",
"282 788 OFFCURVE",
"282 738 CURVE SMOOTH"
);
},
{
closed = 1;
nodes = (
"327 768 OFFCURVE",
"347 793 OFFCURVE",
"371 793 CURVE SMOOTH",
"391 793 OFFCURVE",
"405 774 OFFCURVE",
"405 753 CURVE SMOOTH",
"405 728 OFFCURVE",
"382 702 OFFCURVE",
"359 702 CURVE SMOOTH",
"339 702 OFFCURVE",
"327 722 OFFCURVE",
"327 742 CURVE SMOOTH"
);
}
);
};
components = (
{
name = A;
},
{
name = ring.case;
transform = "{1, 0, 0, 1, 182, 0}";
}
);
layerId = "E888B586-AF79-49A4-B375-A6F02287AAF4";
width = 617;
}
);
leftKerningGroup = A;
rightKerningGroup = A;
unicode = 00C5;
},
{
color = 4;
glyphname = Atilde;
layers = (
{
background = {
paths = (
{
closed = 1;
nodes = (
"-51 0 LINE",
"119 0 LINE",
"123 29 LINE",
"72 26 LINE",
"62 26 OFFCURVE",
"58 32 OFFCURVE",
"58 41 CURVE SMOOTH",
"58 56 OFFCURVE",
"68 76 OFFCURVE",
"79 96 CURVE SMOOTH",
"140 208 LINE",
"362 208 LINE",
"392 90 LINE SMOOTH",
"395 80 OFFCURVE",
"397 66 OFFCURVE",
"397 57 CURVE SMOOTH",
"397 40 OFFCURVE",
"390 26 OFFCURVE",
"370 27 CURVE SMOOTH",
"316 29 LINE",
"312 0 LINE",
"571 0 LINE",
"575 29 LINE",
"565 29 OFFCURVE",
"553 27 OFFCURVE",
"542 27 CURVE SMOOTH",
"537 27 LINE SMOOTH",
"510 27 OFFCURVE",
"498 55 OFFCURVE",
"487 102 CURVE",
"354 607 LINE",
"326 607 LINE",
"53 104 LINE SMOOTH",
"28 58 OFFCURVE",
"8 27 OFFCURVE",
"-16 27 CURVE",
"-47 29 LINE"
);
},
{
closed = 1;
nodes = (
"153 236 LINE",
"288 485 LINE",
"311 403 OFFCURVE",
"334 318 OFFCURVE",
"355 236 CURVE"
);
},
{
closed = 1;
nodes = (
"238 676 LINE",
"241 700 OFFCURVE",
"257 718 OFFCURVE",
"275 718 CURVE SMOOTH",
"312 718 OFFCURVE",
"390 675 OFFCURVE",
"432 675 CURVE SMOOTH",
"469 675 OFFCURVE",
"501 717 OFFCURVE",
"508 766 CURVE",
"486 766 LINE",
"482 742 OFFCURVE",
"467 724 OFFCURVE",
"450 724 CURVE SMOOTH",
"412 724 OFFCURVE",
"336 767 OFFCURVE",
"292 767 CURVE SMOOTH",
"256 767 OFFCURVE",
"223 725 OFFCURVE",
"216 676 CURVE"
);
}
);
};
components = (
{
name = A;
},
{
name = tilde.case;
transform = "{1, 0, 0, 1, 114, 0}";
}
);
layerId = UUID0;
width = 580;
},
{
background = {
paths = (
{
closed = 1;
nodes = (
"-51 0 LINE",
"119 0 LINE",
"123 29 LINE",
"72 26 LINE",
"62 26 OFFCURVE",
"58 32 OFFCURVE",
"58 41 CURVE SMOOTH",
"58 56 OFFCURVE",
"68 76 OFFCURVE",
"79 96 CURVE SMOOTH",
"140 208 LINE",
"362 208 LINE",
"392 90 LINE SMOOTH",
"395 80 OFFCURVE",
"397 66 OFFCURVE",
"397 57 CURVE SMOOTH",
"397 40 OFFCURVE",
"390 26 OFFCURVE",
"370 27 CURVE SMOOTH",
"316 29 LINE",
"312 0 LINE",
"571 0 LINE",
"575 29 LINE",
"565 29 OFFCURVE",
"553 27 OFFCURVE",
"542 27 CURVE SMOOTH",
"537 27 LINE SMOOTH",
"510 27 OFFCURVE",
"498 55 OFFCURVE",
"487 102 CURVE",
"354 607 LINE",
"326 607 LINE",
"53 104 LINE SMOOTH",
"28 58 OFFCURVE",
"8 27 OFFCURVE",
"-16 27 CURVE",
"-47 29 LINE"
);
},
{
closed = 1;
nodes = (
"153 236 LINE",
"288 485 LINE",
"311 403 OFFCURVE",
"334 318 OFFCURVE",
"355 236 CURVE"
);
},
{
closed = 1;
nodes = (
"238 676 LINE",
"241 700 OFFCURVE",
"257 718 OFFCURVE",
"275 718 CURVE SMOOTH",
"312 718 OFFCURVE",
"390 675 OFFCURVE",
"432 675 CURVE SMOOTH",
"469 675 OFFCURVE",
"501 717 OFFCURVE",
"508 766 CURVE",
"486 766 LINE",
"482 742 OFFCURVE",
"467 724 OFFCURVE",
"450 724 CURVE SMOOTH",
"412 724 OFFCURVE",
"336 767 OFFCURVE",
"292 767 CURVE SMOOTH",
"256 767 OFFCURVE",
"223 725 OFFCURVE",
"216 676 CURVE"
);
}
);
};
components = (
{
name = A;
},
{
name = tilde.case;
transform = "{1, 0, 0, 1, 118, 0}";
}
);
layerId = "E888B586-AF79-49A4-B375-A6F02287AAF4";
width = 617;
}
);
leftKerningGroup = A;
rightKerningGroup = A;
unicode = 00C3;
},
{
color = 4;
glyphname = AE;
layers = (
{
anchors = (
{
name = top;
position = "{494, 598}";
}
);
layerId = UUID0;
paths = (
{
closed = 1;
nodes = (
"803 598 OFFCURVE",
"791 597 OFFCURVE",
"777 597 CURVE SMOOTH",
"327 597 LINE",
"322 565 LINE",
"373 567 LINE SMOOTH",
"383 567 OFFCURVE",
"390 552 OFFCURVE",
"383 543 CURVE SMOOTH",
"49 86 LINE SMOOTH",
"21 48 OFFCURVE",
"2 27 OFFCURVE",
"-12 27 CURVE",
"-47 30 LINE",
"-51 0 LINE",
"121 0 LINE",
"125 30 LINE",
"71 27 LINE SMOOTH",
"51 27 OFFCURVE",
"60 57 OFFCURVE",
"77 80 CURVE SMOOTH",
"168 208 LINE",
"403 208 LINE",
"409 47 LINE",
"407 37 OFFCURVE",
"399 26 OFFCURVE",
"386 27 CURVE SMOOTH",
"330 30 LINE",
"326 0 LINE",
"660 0 LINE SMOOTH",
"674 0 OFFCURVE",
"710 0 OFFCURVE",
"746 -3 CURVE",
"770 171 LINE",
"741 171 LINE",
"728 75 OFFCURVE",
"676 27 OFFCURVE",
"587 27 CURVE SMOOTH",
"523 27 LINE SMOOTH",
"513 27 OFFCURVE",
"508 35 OFFCURVE",
"506 46 CURVE",
"496 297 LINE",
"571 297 LINE SMOOTH",
"611 297 OFFCURVE",
"636 255 OFFCURVE",
"627 195 CURVE",
"656 195 LINE",
"689 426 LINE",
"660 426 LINE",
"651 365 OFFCURVE",
"615 324 OFFCURVE",
"575 324 CURVE SMOOTH",
"496 324 LINE",
"487 569 LINE",
"643 569 LINE SMOOTH",
"735 569 OFFCURVE",
"774 531 OFFCURVE",
"761 443 CURVE",
"789 443 LINE",
"811 599 LINE"
);
},
{
closed = 1;
nodes = (
"401 236 LINE",
"188 236 LINE",
"390 511 LINE"
);
}
);
width = 818;
},
{
anchors = (
{
name = top;
position = "{527, 598}";
}
);
layerId = "E888B586-AF79-49A4-B375-A6F02287AAF4";
paths = (
{
closed = 1;
nodes = (
"836 598 OFFCURVE",
"820 597 OFFCURVE",
"801 597 CURVE SMOOTH",
"330 597 LINE",
"324 555 LINE",
"375 557 LINE",
"386 557 OFFCURVE",
"396 545 OFFCURVE",
"387 533 CURVE SMOOTH",
"59 96 LINE SMOOTH",
"27 53 OFFCURVE",
"9 34 OFFCURVE",
"-10 37 CURVE",
"-40 40 LINE",
"-46 0 LINE",
"143 0 LINE",
"149 40 LINE",
"97 37 LINE SMOOTH",
"64 34 OFFCURVE",
"85 71 OFFCURVE",
"99 90 CURVE SMOOTH",
"164 178 LINE",
"388 178 LINE",
"394 62 LINE",
"395 50 OFFCURVE",
"385 36 OFFCURVE",
"368 37 CURVE SMOOTH",
"312 40 LINE",
"306 0 LINE",
"683 0 LINE SMOOTH",
"700 0 OFFCURVE",
"741 0 OFFCURVE",
"781 -3 CURVE",
"805 171 LINE",
"768 171 LINE",
"756 84 OFFCURVE",
"702 36 OFFCURVE",
"608 36 CURVE SMOOTH",
"572 36 LINE SMOOTH",
"561 36 OFFCURVE",
"555 44 OFFCURVE",
"554 55 CURVE",
"540 286 LINE",
"589 286 LINE SMOOTH",
"632 286 OFFCURVE",
"659 244 OFFCURVE",
"652 190 CURVE",
"688 190 LINE",
"721 426 LINE",
"683 426 LINE",
"674 365 OFFCURVE",
"636 324 OFFCURVE",
"593 324 CURVE SMOOTH",
"540 324 LINE",
"530 559 LINE",
"662 559 LINE SMOOTH",
"758 559 OFFCURVE",
"799 524 OFFCURVE",
"787 443 CURVE",
"823 443 LINE",
"845 599 LINE"
);
},
{
closed = 1;
nodes = (
"386 216 LINE",
"193 216 LINE",
"375 459 LINE"
);
}
);
width = 855;
}
);
leftMetricsKey = "=A";
rightMetricsKey = "=E";
unicode = 00C6;
},
{
color = 4;
glyphname = B;
layers = (
{
layerId = UUID0;
paths = (
{
closed = 1;
nodes = (
"102 597 LINE",
"98 567 LINE",
"149 569 LINE SMOOTH",
"158 569 OFFCURVE",
"161 558 OFFCURVE",
"160 549 CURVE SMOOTH",
"90 49 LINE SMOOTH",
"88 34 OFFCURVE",
"82 27 OFFCURVE",
"72 27 CURVE SMOOTH",
"22 29 LINE",
"18 0 LINE",
"272 0 LINE SMOOTH",
"432 0 OFFCURVE",
"511 64 OFFCURVE",
"511 180 CURVE SMOOTH",
"511 259 OFFCURVE",
"450 317 OFFCURVE",
"366 317 CURVE",
"455 333 OFFCURVE",
"521 391 OFFCURVE",
"521 476 CURVE SMOOTH",
"521 556 OFFCURVE",
"468 597 OFFCURVE",
"370 597 CURVE SMOOTH"
);
},
{
closed = 1;
nodes = (
"381 299 OFFCURVE",
"415 263 OFFCURVE",
"415 191 CURVE SMOOTH",
"415 87 OFFCURVE",
"349 28 OFFCURVE",
"260 28 CURVE SMOOTH",
"192 28 LINE SMOOTH",
"184 28 OFFCURVE",
"180 32 OFFCURVE",
"182 41 CURVE",
"218 299 LINE",
"316 299 LINE SMOOTH"
);
},
{
closed = 1;
nodes = (
"389 569 OFFCURVE",
"425 532 OFFCURVE",
"425 471 CURVE SMOOTH",
"425 382 OFFCURVE",
"383 327 OFFCURVE",
"294 327 CURVE SMOOTH",
"222 327 LINE",
"254 557 LINE",
"256 565 OFFCURVE",
"261 569 OFFCURVE",
"266 569 CURVE SMOOTH",
"322 569 LINE SMOOTH"
);
}
);
width = 555;
},
{
layerId = "E888B586-AF79-49A4-B375-A6F02287AAF4";
paths = (
{
closed = 1;
nodes = (
"89 597 LINE",
"83 557 LINE",
"130 559 LINE",
"141 559 OFFCURVE",
"145 548 OFFCURVE",
"144 539 CURVE SMOOTH",
"76 59 LINE SMOOTH",
"74 45 OFFCURVE",
"68 37 OFFCURVE",
"57 37 CURVE",
"10 39 LINE",
"5 0 LINE",
"312 0 LINE SMOOTH",
"476 0 OFFCURVE",
"557 64 OFFCURVE",
"557 179 CURVE SMOOTH",
"557 259 OFFCURVE",
"494 317 OFFCURVE",
"407 317 CURVE",
"500 333 OFFCURVE",
"566 390 OFFCURVE",
"566 476 CURVE SMOOTH",
"566 556 OFFCURVE",
"512 597 OFFCURVE",
"411 597 CURVE SMOOTH"
);
},
{
closed = 1;
nodes = (
"377 292 OFFCURVE",
"402 265 OFFCURVE",
"402 199 CURVE SMOOTH",
"402 86 OFFCURVE",
"352 38 OFFCURVE",
"282 38 CURVE SMOOTH",
"240 38 LINE SMOOTH",
"231 38 OFFCURVE",
"227 42 OFFCURVE",
"228 51 CURVE SMOOTH",
"262 292 LINE",
"329 292 LINE SMOOTH"
);
},
{
closed = 1;
nodes = (
"386 559 OFFCURVE",
"411 535 OFFCURVE",
"411 476 CURVE SMOOTH",
"411 382 OFFCURVE",
"384 330 OFFCURVE",
"311 330 CURVE SMOOTH",
"267 330 LINE",
"298 547 LINE",
"300 555 OFFCURVE",
"305 559 OFFCURVE",
"312 559 CURVE SMOOTH",
"343 559 LINE SMOOTH"
);
}
);
width = 584;
}
);
leftMetricsKey = "=H";
unicode = 0042;
},
{
color = 4;
glyphname = C;
layers = (
{
anchors = (
{
name = bottom;
position = "{263, 0}";
},
{
name = top;
position = "{357, 598}";
}
);
background = {
paths = (
{
closed = 1;
nodes = (
"50 87 OFFCURVE",
"141 -10 OFFCURVE",
"298 -10 CURVE SMOOTH",
"318 -10 OFFCURVE",
"340 -7 OFFCURVE",
"366 -2 CURVE",
"441 20 LINE SMOOTH",
"466 27 OFFCURVE",
"490 35 OFFCURVE",
"510 35 CURVE SMOOTH",
"517 35 LINE",
"517 36 OFFCURVE",
"517 44 OFFCURVE",
"517 47 CURVE SMOOTH",
"517 73 OFFCURVE",
"521 95 OFFCURVE",
"528 122 CURVE SMOOTH",
"539 167 LINE",
"508 167 LINE",
"478 82 OFFCURVE",
"396 17 OFFCURVE",
"306 17 CURVE SMOOTH",
"208 17 OFFCURVE",
"151 108 OFFCURVE",
"151 240 CURVE SMOOTH",
"151 432 OFFCURVE",
"245 582 OFFCURVE",
"381 582 CURVE SMOOTH",
"467 582 OFFCURVE",
"535 515 OFFCURVE",
"541 433 CURVE",
"567 433 LINE",
"566 434 OFFCURVE",
"566 441 OFFCURVE",
"566 448 CURVE SMOOTH",
"566 467 OFFCURVE",
"573 518 OFFCURVE",
"585 564 CURVE",
"572 564 OFFCURVE",
"550 566 OFFCURVE",
"540 570 CURVE SMOOTH",
"457 605 OFFCURVE",
"443 607 OFFCURVE",
"389 607 CURVE SMOOTH",
"182 607 OFFCURVE",
"50 466 OFFCURVE",
"50 245 CURVE SMOOTH"
);
}
);
};
layerId = UUID0;
paths = (
{
closed = 1;
nodes = (
"49 87 OFFCURVE",
"140 -10 OFFCURVE",
"297 -10 CURVE SMOOTH",
"398 -10 OFFCURVE",
"443 35 OFFCURVE",
"509 35 CURVE SMOOTH",
"516 35 LINE",
"516 47 LINE",
"516 73 OFFCURVE",
"519 89 OFFCURVE",
"538 167 CURVE",
"507 167 LINE",
"477 82 OFFCURVE",
"395 17 OFFCURVE",
"305 17 CURVE SMOOTH",
"207 17 OFFCURVE",
"150 108 OFFCURVE",
"150 240 CURVE SMOOTH",
"150 432 OFFCURVE",
"244 582 OFFCURVE",
"380 582 CURVE SMOOTH",
"466 582 OFFCURVE",
"534 515 OFFCURVE",
"540 433 CURVE",
"566 433 LINE",
"565 434 OFFCURVE",
"565 441 OFFCURVE",
"565 448 CURVE SMOOTH",
"565 467 OFFCURVE",
"572 518 OFFCURVE",
"584 564 CURVE",
"505 564 OFFCURVE",
"507 607 OFFCURVE",
"388 607 CURVE SMOOTH",
"181 607 OFFCURVE",
"49 466 OFFCURVE",
"49 245 CURVE SMOOTH"
);
}
);
width = 585;
},
{
anchors = (
{
name = bottom;
position = "{321, 0}";
},
{
name = top;
position = "{405, 598}";
}
);
layerId = "E888B586-AF79-49A4-B375-A6F02287AAF4";
paths = (
{
closed = 1;
nodes = (
"35 90 OFFCURVE",
"137 -10 OFFCURVE",
"311 -10 CURVE SMOOTH",
"402 -10 OFFCURVE",
"476 35 OFFCURVE",
"539 35 CURVE SMOOTH",
"545 35 LINE",
"545 49 LINE SMOOTH",
"545 82 OFFCURVE",
"551 113 OFFCURVE",
"565 167 CURVE",
"527 167 LINE",
"500 88 OFFCURVE",
"426 27 OFFCURVE",
"344 27 CURVE SMOOTH",
"255 27 OFFCURVE",
"201 100 OFFCURVE",
"201 237 CURVE SMOOTH",
"201 447 OFFCURVE",
"280 572 OFFCURVE",
"407 572 CURVE SMOOTH",
"485 572 OFFCURVE",
"547 509 OFFCURVE",
"554 433 CURVE",
"588 433 LINE",
"588 434 OFFCURVE",
"587 442 OFFCURVE",
"587 450 CURVE SMOOTH",
"587 469 OFFCURVE",
"593 519 OFFCURVE",
"604 564 CURVE",
"527 564 OFFCURVE",
"505 607 OFFCURVE",
"392 607 CURVE SMOOTH",
"172 607 OFFCURVE",
"35 472 OFFCURVE",
"35 253 CURVE SMOOTH"
);
}
);
width = 596;
}
);
leftKerningGroup = O;
leftMetricsKey = "=O";
rightMetricsKey = "=O";
unicode = 0043;
},
{
color = 4;
glyphname = Ccedilla;
layers = (
{
background = {
paths = (
{
closed = 1;
nodes = (
"153 -198 LINE",
"174 -213 OFFCURVE",
"203 -214 OFFCURVE",
"219 -214 CURVE SMOOTH",
"287 -214 OFFCURVE",
"325 -171 OFFCURVE",
"325 -117 CURVE SMOOTH",
"325 -74 OFFCURVE",
"249 -84 OFFCURVE",
"249 -63 CURVE SMOOTH",
"249 -59 OFFCURVE",
"252 -51 OFFCURVE",
"258 -43 CURVE SMOOTH",
"282 -10 LINE",
"299 -10 LINE",
"354 -10 OFFCURVE",
"416 11 OFFCURVE",
"442 20 CURVE SMOOTH",
"465 28 OFFCURVE",
"488 35 OFFCURVE",
"507 35 CURVE SMOOTH",
"508 35 OFFCURVE",
"509 35 OFFCURVE",
"510 35 CURVE SMOOTH",
"518 35 LINE",
"518 36 OFFCURVE",
"518 44 OFFCURVE",
"518 47 CURVE SMOOTH",
"518 86 OFFCURVE",
"529 120 OFFCURVE",
"535 146 CURVE SMOOTH",
"540 167 LINE",
"510 167 LINE",
"479 82 OFFCURVE",
"396 17 OFFCURVE",
"306 17 CURVE SMOOTH",
"208 17 OFFCURVE",
"151 108 OFFCURVE",
"151 240 CURVE SMOOTH",
"151 431 OFFCURVE",
"244 582 OFFCURVE",
"382 582 CURVE SMOOTH",
"468 582 OFFCURVE",
"535 515 OFFCURVE",
"542 433 CURVE",
"567 433 LINE",
"567 433 OFFCURVE",
"567 440 OFFCURVE",
"567 445 CURVE SMOOTH",
"567 467 OFFCURVE",
"574 518 OFFCURVE",
"586 564 CURVE",
"573 564 OFFCURVE",
"551 566 OFFCURVE",
"540 570 CURVE SMOOTH",
"459 604 OFFCURVE",
"443 607 OFFCURVE",
"389 607 CURVE SMOOTH",
"182 607 OFFCURVE",
"50 466 OFFCURVE",
"50 244 CURVE SMOOTH",
"50 104 OFFCURVE",
"121 10 OFFCURVE",
"249 -7 CURVE",
"212 -48 LINE SMOOTH",
"207 -53 OFFCURVE",
"201 -61 OFFCURVE",
"201 -66 CURVE SMOOTH",
"201 -71 OFFCURVE",
"204 -76 OFFCURVE",
"210 -80 CURVE SMOOTH",
"230 -94 LINE SMOOTH",
"244 -104 OFFCURVE",
"258 -115 OFFCURVE",
"258 -130 CURVE SMOOTH",
"258 -161 OFFCURVE",
"228 -187 OFFCURVE",
"197 -187 CURVE SMOOTH",
"183 -187 OFFCURVE",
"173 -182 OFFCURVE",
"165 -172 CURVE"
);
}
);
};
components = (
{
name = C;
},
{
name = cedilla;
transform = "{1, 0, 0, 1, 179, 0}";
}
);
layerId = UUID0;
width = 585;
},
{
background = {
paths = (
{
closed = 1;
nodes = (
"153 -198 LINE",
"174 -213 OFFCURVE",
"203 -214 OFFCURVE",
"219 -214 CURVE SMOOTH",
"287 -214 OFFCURVE",
"325 -171 OFFCURVE",
"325 -117 CURVE SMOOTH",
"325 -74 OFFCURVE",
"249 -84 OFFCURVE",
"249 -63 CURVE SMOOTH",
"249 -59 OFFCURVE",
"252 -51 OFFCURVE",
"258 -43 CURVE SMOOTH",
"282 -10 LINE",
"299 -10 LINE",
"354 -10 OFFCURVE",
"416 11 OFFCURVE",
"442 20 CURVE SMOOTH",
"465 28 OFFCURVE",
"488 35 OFFCURVE",
"507 35 CURVE SMOOTH",
"508 35 OFFCURVE",
"509 35 OFFCURVE",
"510 35 CURVE SMOOTH",
"518 35 LINE",
"518 36 OFFCURVE",
"518 44 OFFCURVE",
"518 47 CURVE SMOOTH",
"518 86 OFFCURVE",
"529 120 OFFCURVE",
"535 146 CURVE SMOOTH",
"540 167 LINE",
"510 167 LINE",
"479 82 OFFCURVE",
"396 17 OFFCURVE",
"306 17 CURVE SMOOTH",
"208 17 OFFCURVE",
"151 108 OFFCURVE",
"151 240 CURVE SMOOTH",
"151 431 OFFCURVE",
"244 582 OFFCURVE",
"382 582 CURVE SMOOTH",
"468 582 OFFCURVE",
"535 515 OFFCURVE",
"542 433 CURVE",
"567 433 LINE",
"567 433 OFFCURVE",
"567 440 OFFCURVE",
"567 445 CURVE SMOOTH",
"567 467 OFFCURVE",
"574 518 OFFCURVE",
"586 564 CURVE",
"573 564 OFFCURVE",
"551 566 OFFCURVE",
"540 570 CURVE SMOOTH",
"459 604 OFFCURVE",
"443 607 OFFCURVE",
"389 607 CURVE SMOOTH",
"182 607 OFFCURVE",
"50 466 OFFCURVE",
"50 244 CURVE SMOOTH",
"50 104 OFFCURVE",
"121 10 OFFCURVE",
"249 -7 CURVE",
"212 -48 LINE SMOOTH",
"207 -53 OFFCURVE",
"201 -61 OFFCURVE",
"201 -66 CURVE SMOOTH",
"201 -71 OFFCURVE",
"204 -76 OFFCURVE",
"210 -80 CURVE SMOOTH",
"230 -94 LINE SMOOTH",
"244 -104 OFFCURVE",
"258 -115 OFFCURVE",
"258 -130 CURVE SMOOTH",
"258 -161 OFFCURVE",
"228 -187 OFFCURVE",
"197 -187 CURVE SMOOTH",
"183 -187 OFFCURVE",
"173 -182 OFFCURVE",
"165 -172 CURVE"
);
}
);
};
components = (
{
name = C;
},
{
name = cedilla;
transform = "{1, 0, 0, 1, 237, 0}";
}
);
layerId = "E888B586-AF79-49A4-B375-A6F02287AAF4";
width = 596;
}
);
leftKerningGroup = O;
unicode = 00C7;
},
{
color = 4;
glyphname = D;
layers = (
{
anchors = (
{
name = center;
position = "{312, 299}";
},
{
name = top;
position = "{362, 598}";
}
);
background = {
paths = (
{
closed = 1;
nodes = (
"240 0 LINE SMOOTH",
"445 0 OFFCURVE",
"556 104 OFFCURVE",
"583 299 CURVE SMOOTH",
"614 516 OFFCURVE",
"521 597 OFFCURVE",
"312 597 CURVE SMOOTH",
"87 597 LINE",
"83 567 LINE",
"122 569 LINE SMOOTH",
"135 569 OFFCURVE",
"140 559 OFFCURVE",
"138 548 CURVE SMOOTH",
"68 49 LINE SMOOTH",
"66 37 OFFCURVE",
"61 27 OFFCURVE",
"50 27 CURVE SMOOTH",
"7 29 LINE",
"3 0 LINE"
);
},
{
closed = 1;
nodes = (
"232 556 LINE SMOOTH",
"233 565 OFFCURVE",
"238 569 OFFCURVE",
"246 569 CURVE SMOOTH",
"291 569 LINE SMOOTH",
"456 569 OFFCURVE",
"508 494 OFFCURVE",
"481 298 CURVE SMOOTH",
"453 101 OFFCURVE",
"380 28 OFFCURVE",
"215 28 CURVE SMOOTH",
"170 28 LINE SMOOTH",
"162 28 OFFCURVE",
"159 32 OFFCURVE",
"160 41 CURVE SMOOTH"
);
}
);
};
layerId = UUID0;
paths = (
{
closed = 1;
nodes = (
"102 597 LINE",
"98 567 LINE",
"137 569 LINE SMOOTH",
"148 569 OFFCURVE",
"153 559 OFFCURVE",
"151 548 CURVE SMOOTH",
"81 49 LINE SMOOTH",
"79 37 OFFCURVE",
"74 27 OFFCURVE",
"65 27 CURVE SMOOTH",
"22 29 LINE",
"18 0 LINE",
"248 0 LINE SMOOTH",
"481 0 OFFCURVE",
"588 134 OFFCURVE",
"588 362 CURVE SMOOTH",
"588 531 OFFCURVE",
"497 597 OFFCURVE",
"320 597 CURVE SMOOTH"
);
},
{
closed = 1;
nodes = (
"431 569 OFFCURVE",
"487 512 OFFCURVE",
"487 373 CURVE SMOOTH",
"487 308 OFFCURVE",
"477 250 OFFCURVE",
"464 202 CURVE SMOOTH",
"434 91 OFFCURVE",
"380 28 OFFCURVE",
"224 28 CURVE SMOOTH",
"180 28 LINE SMOOTH",
"174 28 OFFCURVE",
"170 32 OFFCURVE",
"172 41 CURVE",
"244 556 LINE SMOOTH",
"245 565 OFFCURVE",
"250 569 OFFCURVE",
"256 569 CURVE SMOOTH",
"300 569 LINE SMOOTH"
);
}
);
width = 613;
},
{
anchors = (
{
name = center;
position = "{282, 299}";
},
{
name = top;
position = "{342, 598}";
}
);
layerId = "E888B586-AF79-49A4-B375-A6F02287AAF4";
paths = (
{
closed = 1;
nodes = (
"89 597 LINE",
"83 557 LINE",
"118 559 LINE SMOOTH",
"132 560 OFFCURVE",
"135 547 OFFCURVE",
"134 538 CURVE SMOOTH",
"66 59 LINE",
"65 47 OFFCURVE",
"59 36 OFFCURVE",
"48 37 CURVE",
"10 39 LINE",
"5 0 LINE",
"267 0 LINE SMOOTH",
"519 0 OFFCURVE",
"631 162 OFFCURVE",
"631 333 CURVE SMOOTH",
"631 498 OFFCURVE",
"538 597 OFFCURVE",
"339 597 CURVE SMOOTH"
);
},
{
closed = 1;
nodes = (
"427 559 OFFCURVE",
"472 502 OFFCURVE",
"472 355 CURVE SMOOTH",
"472 306 OFFCURVE",
"466 251 OFFCURVE",
"450 202 CURVE SMOOTH",
"421 112 OFFCURVE",
"360 38 OFFCURVE",
"243 38 CURVE SMOOTH",
"228 38 LINE SMOOTH",
"220 38 OFFCURVE",
"217 42 OFFCURVE",
"218 51 CURVE SMOOTH",
"288 546 LINE SMOOTH",
"289 555 OFFCURVE",
"294 559 OFFCURVE",
"302 559 CURVE SMOOTH",
"317 559 LINE SMOOTH"
);
}
);
width = 643;
}
);
leftMetricsKey = "=H";
rightKerningGroup = O;
rightMetricsKey = "=O";
unicode = 0044;
},
{
color = 4;
glyphname = Eth;
layers = (
{
components = (
{
name = D;
}
);
layerId = UUID0;
paths = (
{
closed = 1;
nodes = (
"391 293 LINE",
"396 329 LINE",
"56 329 LINE",
"51 293 LINE"
);
}
);
width = 613;
},
{
background = {
paths = (
{
closed = 1;
nodes = (
"371 283 LINE",
"371 329 LINE",
"32 329 LINE",
"32 283 LINE"
);
}
);
};
components = (
{
name = D;
}
);
layerId = "E888B586-AF79-49A4-B375-A6F02287AAF4";
paths = (
{
closed = 1;
nodes = (
"390 283 LINE",
"396 329 LINE",
"56 329 LINE",
"50 283 LINE"
);
}
);
width = 643;
}
);
rightKerningGroup = O;
rightMetricsKey = "=O";
unicode = 00D0;
},
{
color = 4;
glyphname = E;
layers = (
{
anchors = (
{
name = bottom;
position = "{222, 0}";
},
{
name = ogonek;
position = "{428, 14}";
},
{
name = top;
position = "{332, 598}";
}
);
layerId = UUID0;
paths = (
{
closed = 1;
nodes = (
"523 597 OFFCURVE",
"518 597 OFFCURVE",
"510 597 CURVE SMOOTH",
"102 597 LINE",
"98 567 LINE",
"136 569 LINE SMOOTH",
"147 569 OFFCURVE",
"153 561 OFFCURVE",
"151 548 CURVE SMOOTH",
"81 49 LINE SMOOTH",
"79 34 OFFCURVE",
"72 27 OFFCURVE",
"62 27 CURVE",
"22 30 LINE",
"18 0 LINE",
"387 0 LINE SMOOTH",
"428 0 OFFCURVE",
"458 -1 OFFCURVE",
"473 -3 CURVE",
"498 179 LINE",
"469 179 LINE",
"456 82 OFFCURVE",
"402 28 OFFCURVE",
"316 28 CURVE SMOOTH",
"180 28 LINE SMOOTH",
"174 28 OFFCURVE",
"171 32 OFFCURVE",
"172 41 CURVE SMOOTH",
"208 297 LINE",
"298 297 LINE SMOOTH",
"336 297 OFFCURVE",
"363 255 OFFCURVE",
"354 195 CURVE",
"384 195 LINE",
"417 426 LINE",
"387 426 LINE",
"378 362 OFFCURVE",
"343 325 OFFCURVE",
"302 325 CURVE SMOOTH",
"212 325 LINE",
"244 555 LINE SMOOTH",
"245 564 OFFCURVE",
"250 569 OFFCURVE",
"256 569 CURVE SMOOTH",
"360 569 LINE SMOOTH",
"454 569 OFFCURVE",
"490 532 OFFCURVE",
"477 443 CURVE",
"506 443 LINE",
"528 599 LINE"
);
}
);
width = 545;
},
{
anchors = (
{
name = bottom;
position = "{232, 0}";
},
{
name = ogonek;
position = "{458, 14}";
},
{
name = top;
position = "{342, 598}";
}
);
layerId = "E888B586-AF79-49A4-B375-A6F02287AAF4";
paths = (
{
closed = 1;
nodes = (
"550 597 OFFCURVE",
"544 597 OFFCURVE",
"536 597 CURVE SMOOTH",
"89 597 LINE",
"83 557 LINE",
"117 559 LINE SMOOTH",
"129 560 OFFCURVE",
"135 550 OFFCURVE",
"134 538 CURVE",
"66 59 LINE SMOOTH",
"64 44 OFFCURVE",
"57 37 OFFCURVE",
"45 37 CURVE",
"11 40 LINE",
"5 0 LINE",
"401 0 LINE SMOOTH",
"444 0 OFFCURVE",
"484 -1 OFFCURVE",
"499 -3 CURVE",
"524 179 LINE",
"487 179 LINE",
"474 88 OFFCURVE",
"419 38 OFFCURVE",
"328 38 CURVE SMOOTH",
"228 38 LINE SMOOTH",
"220 38 OFFCURVE",
"217 42 OFFCURVE",
"218 51 CURVE SMOOTH",
"251 287 LINE",
"315 287 LINE SMOOTH",
"356 287 OFFCURVE",
"385 245 OFFCURVE",
"378 190 CURVE",
"415 190 LINE",
"448 426 LINE",
"411 426 LINE",
"402 362 OFFCURVE",
"365 325 OFFCURVE",
"321 325 CURVE SMOOTH",
"257 325 LINE",
"288 545 LINE SMOOTH",
"289 554 OFFCURVE",
"294 559 OFFCURVE",
"302 559 CURVE SMOOTH",
"369 559 LINE SMOOTH",
"468 559 OFFCURVE",
"506 525 OFFCURVE",
"494 443 CURVE",
"531 443 LINE",
"553 598 LINE"
);
}
);
width = 573;
}
);
leftMetricsKey = "=H";
rightKerningGroup = E;
unicode = 0045;
},
{
color = 4;
glyphname = Eacute;
layers = (
{
background = {
paths = (
{
closed = 1;
nodes = (
"18 0 LINE",
"387 0 LINE SMOOTH",
"429 0 OFFCURVE",
"459 -1 OFFCURVE",
"474 -3 CURVE",
"499 179 LINE",
"470 179 LINE",
"457 82 OFFCURVE",
"403 28 OFFCURVE",
"316 28 CURVE SMOOTH",
"181 28 LINE SMOOTH",
"174 28 OFFCURVE",
"172 32 OFFCURVE",
"173 41 CURVE SMOOTH",
"209 297 LINE",
"298 297 LINE SMOOTH",
"337 297 OFFCURVE",
"364 255 OFFCURVE",
"355 195 CURVE",
"384 195 LINE",
"417 426 LINE",
"388 426 LINE",
"379 362 OFFCURVE",
"344 325 OFFCURVE",
"302 325 CURVE SMOOTH",
"213 325 LINE",
"245 555 LINE SMOOTH",
"246 564 OFFCURVE",
"250 569 OFFCURVE",
"257 569 CURVE SMOOTH",
"360 569 LINE SMOOTH",
"455 569 OFFCURVE",
"491 532 OFFCURVE",
"478 443 CURVE",
"507 443 LINE",
"529 599 LINE",
"524 597 OFFCURVE",
"519 597 OFFCURVE",
"511 597 CURVE SMOOTH",
"102 597 LINE",
"98 567 LINE",
"136 569 LINE SMOOTH",
"147 569 OFFCURVE",
"153 561 OFFCURVE",
"151 548 CURVE SMOOTH",
"81 49 LINE SMOOTH",
"79 34 OFFCURVE",
"72 27 OFFCURVE",
"62 27 CURVE",
"22 30 LINE"
);
},
{
closed = 1;
nodes = (
"490 808 OFFCURVE",
"461 826 OFFCURVE",
"437 826 CURVE SMOOTH",
"422 826 OFFCURVE",
"418 820 OFFCURVE",
"402 805 CURVE SMOOTH",
"299 705 LINE SMOOTH",
"287 693 OFFCURVE",
"271 679 OFFCURVE",
"271 673 CURVE SMOOTH",
"271 669 OFFCURVE",
"274 666 OFFCURVE",
"284 666 CURVE SMOOTH",
"291 666 OFFCURVE",
"301 672 OFFCURVE",
"305 675 CURVE SMOOTH",
"480 788 LINE SMOOTH",
"485 791 OFFCURVE",
"490 795 OFFCURVE",
"490 800 CURVE SMOOTH"
);
}
);
};
components = (
{
name = E;
},
{
name = acute.case;
transform = "{1, 0, 0, 1, 176, 0}";
}
);
layerId = UUID0;
width = 545;
},
{
background = {
paths = (
{
closed = 1;
nodes = (
"18 0 LINE",
"387 0 LINE SMOOTH",
"429 0 OFFCURVE",
"459 -1 OFFCURVE",
"474 -3 CURVE",
"499 179 LINE",
"470 179 LINE",
"457 82 OFFCURVE",
"403 28 OFFCURVE",
"316 28 CURVE SMOOTH",
"181 28 LINE SMOOTH",
"174 28 OFFCURVE",
"172 32 OFFCURVE",
"173 41 CURVE SMOOTH",
"209 297 LINE",
"298 297 LINE SMOOTH",
"337 297 OFFCURVE",
"364 255 OFFCURVE",
"355 195 CURVE",
"384 195 LINE",
"417 426 LINE",
"388 426 LINE",
"379 362 OFFCURVE",
"344 325 OFFCURVE",
"302 325 CURVE SMOOTH",
"213 325 LINE",
"245 555 LINE SMOOTH",
"246 564 OFFCURVE",
"250 569 OFFCURVE",
"257 569 CURVE SMOOTH",
"360 569 LINE SMOOTH",
"455 569 OFFCURVE",
"491 532 OFFCURVE",
"478 443 CURVE",
"507 443 LINE",
"529 599 LINE",
"524 597 OFFCURVE",
"519 597 OFFCURVE",
"511 597 CURVE SMOOTH",
"102 597 LINE",
"98 567 LINE",
"136 569 LINE SMOOTH",
"147 569 OFFCURVE",
"153 561 OFFCURVE",
"151 548 CURVE SMOOTH",
"81 49 LINE SMOOTH",
"79 34 OFFCURVE",
"72 27 OFFCURVE",
"62 27 CURVE",
"22 30 LINE"
);
},
{
closed = 1;
nodes = (
"490 808 OFFCURVE",
"461 826 OFFCURVE",
"437 826 CURVE SMOOTH",
"422 826 OFFCURVE",
"418 820 OFFCURVE",
"402 805 CURVE SMOOTH",
"299 705 LINE SMOOTH",
"287 693 OFFCURVE",
"271 679 OFFCURVE",
"271 673 CURVE SMOOTH",
"271 669 OFFCURVE",
"274 666 OFFCURVE",
"284 666 CURVE SMOOTH",
"291 666 OFFCURVE",
"301 672 OFFCURVE",
"305 675 CURVE SMOOTH",
"480 788 LINE SMOOTH",
"485 791 OFFCURVE",
"490 795 OFFCURVE",
"490 800 CURVE SMOOTH"
);
}
);
};
components = (
{
name = E;
},
{
name = acute.case;
transform = "{1, 0, 0, 1, 186, 0}";
}
);
layerId = "E888B586-AF79-49A4-B375-A6F02287AAF4";
width = 573;
}
);
rightKerningGroup = E;
unicode = 00C9;
},
{
color = 4;
glyphname = Ecircumflex;
layers = (
{
background = {
paths = (
{
closed = 1;
nodes = (
"18 0 LINE",
"387 0 LINE SMOOTH",
"429 0 OFFCURVE",
"459 -1 OFFCURVE",
"474 -3 CURVE",
"499 179 LINE",
"470 179 LINE",
"457 82 OFFCURVE",
"403 28 OFFCURVE",
"316 28 CURVE SMOOTH",
"181 28 LINE SMOOTH",
"174 28 OFFCURVE",
"172 32 OFFCURVE",
"173 41 CURVE SMOOTH",
"209 297 LINE",
"298 297 LINE SMOOTH",
"337 297 OFFCURVE",
"364 255 OFFCURVE",
"355 195 CURVE",
"384 195 LINE",
"417 426 LINE",
"388 426 LINE",
"379 362 OFFCURVE",
"344 325 OFFCURVE",
"302 325 CURVE SMOOTH",
"213 325 LINE",
"245 555 LINE SMOOTH",
"246 564 OFFCURVE",
"250 569 OFFCURVE",
"257 569 CURVE SMOOTH",
"360 569 LINE SMOOTH",
"455 569 OFFCURVE",
"491 532 OFFCURVE",
"478 443 CURVE",
"507 443 LINE",
"529 599 LINE",
"524 597 OFFCURVE",
"519 597 OFFCURVE",
"511 597 CURVE SMOOTH",
"102 597 LINE",
"98 567 LINE",
"136 569 LINE SMOOTH",
"147 569 OFFCURVE",
"153 561 OFFCURVE",
"151 548 CURVE SMOOTH",
"81 49 LINE SMOOTH",
"79 34 OFFCURVE",
"72 27 OFFCURVE",
"62 27 CURVE",
"22 30 LINE"
);
},
{
closed = 1;
nodes = (
"185 671 OFFCURVE",
"186 666 OFFCURVE",
"195 666 CURVE SMOOTH",
"203 666 OFFCURVE",
"216 673 OFFCURVE",
"224 678 CURVE SMOOTH",
"349 752 LINE",
"453 678 LINE SMOOTH",
"459 673 OFFCURVE",
"472 666 OFFCURVE",
"480 666 CURVE SMOOTH",
"489 666 OFFCURVE",
"491 671 OFFCURVE",
"491 674 CURVE SMOOTH",
"491 682 OFFCURVE",
"459 706 OFFCURVE",
"424 749 CURVE SMOOTH",
"385 797 LINE SMOOTH",
"372 812 OFFCURVE",
"363 822 OFFCURVE",
"360 822 CURVE SMOOTH",
"356 822 OFFCURVE",
"343 812 OFFCURVE",
"326 797 CURVE SMOOTH",
"274 749 LINE SMOOTH",
"227 706 OFFCURVE",
"188 682 OFFCURVE",
"186 674 CURVE SMOOTH"
);
}
);
};
components = (
{
name = E;
},
{
name = circumflex.case;
transform = "{1, 0, 0, 1, 93, 0}";
}
);
layerId = UUID0;
width = 545;
},
{
background = {
paths = (
{
closed = 1;
nodes = (
"18 0 LINE",
"387 0 LINE SMOOTH",
"429 0 OFFCURVE",
"459 -1 OFFCURVE",
"474 -3 CURVE",
"499 179 LINE",
"470 179 LINE",
"457 82 OFFCURVE",
"403 28 OFFCURVE",
"316 28 CURVE SMOOTH",
"181 28 LINE SMOOTH",
"174 28 OFFCURVE",
"172 32 OFFCURVE",
"173 41 CURVE SMOOTH",
"209 297 LINE",
"298 297 LINE SMOOTH",
"337 297 OFFCURVE",
"364 255 OFFCURVE",
"355 195 CURVE",
"384 195 LINE",
"417 426 LINE",
"388 426 LINE",
"379 362 OFFCURVE",
"344 325 OFFCURVE",
"302 325 CURVE SMOOTH",
"213 325 LINE",
"245 555 LINE SMOOTH",
"246 564 OFFCURVE",
"250 569 OFFCURVE",
"257 569 CURVE SMOOTH",
"360 569 LINE SMOOTH",
"455 569 OFFCURVE",
"491 532 OFFCURVE",
"478 443 CURVE",
"507 443 LINE",
"529 599 LINE",
"524 597 OFFCURVE",
"519 597 OFFCURVE",
"511 597 CURVE SMOOTH",
"102 597 LINE",
"98 567 LINE",
"136 569 LINE SMOOTH",
"147 569 OFFCURVE",
"153 561 OFFCURVE",
"151 548 CURVE SMOOTH",
"81 49 LINE SMOOTH",
"79 34 OFFCURVE",
"72 27 OFFCURVE",
"62 27 CURVE",
"22 30 LINE"
);
},
{
closed = 1;
nodes = (
"185 671 OFFCURVE",
"186 666 OFFCURVE",
"195 666 CURVE SMOOTH",
"203 666 OFFCURVE",
"216 673 OFFCURVE",
"224 678 CURVE SMOOTH",
"349 752 LINE",
"453 678 LINE SMOOTH",
"459 673 OFFCURVE",
"472 666 OFFCURVE",
"480 666 CURVE SMOOTH",
"489 666 OFFCURVE",
"491 671 OFFCURVE",
"491 674 CURVE SMOOTH",
"491 682 OFFCURVE",
"459 706 OFFCURVE",
"424 749 CURVE SMOOTH",
"385 797 LINE SMOOTH",
"372 812 OFFCURVE",
"363 822 OFFCURVE",
"360 822 CURVE SMOOTH",
"356 822 OFFCURVE",
"343 812 OFFCURVE",
"326 797 CURVE SMOOTH",
"274 749 LINE SMOOTH",
"227 706 OFFCURVE",
"188 682 OFFCURVE",
"186 674 CURVE SMOOTH"
);
}
);
};
components = (
{
name = E;
},
{
name = circumflex.case;
transform = "{1, 0, 0, 1, 103, 0}";
}
);
layerId = "E888B586-AF79-49A4-B375-A6F02287AAF4";
width = 573;
}
);
rightKerningGroup = E;
unicode = 00CA;
},
{
color = 4;
glyphname = Edieresis;
layers = (
{
background = {
paths = (
{
closed = 1;
nodes = (
"18 0 LINE",
"387 0 LINE SMOOTH",
"429 0 OFFCURVE",
"458 -1 OFFCURVE",
"474 -3 CURVE",
"499 179 LINE",
"470 179 LINE",
"457 82 OFFCURVE",
"403 28 OFFCURVE",
"316 28 CURVE SMOOTH",
"181 28 LINE SMOOTH",
"174 28 OFFCURVE",
"172 32 OFFCURVE",
"173 41 CURVE SMOOTH",
"209 297 LINE",
"298 297 LINE SMOOTH",
"337 297 OFFCURVE",
"364 255 OFFCURVE",
"355 195 CURVE",
"384 195 LINE",
"417 426 LINE",
"388 426 LINE",
"379 362 OFFCURVE",
"344 325 OFFCURVE",
"302 325 CURVE SMOOTH",
"213 325 LINE",
"245 555 LINE SMOOTH",
"246 564 OFFCURVE",
"250 569 OFFCURVE",
"257 569 CURVE SMOOTH",
"360 569 LINE SMOOTH",
"455 569 OFFCURVE",
"491 532 OFFCURVE",
"478 443 CURVE",
"507 443 LINE",
"529 599 LINE",
"524 597 OFFCURVE",
"518 597 OFFCURVE",
"511 597 CURVE SMOOTH",
"102 597 LINE",
"98 567 LINE",
"136 569 LINE SMOOTH",
"147 569 OFFCURVE",
"153 561 OFFCURVE",
"151 548 CURVE SMOOTH",
"81 49 LINE SMOOTH",
"79 34 OFFCURVE",
"72 27 OFFCURVE",
"62 27 CURVE",
"22 30 LINE"
);
},
{
closed = 1;
nodes = (
"385 693 OFFCURVE",
"404 676 OFFCURVE",
"432 676 CURVE SMOOTH",
"466 676 OFFCURVE",
"493 698 OFFCURVE",
"493 729 CURVE SMOOTH",
"493 754 OFFCURVE",
"472 773 OFFCURVE",
"446 773 CURVE SMOOTH",
"412 773 OFFCURVE",
"385 749 OFFCURVE",
"385 718 CURVE SMOOTH"
);
},
{
closed = 1;
nodes = (
"196 693 OFFCURVE",
"216 676 OFFCURVE",
"244 676 CURVE SMOOTH",
"278 676 OFFCURVE",
"304 698 OFFCURVE",
"304 729 CURVE SMOOTH",
"304 754 OFFCURVE",
"284 773 OFFCURVE",
"258 773 CURVE SMOOTH",
"224 773 OFFCURVE",
"196 749 OFFCURVE",
"196 718 CURVE SMOOTH"
);
}
);
};
components = (
{
name = E;
},
{
name = dieresis.case;
transform = "{1, 0, 0, 1, 136, 0}";
}
);
layerId = UUID0;
width = 545;
},
{
background = {
paths = (
{
closed = 1;
nodes = (
"18 0 LINE",
"387 0 LINE SMOOTH",
"429 0 OFFCURVE",
"458 -1 OFFCURVE",
"474 -3 CURVE",
"499 179 LINE",
"470 179 LINE",
"457 82 OFFCURVE",
"403 28 OFFCURVE",
"316 28 CURVE SMOOTH",
"181 28 LINE SMOOTH",
"174 28 OFFCURVE",
"172 32 OFFCURVE",
"173 41 CURVE SMOOTH",
"209 297 LINE",
"298 297 LINE SMOOTH",
"337 297 OFFCURVE",
"364 255 OFFCURVE",
"355 195 CURVE",
"384 195 LINE",
"417 426 LINE",
"388 426 LINE",
"379 362 OFFCURVE",
"344 325 OFFCURVE",
"302 325 CURVE SMOOTH",
"213 325 LINE",
"245 555 LINE SMOOTH",
"246 564 OFFCURVE",
"250 569 OFFCURVE",
"257 569 CURVE SMOOTH",
"360 569 LINE SMOOTH",
"455 569 OFFCURVE",
"491 532 OFFCURVE",
"478 443 CURVE",
"507 443 LINE",
"529 599 LINE",
"524 597 OFFCURVE",
"518 597 OFFCURVE",
"511 597 CURVE SMOOTH",
"102 597 LINE",
"98 567 LINE",
"136 569 LINE SMOOTH",
"147 569 OFFCURVE",
"153 561 OFFCURVE",
"151 548 CURVE SMOOTH",
"81 49 LINE SMOOTH",
"79 34 OFFCURVE",
"72 27 OFFCURVE",
"62 27 CURVE",
"22 30 LINE"
);
},
{
closed = 1;
nodes = (
"385 693 OFFCURVE",
"404 676 OFFCURVE",
"432 676 CURVE SMOOTH",
"466 676 OFFCURVE",
"493 698 OFFCURVE",
"493 729 CURVE SMOOTH",
"493 754 OFFCURVE",
"472 773 OFFCURVE",
"446 773 CURVE SMOOTH",
"412 773 OFFCURVE",
"385 749 OFFCURVE",
"385 718 CURVE SMOOTH"
);
},
{
closed = 1;
nodes = (
"196 693 OFFCURVE",
"216 676 OFFCURVE",
"244 676 CURVE SMOOTH",
"278 676 OFFCURVE",
"304 698 OFFCURVE",
"304 729 CURVE SMOOTH",
"304 754 OFFCURVE",
"284 773 OFFCURVE",
"258 773 CURVE SMOOTH",
"224 773 OFFCURVE",
"196 749 OFFCURVE",
"196 718 CURVE SMOOTH"
);
}
);
};
components = (
{
name = E;
},
{
name = dieresis.case;
transform = "{1, 0, 0, 1, 146, 0}";
}
);
layerId = "E888B586-AF79-49A4-B375-A6F02287AAF4";
width = 573;
}
);
rightKerningGroup = E;
unicode = 00CB;
},
{
color = 4;
glyphname = Egrave;
layers = (
{
background = {
paths = (
{
closed = 1;
nodes = (
"18 0 LINE",
"387 0 LINE SMOOTH",
"429 0 OFFCURVE",
"459 -1 OFFCURVE",
"474 -3 CURVE",
"499 179 LINE",
"470 179 LINE",
"457 82 OFFCURVE",
"403 28 OFFCURVE",
"316 28 CURVE SMOOTH",
"181 28 LINE SMOOTH",
"174 28 OFFCURVE",
"172 32 OFFCURVE",
"173 41 CURVE SMOOTH",
"209 297 LINE",
"298 297 LINE SMOOTH",
"337 297 OFFCURVE",
"364 255 OFFCURVE",
"355 195 CURVE",
"384 195 LINE",
"417 426 LINE",
"388 426 LINE",
"379 362 OFFCURVE",
"344 325 OFFCURVE",
"302 325 CURVE SMOOTH",
"213 325 LINE",
"245 555 LINE SMOOTH",
"246 564 OFFCURVE",
"250 569 OFFCURVE",
"257 569 CURVE SMOOTH",
"360 569 LINE SMOOTH",
"455 569 OFFCURVE",
"491 532 OFFCURVE",
"478 443 CURVE",
"507 443 LINE",
"529 599 LINE",
"524 597 OFFCURVE",
"519 597 OFFCURVE",
"511 597 CURVE SMOOTH",
"102 597 LINE",
"98 567 LINE",
"136 569 LINE SMOOTH",
"147 569 OFFCURVE",
"153 561 OFFCURVE",
"151 548 CURVE SMOOTH",
"81 49 LINE SMOOTH",
"79 34 OFFCURVE",
"72 27 OFFCURVE",
"62 27 CURVE",
"22 30 LINE"
);
},
{
closed = 1;
nodes = (
"222 794 OFFCURVE",
"226 791 OFFCURVE",
"229 788 CURVE SMOOTH",
"373 675 LINE SMOOTH",
"376 673 OFFCURVE",
"384 666 OFFCURVE",
"392 666 CURVE SMOOTH",
"401 666 OFFCURVE",
"407 669 OFFCURVE",
"407 674 CURVE SMOOTH",
"407 677 OFFCURVE",
"402 684 OFFCURVE",
"397 691 CURVE SMOOTH",
"314 801 LINE SMOOTH",
"302 817 OFFCURVE",
"293 826 OFFCURVE",
"282 826 CURVE SMOOTH",
"258 826 OFFCURVE",
"222 808 OFFCURVE",
"222 799 CURVE SMOOTH"
);
}
);
};
components = (
{
name = E;
},
{
name = grave.case;
transform = "{1, 0, 0, 1, 108, 0}";
}
);
layerId = UUID0;
width = 545;
},
{
background = {
paths = (
{
closed = 1;
nodes = (
"18 0 LINE",
"387 0 LINE SMOOTH",
"429 0 OFFCURVE",
"459 -1 OFFCURVE",
"474 -3 CURVE",
"499 179 LINE",
"470 179 LINE",
"457 82 OFFCURVE",
"403 28 OFFCURVE",
"316 28 CURVE SMOOTH",
"181 28 LINE SMOOTH",
"174 28 OFFCURVE",
"172 32 OFFCURVE",
"173 41 CURVE SMOOTH",
"209 297 LINE",
"298 297 LINE SMOOTH",
"337 297 OFFCURVE",
"364 255 OFFCURVE",
"355 195 CURVE",
"384 195 LINE",
"417 426 LINE",
"388 426 LINE",
"379 362 OFFCURVE",
"344 325 OFFCURVE",
"302 325 CURVE SMOOTH",
"213 325 LINE",
"245 555 LINE SMOOTH",
"246 564 OFFCURVE",
"250 569 OFFCURVE",
"257 569 CURVE SMOOTH",
"360 569 LINE SMOOTH",
"455 569 OFFCURVE",
"491 532 OFFCURVE",
"478 443 CURVE",
"507 443 LINE",
"529 599 LINE",
"524 597 OFFCURVE",
"519 597 OFFCURVE",
"511 597 CURVE SMOOTH",
"102 597 LINE",
"98 567 LINE",
"136 569 LINE SMOOTH",
"147 569 OFFCURVE",
"153 561 OFFCURVE",
"151 548 CURVE SMOOTH",
"81 49 LINE SMOOTH",
"79 34 OFFCURVE",
"72 27 OFFCURVE",
"62 27 CURVE",
"22 30 LINE"
);
},
{
closed = 1;
nodes = (
"222 794 OFFCURVE",
"226 791 OFFCURVE",
"229 788 CURVE SMOOTH",
"373 675 LINE SMOOTH",
"376 673 OFFCURVE",
"384 666 OFFCURVE",
"392 666 CURVE SMOOTH",
"401 666 OFFCURVE",
"407 669 OFFCURVE",
"407 674 CURVE SMOOTH",
"407 677 OFFCURVE",
"402 684 OFFCURVE",
"397 691 CURVE SMOOTH",
"314 801 LINE SMOOTH",
"302 817 OFFCURVE",
"293 826 OFFCURVE",
"282 826 CURVE SMOOTH",
"258 826 OFFCURVE",
"222 808 OFFCURVE",
"222 799 CURVE SMOOTH"
);
}
);
};
components = (
{
name = E;
},
{
name = grave.case;
transform = "{1, 0, 0, 1, 118, 0}";
}
);
layerId = "E888B586-AF79-49A4-B375-A6F02287AAF4";
width = 573;
}
);
rightKerningGroup = E;
unicode = 00C8;
},
{
color = 4;
glyphname = F;
layers = (
{
layerId = UUID0;
paths = (
{
closed = 1;
nodes = (
"533 597 OFFCURVE",
"528 597 OFFCURVE",
"522 597 CURVE SMOOTH",
"102 597 LINE",
"98 567 LINE",
"139 569 LINE",
"148 569 OFFCURVE",
"153 562 OFFCURVE",
"151 548 CURVE SMOOTH",
"81 49 LINE SMOOTH",
"79 34 OFFCURVE",
"72 27 OFFCURVE",
"62 27 CURVE",
"22 30 LINE",
"18 0 LINE",
"235 0 LINE",
"239 30 LINE",
"187 27 LINE SMOOTH",
"178 27 OFFCURVE",
"171 36 OFFCURVE",
"173 48 CURVE SMOOTH",
"207 287 LINE",
"277 287 LINE SMOOTH",
"322 287 OFFCURVE",
"347 248 OFFCURVE",
"338 187 CURVE",
"367 187 LINE",
"400 417 LINE",
"371 417 LINE",
"362 353 OFFCURVE",
"326 315 OFFCURVE",
"281 315 CURVE SMOOTH",
"210 315 LINE",
"244 556 LINE SMOOTH",
"245 565 OFFCURVE",
"250 569 OFFCURVE",
"256 569 CURVE SMOOTH",
"369 569 LINE SMOOTH",
"464 569 OFFCURVE",
"500 531 OFFCURVE",
"487 443 CURVE",
"516 443 LINE",
"538 599 LINE"
);
}
);
width = 513;
},
{
layerId = "E888B586-AF79-49A4-B375-A6F02287AAF4";
paths = (
{
closed = 1;
nodes = (
"560 597 OFFCURVE",
"555 597 OFFCURVE",
"548 597 CURVE SMOOTH",
"89 597 LINE",
"83 557 LINE",
"120 559 LINE",
"131 559 OFFCURVE",
"136 552 OFFCURVE",
"134 538 CURVE SMOOTH",
"66 59 LINE SMOOTH",
"64 44 OFFCURVE",
"57 37 OFFCURVE",
"45 37 CURVE",
"11 40 LINE",
"5 0 LINE",
"282 0 LINE",
"288 40 LINE",
"235 37 LINE",
"224 37 OFFCURVE",
"217 46 OFFCURVE",
"219 58 CURVE SMOOTH",
"250 277 LINE",
"315 277 LINE SMOOTH",
"362 277 OFFCURVE",
"388 238 OFFCURVE",
"380 177 CURVE",
"417 177 LINE",
"451 417 LINE",
"414 417 LINE",
"405 353 OFFCURVE",
"367 315 OFFCURVE",
"320 315 CURVE SMOOTH",
"255 315 LINE",
"288 546 LINE SMOOTH",
"289 555 OFFCURVE",
"294 559 OFFCURVE",
"302 559 CURVE SMOOTH",
"379 559 LINE SMOOTH",
"478 559 OFFCURVE",
"518 524 OFFCURVE",
"504 443 CURVE",
"541 443 LINE",
"563 598 LINE"
);
}
);
width = 529;
}
);
leftMetricsKey = "=H";
unicode = 0046;
},
{
color = 4;
glyphname = G;
layers = (
{
anchors = (
{
name = bottom;
position = "{283, 0}";
},
{
name = top;
position = "{353, 598}";
}
);
layerId = UUID0;
paths = (
{
closed = 1;
nodes = (
"175 607 OFFCURVE",
"49 476 OFFCURVE",
"49 239 CURVE SMOOTH",
"49 74 OFFCURVE",
"141 -10 OFFCURVE",
"298 -10 CURVE",
"426 -10 OFFCURVE",
"471 36 OFFCURVE",
"509 36 CURVE SMOOTH",
"513 36 OFFCURVE",
"517 36 OFFCURVE",
"523 35 CURVE",
"550 224 LINE SMOOTH",
"551 235 OFFCURVE",
"559 245 OFFCURVE",
"569 245 CURVE SMOOTH",
"611 243 LINE",
"615 272 LINE",
"389 272 LINE",
"385 243 LINE",
"443 245 LINE SMOOTH",
"455 245 OFFCURVE",
"459 238 OFFCURVE",
"457 223 CURVE SMOOTH",
"434 63 LINE",
"395 27 OFFCURVE",
"362 17 OFFCURVE",
"306 17 CURVE SMOOTH",
"207 17 OFFCURVE",
"149 81 OFFCURVE",
"149 224 CURVE SMOOTH",
"149 460 OFFCURVE",
"254 582 OFFCURVE",
"381 582 CURVE SMOOTH",
"468 582 OFFCURVE",
"530 547 OFFCURVE",
"530 467 CURVE SMOOTH",
"530 443 OFFCURVE",
"527 438 OFFCURVE",
"525 433 CURVE",
"567 433 LINE",
"566 468 OFFCURVE",
"578 540 OFFCURVE",
"585 564 CURVE",
"537 564 OFFCURVE",
"515 607 OFFCURVE",
"389 607 CURVE SMOOTH"
);
}
);
width = 626;
},
{
anchors = (
{
name = bottom;
position = "{305, 0}";
},
{
name = top;
position = "{385, 598}";
}
);
layerId = "E888B586-AF79-49A4-B375-A6F02287AAF4";
paths = (
{
closed = 1;
nodes = (
"172 607 OFFCURVE",
"34 478 OFFCURVE",
"34 245 CURVE SMOOTH",
"34 75 OFFCURVE",
"137 -10 OFFCURVE",
"304 -10 CURVE SMOOTH",
"432 -10 OFFCURVE",
"488 37 OFFCURVE",
"541 37 CURVE SMOOTH",
"549 37 OFFCURVE",
"556 36 OFFCURVE",
"561 35 CURVE",
"586 214 LINE",
"588 225 OFFCURVE",
"597 236 OFFCURVE",
"608 235 CURVE SMOOTH",
"638 233 LINE",
"643 272 LINE",
"363 272 LINE",
"358 233 LINE",
"417 235 LINE SMOOTH",
"430 235 OFFCURVE",
"435 228 OFFCURVE",
"433 213 CURVE SMOOTH",
"413 69 LINE",
"382 37 OFFCURVE",
"352 27 OFFCURVE",
"319 27 CURVE SMOOTH",
"240 27 OFFCURVE",
"197 86 OFFCURVE",
"197 211 CURVE SMOOTH",
"197 425 OFFCURVE",
"272 572 OFFCURVE",
"410 572 CURVE SMOOTH",
"510 572 OFFCURVE",
"557 524 OFFCURVE",
"549 443 CURVE SMOOTH",
"548 435 OFFCURVE",
"548 431 OFFCURVE",
"545 423 CURVE",
"599 423 LINE",
"603 482 OFFCURVE",
"606 510 OFFCURVE",
"619 564 CURVE",
"573 564 OFFCURVE",
"505 607 OFFCURVE",
"399 607 CURVE SMOOTH"
);
}
);
width = 653;
}
);
leftKerningGroup = O;
leftMetricsKey = "=O";
unicode = 0047;
},
{
color = 4;
glyphname = H;
layers = (
{
anchors = (
{
name = center;
position = "{348, 299}";
},
{
name = top;
position = "{389, 598}";
}
);
layerId = UUID0;
paths = (
{
closed = 1;
nodes = (
"465 597 LINE",
"461 567 LINE",
"510 569 LINE SMOOTH",
"523 569 OFFCURVE",
"525 559 OFFCURVE",
"524 548 CURVE SMOOTH",
"492 322 LINE",
"211 322 LINE",
"243 548 LINE SMOOTH",
"245 561 OFFCURVE",
"253 569 OFFCURVE",
"264 569 CURVE SMOOTH",
"313 567 LINE",
"317 597 LINE",
"102 597 LINE",
"98 567 LINE",
"137 569 LINE SMOOTH",
"150 570 OFFCURVE",
"153 559 OFFCURVE",
"151 548 CURVE SMOOTH",
"81 49 LINE SMOOTH",
"79 34 OFFCURVE",
"72 27 OFFCURVE",
"61 27 CURVE SMOOTH",
"22 29 LINE",
"18 0 LINE",
"233 0 LINE",
"237 29 LINE",
"188 27 LINE",
"177 27 OFFCURVE",
"171 34 OFFCURVE",
"173 49 CURVE SMOOTH",
"207 294 LINE",
"488 294 LINE",
"454 49 LINE SMOOTH",
"452 34 OFFCURVE",
"446 27 OFFCURVE",
"434 27 CURVE SMOOTH",
"385 29 LINE",
"381 0 LINE",
"596 0 LINE",
"600 29 LINE",
"560 27 LINE",
"549 27 OFFCURVE",
"545 34 OFFCURVE",
"547 49 CURVE SMOOTH",
"617 548 LINE SMOOTH",
"619 561 OFFCURVE",
"625 569 OFFCURVE",
"636 569 CURVE SMOOTH",
"676 567 LINE",
"680 597 LINE"
);
}
);
width = 674;
},
{
anchors = (
{
name = center;
position = "{356, 299}";
},
{
name = top;
position = "{397, 598}";
}
);
layerId = "E888B586-AF79-49A4-B375-A6F02287AAF4";
paths = (
{
closed = 1;
nodes = (
"441 597 LINE",
"435 557 LINE",
"485 559 LINE SMOOTH",
"500 560 OFFCURVE",
"502 549 OFFCURVE",
"501 538 CURVE",
"470 322 LINE",
"256 322 LINE",
"287 538 LINE",
"288 550 OFFCURVE",
"297 560 OFFCURVE",
"310 559 CURVE",
"358 557 LINE",
"364 597 LINE",
"89 597 LINE",
"83 557 LINE",
"118 559 LINE SMOOTH",
"133 560 OFFCURVE",
"135 549 OFFCURVE",
"134 538 CURVE",
"66 59 LINE SMOOTH",
"64 44 OFFCURVE",
"57 36 OFFCURVE",
"44 37 CURVE SMOOTH",
"10 39 LINE",
"5 0 LINE",
"280 0 LINE",
"285 39 LINE",
"236 37 LINE",
"223 37 OFFCURVE",
"217 44 OFFCURVE",
"219 59 CURVE SMOOTH",
"251 284 LINE",
"465 284 LINE",
"433 59 LINE SMOOTH",
"431 44 OFFCURVE",
"424 37 OFFCURVE",
"411 37 CURVE",
"362 39 LINE",
"357 0 LINE",
"631 0 LINE",
"636 39 LINE",
"602 37 LINE SMOOTH",
"589 36 OFFCURVE",
"584 44 OFFCURVE",
"586 59 CURVE SMOOTH",
"654 538 LINE",
"655 550 OFFCURVE",
"663 560 OFFCURVE",
"676 559 CURVE SMOOTH",
"709 557 LINE",
"715 597 LINE"
);
}
);
width = 696;
}
);
unicode = 0048;
},
{
color = 4;
glyphname = I;
layers = (
{
anchors = (
{
name = ogonek;
position = "{190, 14}";
},
{
name = top;
position = "{203, 598}";
}
);
layerId = UUID0;
paths = (
{
closed = 1;
nodes = (
"102 597 LINE",
"98 567 LINE",
"137 569 LINE SMOOTH",
"148 569 OFFCURVE",
"153 560 OFFCURVE",
"151 548 CURVE SMOOTH",
"81 49 LINE SMOOTH",
"79 34 OFFCURVE",
"72 27 OFFCURVE",
"61 27 CURVE SMOOTH",
"22 29 LINE",
"18 0 LINE",
"223 0 LINE",
"227 29 LINE",
"188 27 LINE",
"177 27 OFFCURVE",
"171 34 OFFCURVE",
"173 49 CURVE SMOOTH",
"243 548 LINE SMOOTH",
"245 561 OFFCURVE",
"253 569 OFFCURVE",
"264 569 CURVE SMOOTH",
"303 567 LINE",
"307 597 LINE"
);
}
);
width = 301;
},
{
anchors = (
{
name = ogonek;
position = "{229, 14}";
},
{
name = top;
position = "{211, 598}";
}
);
layerId = "E888B586-AF79-49A4-B375-A6F02287AAF4";
paths = (
{
closed = 1;
nodes = (
"89 597 LINE",
"83 557 LINE",
"118 559 LINE SMOOTH",
"131 560 OFFCURVE",
"135 549 OFFCURVE",
"134 538 CURVE",
"66 59 LINE SMOOTH",
"64 44 OFFCURVE",
"57 36 OFFCURVE",
"44 37 CURVE SMOOTH",
"10 39 LINE",
"5 0 LINE",
"265 0 LINE",
"270 39 LINE",
"236 37 LINE SMOOTH",
"223 36 OFFCURVE",
"217 44 OFFCURVE",
"219 59 CURVE SMOOTH",
"287 538 LINE",
"288 550 OFFCURVE",
"298 560 OFFCURVE",
"310 559 CURVE SMOOTH",
"343 557 LINE",
"349 597 LINE"
);
}
);
width = 330;
}
);
leftMetricsKey = "=H";
rightMetricsKey = "=H";
unicode = 0049;
},
{
color = 4;
glyphname = IJ;
layers = (
{
background = {
paths = (
{
closed = 1;
nodes = (
"291 -4 LINE",
"300 4 OFFCURVE",
"311 5 OFFCURVE",
"320 5 CURVE SMOOTH",
"328 5 LINE SMOOTH",
"356 5 OFFCURVE",
"390 -10 OFFCURVE",
"444 -10 CURVE SMOOTH",
"550 -10 OFFCURVE",
"614 51 OFFCURVE",
"632 179 CURVE SMOOTH",
"684 549 LINE SMOOTH",
"686 561 OFFCURVE",
"694 569 OFFCURVE",
"705 569 CURVE SMOOTH",
"743 567 LINE",
"747 597 LINE",
"514 597 LINE",
"510 567 LINE",
"578 569 LINE SMOOTH",
"588 569 OFFCURVE",
"594 561 OFFCURVE",
"592 548 CURVE SMOOTH",
"540 179 LINE SMOOTH",
"523 59 OFFCURVE",
"492 16 OFFCURVE",
"431 16 CURVE SMOOTH",
"352 16 OFFCURVE",
"346 113 OFFCURVE",
"354 172 CURVE",
"316 172 LINE"
);
},
{
closed = 1;
nodes = (
"18 0 LINE",
"223 0 LINE",
"227 29 LINE",
"215 29 OFFCURVE",
"201 28 OFFCURVE",
"188 27 CURVE SMOOTH",
"177 27 OFFCURVE",
"171 34 OFFCURVE",
"173 49 CURVE SMOOTH",
"243 548 LINE SMOOTH",
"245 561 OFFCURVE",
"254 569 OFFCURVE",
"264 569 CURVE SMOOTH",
"303 567 LINE",
"307 597 LINE",
"102 597 LINE",
"98 567 LINE",
"137 569 LINE SMOOTH",
"148 569 OFFCURVE",
"153 560 OFFCURVE",
"151 548 CURVE SMOOTH",
"81 49 LINE SMOOTH",
"79 34 OFFCURVE",
"72 27 OFFCURVE",
"61 27 CURVE SMOOTH",
"22 29 LINE"
);
}
);
};
components = (
{
name = I;
},
{
name = J;
transform = "{1, 0, 0, 1, 301, 0}";
}
);
layerId = UUID0;
width = 738;
},
{
background = {
paths = (
{
closed = 1;
nodes = (
"291 -4 LINE",
"300 4 OFFCURVE",
"311 5 OFFCURVE",
"320 5 CURVE SMOOTH",
"328 5 LINE SMOOTH",
"356 5 OFFCURVE",
"390 -10 OFFCURVE",
"444 -10 CURVE SMOOTH",
"550 -10 OFFCURVE",
"614 51 OFFCURVE",
"632 179 CURVE SMOOTH",
"684 549 LINE SMOOTH",
"686 561 OFFCURVE",
"694 569 OFFCURVE",
"705 569 CURVE SMOOTH",
"743 567 LINE",
"747 597 LINE",
"514 597 LINE",
"510 567 LINE",
"578 569 LINE SMOOTH",
"588 569 OFFCURVE",
"594 561 OFFCURVE",
"592 548 CURVE SMOOTH",
"540 179 LINE SMOOTH",
"523 59 OFFCURVE",
"492 16 OFFCURVE",
"431 16 CURVE SMOOTH",
"352 16 OFFCURVE",
"346 113 OFFCURVE",
"354 172 CURVE",
"316 172 LINE"
);
},
{
closed = 1;
nodes = (
"18 0 LINE",
"223 0 LINE",
"227 29 LINE",
"215 29 OFFCURVE",
"201 28 OFFCURVE",
"188 27 CURVE SMOOTH",
"177 27 OFFCURVE",
"171 34 OFFCURVE",
"173 49 CURVE SMOOTH",
"243 548 LINE SMOOTH",
"245 561 OFFCURVE",
"254 569 OFFCURVE",
"264 569 CURVE SMOOTH",
"303 567 LINE",
"307 597 LINE",
"102 597 LINE",
"98 567 LINE",
"137 569 LINE SMOOTH",
"148 569 OFFCURVE",
"153 560 OFFCURVE",
"151 548 CURVE SMOOTH",
"81 49 LINE SMOOTH",
"79 34 OFFCURVE",
"72 27 OFFCURVE",
"61 27 CURVE SMOOTH",
"22 29 LINE"
);
}
);
};
components = (
{
name = I;
},
{
name = J;
transform = "{1, 0, 0, 1, 330, 0}";
}
);
layerId = "E888B586-AF79-49A4-B375-A6F02287AAF4";
width = 791;
}
);
unicode = 0132;
},
{
color = 4;
glyphname = Iacute;
layers = (
{
background = {
paths = (
{
closed = 1;
nodes = (
"18 0 LINE",
"224 0 LINE",
"228 29 LINE",
"215 29 OFFCURVE",
"193 27 OFFCURVE",
"188 27 CURVE SMOOTH",
"177 27 OFFCURVE",
"172 34 OFFCURVE",
"174 49 CURVE SMOOTH",
"244 548 LINE SMOOTH",
"246 561 OFFCURVE",
"254 569 OFFCURVE",
"264 569 CURVE SMOOTH",
"304 567 LINE",
"308 597 LINE",
"102 597 LINE",
"98 567 LINE",
"137 569 LINE SMOOTH",
"149 569 OFFCURVE",
"153 560 OFFCURVE",
"151 548 CURVE SMOOTH",
"81 49 LINE SMOOTH",
"79 34 OFFCURVE",
"73 27 OFFCURVE",
"61 27 CURVE SMOOTH",
"22 29 LINE"
);
},
{
closed = 1;
nodes = (
"368 808 OFFCURVE",
"339 826 OFFCURVE",
"315 826 CURVE SMOOTH",
"300 826 OFFCURVE",
"296 820 OFFCURVE",
"280 805 CURVE SMOOTH",
"179 706 LINE SMOOTH",
"166 694 OFFCURVE",
"149 680 OFFCURVE",
"149 673 CURVE SMOOTH",
"149 669 OFFCURVE",
"152 666 OFFCURVE",
"162 666 CURVE SMOOTH",
"169 666 OFFCURVE",
"179 672 OFFCURVE",
"183 675 CURVE SMOOTH",
"358 788 LINE SMOOTH",
"363 791 OFFCURVE",
"368 795 OFFCURVE",
"368 800 CURVE SMOOTH"
);
}
);
};
components = (
{
name = I;
},
{
name = acute.case;
transform = "{1, 0, 0, 1, 47, 0}";
}
);
layerId = UUID0;
width = 301;
},
{
background = {
paths = (
{
closed = 1;
nodes = (
"18 0 LINE",
"224 0 LINE",
"228 29 LINE",
"215 29 OFFCURVE",
"193 27 OFFCURVE",
"188 27 CURVE SMOOTH",
"177 27 OFFCURVE",
"172 34 OFFCURVE",
"174 49 CURVE SMOOTH",
"244 548 LINE SMOOTH",
"246 561 OFFCURVE",
"254 569 OFFCURVE",
"264 569 CURVE SMOOTH",
"304 567 LINE",
"308 597 LINE",
"102 597 LINE",
"98 567 LINE",
"137 569 LINE SMOOTH",
"149 569 OFFCURVE",
"153 560 OFFCURVE",
"151 548 CURVE SMOOTH",
"81 49 LINE SMOOTH",
"79 34 OFFCURVE",
"73 27 OFFCURVE",
"61 27 CURVE SMOOTH",
"22 29 LINE"
);
},
{
closed = 1;
nodes = (
"368 808 OFFCURVE",
"339 826 OFFCURVE",
"315 826 CURVE SMOOTH",
"300 826 OFFCURVE",
"296 820 OFFCURVE",
"280 805 CURVE SMOOTH",
"179 706 LINE SMOOTH",
"166 694 OFFCURVE",
"149 680 OFFCURVE",
"149 673 CURVE SMOOTH",
"149 669 OFFCURVE",
"152 666 OFFCURVE",
"162 666 CURVE SMOOTH",
"169 666 OFFCURVE",
"179 672 OFFCURVE",
"183 675 CURVE SMOOTH",
"358 788 LINE SMOOTH",
"363 791 OFFCURVE",
"368 795 OFFCURVE",
"368 800 CURVE SMOOTH"
);
}
);
};
components = (
{
name = I;
},
{
name = acute.case;
transform = "{1, 0, 0, 1, 55, 0}";
}
);
layerId = "E888B586-AF79-49A4-B375-A6F02287AAF4";
width = 330;
}
);
unicode = 00CD;
},
{
color = 4;
glyphname = Icircumflex;
layers = (
{
background = {
paths = (
{
closed = 1;
nodes = (
"18 0 LINE",
"224 0 LINE",
"228 29 LINE",
"215 29 OFFCURVE",
"201 28 OFFCURVE",
"188 27 CURVE SMOOTH",
"176 27 OFFCURVE",
"172 34 OFFCURVE",
"174 49 CURVE SMOOTH",
"244 548 LINE SMOOTH",
"246 561 OFFCURVE",
"254 569 OFFCURVE",
"264 569 CURVE SMOOTH",
"304 567 LINE",
"308 597 LINE",
"102 597 LINE",
"98 567 LINE",
"137 569 LINE SMOOTH",
"149 569 OFFCURVE",
"153 560 OFFCURVE",
"151 548 CURVE SMOOTH",
"81 49 LINE SMOOTH",
"79 34 OFFCURVE",
"73 27 OFFCURVE",
"61 27 CURVE SMOOTH",
"22 29 LINE"
);
},
{
closed = 1;
nodes = (
"64 670 OFFCURVE",
"65 666 OFFCURVE",
"73 666 CURVE SMOOTH",
"80 666 OFFCURVE",
"93 673 OFFCURVE",
"102 678 CURVE SMOOTH",
"227 752 LINE",
"330 678 LINE SMOOTH",
"337 673 OFFCURVE",
"350 666 OFFCURVE",
"357 666 CURVE SMOOTH",
"366 666 OFFCURVE",
"368 671 OFFCURVE",
"368 674 CURVE SMOOTH",
"368 682 OFFCURVE",
"337 705 OFFCURVE",
"301 749 CURVE SMOOTH",
"262 797 LINE SMOOTH",
"249 812 OFFCURVE",
"240 822 OFFCURVE",
"237 822 CURVE SMOOTH",
"233 822 OFFCURVE",
"220 812 OFFCURVE",
"204 797 CURVE SMOOTH",
"150 749 LINE",
"102 703 OFFCURVE",
"64 681 OFFCURVE",
"64 673 CURVE SMOOTH"
);
}
);
};
components = (
{
name = I;
},
{
name = circumflex.case;
transform = "{1, 0, 0, 1, -36, 0}";
}
);
layerId = UUID0;
width = 301;
},
{
background = {
paths = (
{
closed = 1;
nodes = (
"18 0 LINE",
"224 0 LINE",
"228 29 LINE",
"215 29 OFFCURVE",
"201 28 OFFCURVE",
"188 27 CURVE SMOOTH",
"176 27 OFFCURVE",
"172 34 OFFCURVE",
"174 49 CURVE SMOOTH",
"244 548 LINE SMOOTH",
"246 561 OFFCURVE",
"254 569 OFFCURVE",
"264 569 CURVE SMOOTH",
"304 567 LINE",
"308 597 LINE",
"102 597 LINE",
"98 567 LINE",
"137 569 LINE SMOOTH",
"149 569 OFFCURVE",
"153 560 OFFCURVE",
"151 548 CURVE SMOOTH",
"81 49 LINE SMOOTH",
"79 34 OFFCURVE",
"73 27 OFFCURVE",
"61 27 CURVE SMOOTH",
"22 29 LINE"
);
},
{
closed = 1;
nodes = (
"64 670 OFFCURVE",
"65 666 OFFCURVE",
"73 666 CURVE SMOOTH",
"80 666 OFFCURVE",
"93 673 OFFCURVE",
"102 678 CURVE SMOOTH",
"227 752 LINE",
"330 678 LINE SMOOTH",
"337 673 OFFCURVE",
"350 666 OFFCURVE",
"357 666 CURVE SMOOTH",
"366 666 OFFCURVE",
"368 671 OFFCURVE",
"368 674 CURVE SMOOTH",
"368 682 OFFCURVE",
"337 705 OFFCURVE",
"301 749 CURVE SMOOTH",
"262 797 LINE SMOOTH",
"249 812 OFFCURVE",
"240 822 OFFCURVE",
"237 822 CURVE SMOOTH",
"233 822 OFFCURVE",
"220 812 OFFCURVE",
"204 797 CURVE SMOOTH",
"150 749 LINE",
"102 703 OFFCURVE",
"64 681 OFFCURVE",
"64 673 CURVE SMOOTH"
);
}
);
};
components = (
{
name = I;
},
{
name = circumflex.case;
transform = "{1, 0, 0, 1, -28, 0}";
}
);
layerId = "E888B586-AF79-49A4-B375-A6F02287AAF4";
width = 330;
}
);
unicode = 00CE;
},
{
color = 4;
glyphname = Idieresis;
layers = (
{
background = {
paths = (
{
closed = 1;
nodes = (
"19 0 LINE",
"225 0 LINE",
"229 29 LINE",
"216 29 OFFCURVE",
"202 28 OFFCURVE",
"189 27 CURVE SMOOTH",
"178 27 OFFCURVE",
"173 34 OFFCURVE",
"175 49 CURVE SMOOTH",
"245 548 LINE SMOOTH",
"247 561 OFFCURVE",
"255 569 OFFCURVE",
"265 569 CURVE SMOOTH",
"305 567 LINE",
"309 597 LINE",
"103 597 LINE",
"99 567 LINE",
"138 569 LINE SMOOTH",
"150 569 OFFCURVE",
"154 560 OFFCURVE",
"152 548 CURVE SMOOTH",
"82 49 LINE SMOOTH",
"80 34 OFFCURVE",
"74 27 OFFCURVE",
"62 27 CURVE SMOOTH",
"23 29 LINE"
);
},
{
closed = 1;
nodes = (
"74 693 OFFCURVE",
"94 676 OFFCURVE",
"122 676 CURVE SMOOTH",
"156 676 OFFCURVE",
"183 698 OFFCURVE",
"183 729 CURVE SMOOTH",
"183 754 OFFCURVE",
"162 773 OFFCURVE",
"136 773 CURVE SMOOTH",
"102 773 OFFCURVE",
"74 749 OFFCURVE",
"74 718 CURVE SMOOTH"
);
},
{
closed = 1;
nodes = (
"263 693 OFFCURVE",
"283 676 OFFCURVE",
"310 676 CURVE SMOOTH",
"344 676 OFFCURVE",
"371 698 OFFCURVE",
"371 729 CURVE SMOOTH",
"371 754 OFFCURVE",
"351 773 OFFCURVE",
"324 773 CURVE SMOOTH",
"291 773 OFFCURVE",
"263 749 OFFCURVE",
"263 718 CURVE SMOOTH"
);
}
);
};
components = (
{
name = I;
},
{
name = dieresis.case;
transform = "{1, 0, 0, 1, 7, 0}";
}
);
layerId = UUID0;
width = 301;
},
{
background = {
paths = (
{
closed = 1;
nodes = (
"19 0 LINE",
"225 0 LINE",
"229 29 LINE",
"216 29 OFFCURVE",
"202 28 OFFCURVE",
"189 27 CURVE SMOOTH",
"178 27 OFFCURVE",
"173 34 OFFCURVE",
"175 49 CURVE SMOOTH",
"245 548 LINE SMOOTH",
"247 561 OFFCURVE",
"255 569 OFFCURVE",
"265 569 CURVE SMOOTH",
"305 567 LINE",
"309 597 LINE",
"103 597 LINE",
"99 567 LINE",
"138 569 LINE SMOOTH",
"150 569 OFFCURVE",
"154 560 OFFCURVE",
"152 548 CURVE SMOOTH",
"82 49 LINE SMOOTH",
"80 34 OFFCURVE",
"74 27 OFFCURVE",
"62 27 CURVE SMOOTH",
"23 29 LINE"
);
},
{
closed = 1;
nodes = (
"74 693 OFFCURVE",
"94 676 OFFCURVE",
"122 676 CURVE SMOOTH",
"156 676 OFFCURVE",
"183 698 OFFCURVE",
"183 729 CURVE SMOOTH",
"183 754 OFFCURVE",
"162 773 OFFCURVE",
"136 773 CURVE SMOOTH",
"102 773 OFFCURVE",
"74 749 OFFCURVE",
"74 718 CURVE SMOOTH"
);
},
{
closed = 1;
nodes = (
"263 693 OFFCURVE",
"283 676 OFFCURVE",
"310 676 CURVE SMOOTH",
"344 676 OFFCURVE",
"371 698 OFFCURVE",
"371 729 CURVE SMOOTH",
"371 754 OFFCURVE",
"351 773 OFFCURVE",
"324 773 CURVE SMOOTH",
"291 773 OFFCURVE",
"263 749 OFFCURVE",
"263 718 CURVE SMOOTH"
);
}
);
};
components = (
{
name = I;
},
{
name = dieresis.case;
transform = "{1, 0, 0, 1, 15, 0}";
}
);
layerId = "E888B586-AF79-49A4-B375-A6F02287AAF4";
width = 330;
}
);
unicode = 00CF;
},
{
color = 4;
glyphname = Igrave;
layers = (
{
background = {
paths = (
{
closed = 1;
nodes = (
"18 0 LINE",
"224 0 LINE",
"228 29 LINE",
"215 29 OFFCURVE",
"201 28 OFFCURVE",
"188 27 CURVE SMOOTH",
"176 27 OFFCURVE",
"172 34 OFFCURVE",
"174 49 CURVE SMOOTH",
"244 548 LINE SMOOTH",
"246 561 OFFCURVE",
"254 569 OFFCURVE",
"264 569 CURVE SMOOTH",
"304 567 LINE",
"308 597 LINE",
"102 597 LINE",
"98 567 LINE",
"137 569 LINE SMOOTH",
"149 569 OFFCURVE",
"153 560 OFFCURVE",
"151 548 CURVE SMOOTH",
"81 49 LINE SMOOTH",
"79 34 OFFCURVE",
"73 27 OFFCURVE",
"61 27 CURVE SMOOTH",
"22 29 LINE"
);
},
{
closed = 1;
nodes = (
"99 794 OFFCURVE",
"103 791 OFFCURVE",
"106 788 CURVE SMOOTH",
"250 675 LINE SMOOTH",
"253 673 OFFCURVE",
"261 666 OFFCURVE",
"269 666 CURVE SMOOTH",
"278 666 OFFCURVE",
"284 669 OFFCURVE",
"284 674 CURVE SMOOTH",
"284 677 OFFCURVE",
"279 684 OFFCURVE",
"274 691 CURVE SMOOTH",
"191 801 LINE SMOOTH",
"179 817 OFFCURVE",
"170 826 OFFCURVE",
"159 826 CURVE SMOOTH",
"135 826 OFFCURVE",
"99 808 OFFCURVE",
"99 799 CURVE SMOOTH"
);
}
);
};
components = (
{
name = I;
},
{
name = grave.case;
transform = "{1, 0, 0, 1, -21, 0}";
}
);
layerId = UUID0;
width = 301;
},
{
background = {
paths = (
{
closed = 1;
nodes = (
"18 0 LINE",
"224 0 LINE",
"228 29 LINE",
"215 29 OFFCURVE",
"201 28 OFFCURVE",
"188 27 CURVE SMOOTH",
"176 27 OFFCURVE",
"172 34 OFFCURVE",
"174 49 CURVE SMOOTH",
"244 548 LINE SMOOTH",
"246 561 OFFCURVE",
"254 569 OFFCURVE",
"264 569 CURVE SMOOTH",
"304 567 LINE",
"308 597 LINE",
"102 597 LINE",
"98 567 LINE",
"137 569 LINE SMOOTH",
"149 569 OFFCURVE",
"153 560 OFFCURVE",
"151 548 CURVE SMOOTH",
"81 49 LINE SMOOTH",
"79 34 OFFCURVE",
"73 27 OFFCURVE",
"61 27 CURVE SMOOTH",
"22 29 LINE"
);
},
{
closed = 1;
nodes = (
"99 794 OFFCURVE",
"103 791 OFFCURVE",
"106 788 CURVE SMOOTH",
"250 675 LINE SMOOTH",
"253 673 OFFCURVE",
"261 666 OFFCURVE",
"269 666 CURVE SMOOTH",
"278 666 OFFCURVE",
"284 669 OFFCURVE",
"284 674 CURVE SMOOTH",
"284 677 OFFCURVE",
"279 684 OFFCURVE",
"274 691 CURVE SMOOTH",
"191 801 LINE SMOOTH",
"179 817 OFFCURVE",
"170 826 OFFCURVE",
"159 826 CURVE SMOOTH",
"135 826 OFFCURVE",
"99 808 OFFCURVE",
"99 799 CURVE SMOOTH"
);
}
);
};
components = (
{
name = I;
},
{
name = grave.case;
transform = "{1, 0, 0, 1, -13, 0}";
}
);
layerId = "E888B586-AF79-49A4-B375-A6F02287AAF4";
width = 330;
}
);
unicode = 00CC;
},
{
color = 4;
glyphname = J;
layers = (
{
anchors = (
{
name = top;
position = "{328, 598}";
}
);
layerId = UUID0;
paths = (
{
closed = 1;
nodes = (
"214 597 LINE",
"210 567 LINE",
"279 569 LINE SMOOTH",
"288 569 OFFCURVE",
"294 561 OFFCURVE",
"292 548 CURVE SMOOTH",
"240 179 LINE SMOOTH",
"223 59 OFFCURVE",
"193 16 OFFCURVE",
"132 16 CURVE SMOOTH",
"53 16 OFFCURVE",
"45 113 OFFCURVE",
"54 172 CURVE",
"17 172 LINE",
"-8 -4 LINE",
"3 3 OFFCURVE",
"15 5 OFFCURVE",
"28 5 CURVE SMOOTH",
"53 5 OFFCURVE",
"89 -10 OFFCURVE",
"144 -10 CURVE SMOOTH",
"250 -10 OFFCURVE",
"315 51 OFFCURVE",
"333 179 CURVE SMOOTH",
"385 549 LINE SMOOTH",
"387 561 OFFCURVE",
"394 569 OFFCURVE",
"406 569 CURVE SMOOTH",
"443 567 LINE",
"447 597 LINE"
);
}
);
width = 437;
},
{
anchors = (
{
name = top;
position = "{337, 598}";
}
);
layerId = "E888B586-AF79-49A4-B375-A6F02287AAF4";
paths = (
{
closed = 1;
nodes = (
"191 597 LINE",
"185 557 LINE",
"255 559 LINE",
"266 560 OFFCURVE",
"272 550 OFFCURVE",
"271 538 CURVE",
"220 179 LINE SMOOTH",
"204 66 OFFCURVE",
"177 26 OFFCURVE",
"123 26 CURVE SMOOTH",
"61 26 OFFCURVE",
"56 117 OFFCURVE",
"64 172 CURVE",
"18 172 LINE",
"-6 -1 LINE",
"2 6 OFFCURVE",
"19 5 OFFCURVE",
"30 5 CURVE SMOOTH",
"57 5 OFFCURVE",
"91 -10 OFFCURVE",
"143 -10 CURVE SMOOTH",
"277 -10 OFFCURVE",
"355 51 OFFCURVE",
"373 179 CURVE SMOOTH",
"424 539 LINE",
"425 550 OFFCURVE",
"434 560 OFFCURVE",
"447 559 CURVE SMOOTH",
"479 557 LINE",
"485 597 LINE"
);
}
);
width = 461;
}
);
unicode = 004A;
},
{
color = 4;
glyphname = K;
layers = (
{
anchors = (
{
name = bottom;
position = "{270, 0}";
},
{
name = top;
position = "{359, 598}";
}
);
layerId = UUID0;
paths = (
{
closed = 1;
nodes = (
"102 597 LINE",
"98 567 LINE",
"137 569 LINE SMOOTH",
"148 569 OFFCURVE",
"153 561 OFFCURVE",
"151 548 CURVE SMOOTH",
"81 49 LINE SMOOTH",
"79 34 OFFCURVE",
"72 27 OFFCURVE",
"61 27 CURVE SMOOTH",
"22 29 LINE",
"18 0 LINE",
"233 0 LINE",
"237 29 LINE",
"188 27 LINE",
"177 27 OFFCURVE",
"171 34 OFFCURVE",
"173 49 CURVE",
"243 547 LINE",
"245 562 OFFCURVE",
"253 569 OFFCURVE",
"264 569 CURVE SMOOTH",
"313 567 LINE",
"317 597 LINE"
);
},
{
closed = 1;
nodes = (
"256 308 LINE",
"401 52 LINE SMOOTH",
"407 41 OFFCURVE",
"405 27 OFFCURVE",
"388 27 CURVE SMOOTH",
"334 30 LINE",
"330 0 LINE",
"562 0 LINE",
"566 30 LINE",
"555 29 OFFCURVE",
"541 27 OFFCURVE",
"532 27 CURVE SMOOTH",
"524 27 OFFCURVE",
"517 32 OFFCURVE",
"512 41 CURVE SMOOTH",
"321 377 LINE"
);
},
{
closed = 1;
nodes = (
"421 597 LINE",
"417 567 LINE",
"459 569 LINE SMOOTH",
"464 569 OFFCURVE",
"466 567 OFFCURVE",
"466 562 CURVE SMOOTH",
"466 558 OFFCURVE",
"463 553 OFFCURVE",
"459 548 CURVE",
"198 273 LINE",
"191 226 LINE",
"499 540 LINE",
"521 562 OFFCURVE",
"537 570 OFFCURVE",
"553 569 CURVE SMOOTH",
"592 567 LINE",
"596 597 LINE"
);
}
);
width = 598;
},
{
anchors = (
{
name = bottom;
position = "{300, 0}";
},
{
name = top;
position = "{389, 598}";
}
);
layerId = "E888B586-AF79-49A4-B375-A6F02287AAF4";
paths = (
{
closed = 1;
nodes = (
"89 597 LINE",
"83 557 LINE",
"118 559 LINE SMOOTH",
"131 560 OFFCURVE",
"135 550 OFFCURVE",
"134 538 CURVE",
"66 59 LINE SMOOTH",
"64 44 OFFCURVE",
"57 36 OFFCURVE",
"44 37 CURVE SMOOTH",
"10 39 LINE",
"5 0 LINE",
"275 0 LINE",
"280 39 LINE",
"236 37 LINE SMOOTH",
"223 36 OFFCURVE",
"217 44 OFFCURVE",
"219 59 CURVE SMOOTH",
"286 537 LINE",
"289 552 OFFCURVE",
"297 559 OFFCURVE",
"310 559 CURVE",
"358 557 LINE",
"364 597 LINE"
);
},
{
closed = 1;
nodes = (
"265 275 LINE",
"373 61 LINE SMOOTH",
"382 42 OFFCURVE",
"371 35 OFFCURVE",
"354 36 CURVE SMOOTH",
"314 39 LINE",
"309 0 LINE",
"610 0 LINE",
"615 39 LINE",
"605 37 OFFCURVE",
"596 36 OFFCURVE",
"586 36 CURVE SMOOTH",
"577 36 OFFCURVE",
"569 41 OFFCURVE",
"564 50 CURVE SMOOTH",
"386 396 LINE"
);
},
{
closed = 1;
nodes = (
"475 597 LINE",
"469 557 LINE",
"504 559 LINE",
"510 559 OFFCURVE",
"512 557 OFFCURVE",
"512 552 CURVE SMOOTH",
"512 549 OFFCURVE",
"510 542 OFFCURVE",
"492 523 CURVE SMOOTH",
"242 270 LINE",
"234 213 LINE",
"553 530 LINE SMOOTH",
"579 556 OFFCURVE",
"596 560 OFFCURVE",
"616 559 CURVE SMOOTH",
"649 557 LINE",
"655 597 LINE"
);
}
);
width = 646;
}
);
leftMetricsKey = "=H";
rightKerningGroup = K;
unicode = 004B;
},
{
color = 4;
glyphname = L;
layers = (
{
anchors = (
{
name = bottom;
position = "{217, 0}";
},
{
name = top;
position = "{225, 598}";
},
{
name = topright;
position = "{455, 598}";
}
);
layerId = UUID0;
paths = (
{
closed = 1;
nodes = (
"102 597 LINE",
"98 567 LINE",
"137 569 LINE SMOOTH",
"147 569 OFFCURVE",
"153 560 OFFCURVE",
"151 548 CURVE SMOOTH",
"81 49 LINE SMOOTH",
"79 37 OFFCURVE",
"74 27 OFFCURVE",
"65 27 CURVE SMOOTH",
"22 30 LINE",
"18 0 LINE",
"326 0 LINE SMOOTH",
"394 0 OFFCURVE",
"434 -1 OFFCURVE",
"447 -3 CURVE",
"471 171 LINE",
"443 171 LINE",
"430 78 OFFCURVE",
"377 28 OFFCURVE",
"289 28 CURVE SMOOTH",
"180 28 LINE SMOOTH",
"174 28 OFFCURVE",
"171 32 OFFCURVE",
"172 41 CURVE SMOOTH",
"243 548 LINE SMOOTH",
"245 561 OFFCURVE",
"253 569 OFFCURVE",
"264 569 CURVE SMOOTH",
"313 567 LINE",
"317 597 LINE"
);
}
);
width = 498;
},
{
anchors = (
{
name = bottom;
position = "{207, 0}";
},
{
name = top;
position = "{215, 598}";
},
{
name = topright;
position = "{445, 598}";
}
);
layerId = "E888B586-AF79-49A4-B375-A6F02287AAF4";
paths = (
{
closed = 1;
nodes = (
"89 597 LINE",
"83 557 LINE",
"118 559 LINE SMOOTH",
"129 560 OFFCURVE",
"135 549 OFFCURVE",
"134 538 CURVE",
"66 59 LINE",
"65 47 OFFCURVE",
"59 37 OFFCURVE",
"48 37 CURVE",
"11 40 LINE",
"5 0 LINE",
"338 0 LINE SMOOTH",
"409 0 OFFCURVE",
"450 -1 OFFCURVE",
"462 -3 CURVE",
"486 171 LINE",
"450 171 LINE",
"438 85 OFFCURVE",
"386 38 OFFCURVE",
"301 38 CURVE SMOOTH",
"228 38 LINE SMOOTH",
"220 38 OFFCURVE",
"217 42 OFFCURVE",
"218 51 CURVE SMOOTH",
"287 538 LINE",
"288 550 OFFCURVE",
"298 560 OFFCURVE",
"310 559 CURVE",
"358 557 LINE",
"364 597 LINE"
);
}
);
width = 514;
}
);
leftMetricsKey = "=H";
rightKerningGroup = L;
unicode = 004C;
},
{
color = 4;
glyphname = Lcaron;
layers = (
{
background = {
paths = (
{
closed = 1;
nodes = (
"419 387 LINE",
"466 408 OFFCURVE",
"518 456 OFFCURVE",
"518 513 CURVE SMOOTH",
"518 541 OFFCURVE",
"500 566 OFFCURVE",
"465 566 CURVE SMOOTH",
"431 566 OFFCURVE",
"412 541 OFFCURVE",
"412 519 CURVE SMOOTH",
"412 503 OFFCURVE",
"422 489 OFFCURVE",
"438 489 CURVE SMOOTH",
"452 489 OFFCURVE",
"465 483 OFFCURVE",
"462 460 CURVE SMOOTH",
"460 442 OFFCURVE",
"433 415 OFFCURVE",
"405 400 CURVE"
);
}
);
};
components = (
{
name = L;
},
{
name = caron.alt;
transform = "{1, 0, 0, 1, 265, 0}";
}
);
layerId = UUID0;
width = 498;
},
{
background = {
paths = (
{
closed = 1;
nodes = (
"419 387 LINE",
"466 408 OFFCURVE",
"518 456 OFFCURVE",
"518 513 CURVE SMOOTH",
"518 541 OFFCURVE",
"500 566 OFFCURVE",
"465 566 CURVE SMOOTH",
"431 566 OFFCURVE",
"412 541 OFFCURVE",
"412 519 CURVE SMOOTH",
"412 503 OFFCURVE",
"422 489 OFFCURVE",
"438 489 CURVE SMOOTH",
"452 489 OFFCURVE",
"465 483 OFFCURVE",
"462 460 CURVE SMOOTH",
"460 442 OFFCURVE",
"433 415 OFFCURVE",
"405 400 CURVE"
);
}
);
};
components = (
{
name = L;
},
{
name = caron.alt;
transform = "{1, 0, 0, 1, 255, 10}";
}
);
layerId = "E888B586-AF79-49A4-B375-A6F02287AAF4";
width = 514;
}
);
unicode = 013D;
},
{
color = 4;
glyphname = Ldot;
layers = (
{
background = {
paths = (
{
closed = 1;
nodes = (
"18 0 LINE",
"326 0 LINE SMOOTH",
"394 0 OFFCURVE",
"434 -1 OFFCURVE",
"447 -3 CURVE",
"471 171 LINE",
"443 171 LINE",
"430 78 OFFCURVE",
"377 28 OFFCURVE",
"289 28 CURVE SMOOTH",
"180 28 LINE SMOOTH",
"174 28 OFFCURVE",
"171 32 OFFCURVE",
"172 41 CURVE SMOOTH",
"243 548 LINE SMOOTH",
"245 561 OFFCURVE",
"253 569 OFFCURVE",
"264 569 CURVE SMOOTH",
"313 567 LINE",
"317 597 LINE",
"102 597 LINE",
"98 567 LINE",
"137 569 LINE SMOOTH",
"147 569 OFFCURVE",
"153 560 OFFCURVE",
"151 548 CURVE SMOOTH",
"81 49 LINE SMOOTH",
"79 37 OFFCURVE",
"74 27 OFFCURVE",
"65 27 CURVE SMOOTH",
"22 30 LINE"
);
},
{
closed = 1;
nodes = (
"334 296 OFFCURVE",
"357 277 OFFCURVE",
"391 277 CURVE SMOOTH",
"431 277 OFFCURVE",
"464 302 OFFCURVE",
"464 342 CURVE SMOOTH",
"464 373 OFFCURVE",
"441 392 OFFCURVE",
"407 392 CURVE SMOOTH",
"367 392 OFFCURVE",
"334 366 OFFCURVE",
"334 327 CURVE SMOOTH"
);
}
);
};
components = (
{
name = L;
},
{
name = periodcentered;
transform = "{1, 0, 0, 1, 293, 150}";
}
);
layerId = UUID0;
width = 498;
},
{
background = {
paths = (
{
closed = 1;
nodes = (
"18 0 LINE",
"326 0 LINE SMOOTH",
"394 0 OFFCURVE",
"434 -1 OFFCURVE",
"447 -3 CURVE",
"471 171 LINE",
"443 171 LINE",
"430 78 OFFCURVE",
"377 28 OFFCURVE",
"289 28 CURVE SMOOTH",
"180 28 LINE SMOOTH",
"174 28 OFFCURVE",
"171 32 OFFCURVE",
"172 41 CURVE SMOOTH",
"243 548 LINE SMOOTH",
"245 561 OFFCURVE",
"253 569 OFFCURVE",
"264 569 CURVE SMOOTH",
"313 567 LINE",
"317 597 LINE",
"102 597 LINE",
"98 567 LINE",
"137 569 LINE SMOOTH",
"147 569 OFFCURVE",
"153 560 OFFCURVE",
"151 548 CURVE SMOOTH",
"81 49 LINE SMOOTH",
"79 37 OFFCURVE",
"74 27 OFFCURVE",
"65 27 CURVE SMOOTH",
"22 30 LINE"
);
},
{
closed = 1;
nodes = (
"334 296 OFFCURVE",
"357 277 OFFCURVE",
"391 277 CURVE SMOOTH",
"431 277 OFFCURVE",
"464 302 OFFCURVE",
"464 342 CURVE SMOOTH",
"464 373 OFFCURVE",
"441 392 OFFCURVE",
"407 392 CURVE SMOOTH",
"367 392 OFFCURVE",
"334 366 OFFCURVE",
"334 327 CURVE SMOOTH"
);
}
);
};
components = (
{
name = L;
},
{
name = periodcentered;
transform = "{1, 0, 0, 1, 293, 150}";
}
);
layerId = "E888B586-AF79-49A4-B375-A6F02287AAF4";
width = 514;
}
);
unicode = 013F;
},
{
color = 4;
glyphname = Lslash;
layers = (
{
background = {
paths = (
{
closed = 1;
nodes = (
"121 275 LINE",
"49 220 LINE",
"42 173 LINE",
"114 228 LINE"
);
},
{
closed = 1;
nodes = (
"199 288 LINE",
"314 377 LINE",
"321 425 LINE",
"205 336 LINE"
);
},
{
closed = 1;
nodes = (
"212 332 LINE",
"243 548 LINE SMOOTH",
"245 561 OFFCURVE",
"253 569 OFFCURVE",
"264 569 CURVE SMOOTH",
"313 567 LINE",
"317 597 LINE",
"102 597 LINE",
"98 567 LINE",
"137 569 LINE SMOOTH",
"147 569 OFFCURVE",
"153 560 OFFCURVE",
"151 548 CURVE SMOOTH",
"110 257 LINE",
"107 232 LINE",
"81 49 LINE SMOOTH",
"79 37 OFFCURVE",
"74 27 OFFCURVE",
"65 27 CURVE SMOOTH",
"22 30 LINE",
"18 0 LINE",
"326 0 LINE SMOOTH",
"394 0 OFFCURVE",
"434 -1 OFFCURVE",
"447 -3 CURVE",
"471 171 LINE",
"443 171 LINE",
"430 78 OFFCURVE",
"377 28 OFFCURVE",
"289 28 CURVE SMOOTH",
"180 28 LINE SMOOTH",
"174 28 OFFCURVE",
"171 32 OFFCURVE",
"172 41 CURVE SMOOTH",
"210 306 LINE"
);
}
);
};
components = (
{
name = L;
}
);
layerId = UUID0;
paths = (
{
closed = 1;
nodes = (
"121 275 LINE",
"49 220 LINE",
"42 173 LINE",
"114 228 LINE"
);
},
{
closed = 1;
nodes = (
"199 288 LINE",
"314 377 LINE",
"321 425 LINE",
"205 336 LINE"
);
}
);
width = 498;
},
{
background = {
paths = (
{
closed = 1;
nodes = (
"121 275 LINE",
"49 220 LINE",
"42 173 LINE",
"114 228 LINE"
);
},
{
closed = 1;
nodes = (
"199 288 LINE",
"314 377 LINE",
"321 425 LINE",
"205 336 LINE"
);
},
{
closed = 1;
nodes = (
"212 332 LINE",
"243 548 LINE SMOOTH",
"245 561 OFFCURVE",
"253 569 OFFCURVE",
"264 569 CURVE SMOOTH",
"313 567 LINE",
"317 597 LINE",
"102 597 LINE",
"98 567 LINE",
"137 569 LINE SMOOTH",
"147 569 OFFCURVE",
"153 560 OFFCURVE",
"151 548 CURVE SMOOTH",
"110 257 LINE",
"107 232 LINE",
"81 49 LINE SMOOTH",
"79 37 OFFCURVE",
"74 27 OFFCURVE",
"65 27 CURVE SMOOTH",
"22 30 LINE",
"18 0 LINE",
"326 0 LINE SMOOTH",
"394 0 OFFCURVE",
"434 -1 OFFCURVE",
"447 -3 CURVE",
"471 171 LINE",
"443 171 LINE",
"430 78 OFFCURVE",
"377 28 OFFCURVE",
"289 28 CURVE SMOOTH",
"180 28 LINE SMOOTH",
"174 28 OFFCURVE",
"171 32 OFFCURVE",
"172 41 CURVE SMOOTH",
"210 306 LINE"
);
}
);
};
components = (
{
name = L;
}
);
layerId = "E888B586-AF79-49A4-B375-A6F02287AAF4";
paths = (
{
closed = 1;
nodes = (
"121 275 LINE",
"49 220 LINE",
"42 173 LINE",
"114 228 LINE"
);
},
{
closed = 1;
nodes = (
"199 288 LINE",
"314 377 LINE",
"321 425 LINE",
"205 336 LINE"
);
}
);
width = 498;
}
);
unicode = 0141;
},
{
color = 4;
glyphname = M;
layers = (
{
layerId = UUID0;
paths = (
{
closed = 1;
nodes = (
"687 597 LINE",
"410 115 LINE",
"255 597 LINE",
"104 597 LINE",
"100 567 LINE",
"145 569 LINE SMOOTH",
"148 569 OFFCURVE",
"150 567 OFFCURVE",
"149 563 CURVE SMOOTH",
"77 49 LINE SMOOTH",
"75 34 OFFCURVE",
"68 27 OFFCURVE",
"56 27 CURVE SMOOTH",
"17 29 LINE",
"13 0 LINE",
"171 0 LINE",
"175 29 LINE",
"126 27 LINE",
"115 27 OFFCURVE",
"111 34 OFFCURVE",
"113 49 CURVE SMOOTH",
"179 520 LINE",
"350 -10 LINE",
"376 -10 LINE",
"675 513 LINE",
"610 49 LINE SMOOTH",
"608 34 OFFCURVE",
"601 27 OFFCURVE",
"590 27 CURVE SMOOTH",
"541 29 LINE",
"537 0 LINE",
"752 0 LINE",
"756 29 LINE",
"717 27 LINE",
"705 27 OFFCURVE",
"700 34 OFFCURVE",
"702 49 CURVE SMOOTH",
"772 549 LINE SMOOTH",
"774 561 OFFCURVE",
"782 569 OFFCURVE",
"793 569 CURVE SMOOTH",
"827 567 LINE",
"831 597 LINE"
);
}
);
width = 830;
},
{
layerId = "E888B586-AF79-49A4-B375-A6F02287AAF4";
paths = (
{
closed = 1;
nodes = (
"707 597 LINE",
"456 175 LINE",
"315 597 LINE",
"91 597 LINE",
"85 557 LINE",
"128 559 LINE",
"135 559 OFFCURVE",
"137 558 OFFCURVE",
"137 553 CURVE",
"67 59 LINE SMOOTH",
"65 44 OFFCURVE",
"57 37 OFFCURVE",
"44 37 CURVE",
"5 39 LINE",
"0 0 LINE",
"171 0 LINE",
"176 39 LINE",
"127 37 LINE",
"114 37 OFFCURVE",
"109 44 OFFCURVE",
"111 59 CURVE SMOOTH",
"176 527 LINE",
"359 -10 LINE",
"393 -10 LINE",
"692 498 LINE",
"630 59 LINE SMOOTH",
"628 44 OFFCURVE",
"620 37 OFFCURVE",
"607 37 CURVE",
"558 39 LINE",
"553 0 LINE",
"828 0 LINE",
"833 39 LINE",
"799 37 LINE SMOOTH",
"786 36 OFFCURVE",
"780 44 OFFCURVE",
"782 59 CURVE SMOOTH",
"850 539 LINE",
"851 550 OFFCURVE",
"861 560 OFFCURVE",
"873 559 CURVE SMOOTH",
"901 557 LINE",
"907 597 LINE"
);
}
);
width = 893;
}
);
leftMetricsKey = "=N";
rightMetricsKey = "=H";
unicode = 004D;
},
{
color = 4;
glyphname = N;
layers = (
{
anchors = (
{
name = bottom;
position = "{318, 0}";
},
{
name = top;
position = "{378, 598}";
}
);
layerId = UUID0;
paths = (
{
closed = 1;
nodes = (
"493 597 LINE",
"489 567 LINE",
"541 569 LINE SMOOTH",
"551 569 OFFCURVE",
"555 562 OFFCURVE",
"553 549 CURVE SMOOTH",
"498 158 LINE",
"249 597 LINE",
"97 597 LINE",
"93 567 LINE",
"132 569 LINE SMOOTH",
"144 569 OFFCURVE",
"149 560 OFFCURVE",
"147 548 CURVE SMOOTH",
"77 49 LINE SMOOTH",
"75 34 OFFCURVE",
"68 27 OFFCURVE",
"56 27 CURVE SMOOTH",
"17 29 LINE",
"13 0 LINE",
"171 0 LINE",
"175 29 LINE",
"126 27 LINE",
"115 27 OFFCURVE",
"111 34 OFFCURVE",
"113 49 CURVE SMOOTH",
"179 521 LINE",
"479 -6 LINE",
"511 -6 LINE",
"589 548 LINE SMOOTH",
"591 562 OFFCURVE",
"597 569 OFFCURVE",
"607 569 CURVE SMOOTH",
"648 567 LINE",
"652 597 LINE"
);
}
);
width = 641;
},
{
anchors = (
{
name = bottom;
position = "{318, 0}";
},
{
name = top;
position = "{378, 598}";
}
);
layerId = "E888B586-AF79-49A4-B375-A6F02287AAF4";
paths = (
{
closed = 1;
nodes = (
"535 597 LINE",
"531 567 LINE",
"583 569 LINE SMOOTH",
"594 569 OFFCURVE",
"599 562 OFFCURVE",
"597 549 CURVE SMOOTH",
"547 193 LINE",
"307 597 LINE",
"84 597 LINE",
"80 567 LINE",
"119 569 LINE",
"129 570 OFFCURVE",
"135 562 OFFCURVE",
"136 554 CURVE",
"66 49 LINE SMOOTH",
"64 34 OFFCURVE",
"56 27 OFFCURVE",
"43 27 CURVE",
"4 29 LINE",
"0 0 LINE",
"171 0 LINE",
"175 29 LINE",
"126 27 LINE",
"113 27 OFFCURVE",
"108 34 OFFCURVE",
"110 49 CURVE SMOOTH",
"176 525 LINE",
"493 -6 LINE",
"563 -6 LINE",
"641 548 LINE SMOOTH",
"643 562 OFFCURVE",
"650 569 OFFCURVE",
"661 569 CURVE SMOOTH",
"702 567 LINE",
"706 597 LINE"
);
}
);
width = 682;
}
);
unicode = 004E;
},
{
color = 4;
glyphname = Ntilde;
layers = (
{
background = {
paths = (
{
closed = 1;
nodes = (
"13 0 LINE",
"171 0 LINE",
"175 29 LINE",
"160 29 OFFCURVE",
"142 28 OFFCURVE",
"127 27 CURVE SMOOTH",
"115 27 OFFCURVE",
"111 34 OFFCURVE",
"113 49 CURVE SMOOTH",
"179 521 LINE",
"480 -6 LINE",
"511 -6 LINE",
"589 548 LINE SMOOTH",
"591 562 OFFCURVE",
"598 569 OFFCURVE",
"607 569 CURVE SMOOTH",
"648 567 LINE",
"652 597 LINE",
"494 597 LINE",
"490 567 LINE",
"542 569 LINE SMOOTH",
"551 569 OFFCURVE",
"556 562 OFFCURVE",
"554 549 CURVE SMOOTH",
"499 158 LINE",
"249 597 LINE",
"97 597 LINE",
"93 567 LINE",
"132 569 LINE SMOOTH",
"144 569 OFFCURVE",
"149 560 OFFCURVE",
"147 548 CURVE SMOOTH",
"77 49 LINE SMOOTH",
"75 34 OFFCURVE",
"68 27 OFFCURVE",
"56 27 CURVE SMOOTH",
"17 29 LINE"
);
},
{
closed = 1;
nodes = (
"268 676 LINE",
"271 700 OFFCURVE",
"287 718 OFFCURVE",
"305 718 CURVE SMOOTH",
"342 718 OFFCURVE",
"420 675 OFFCURVE",
"462 675 CURVE SMOOTH",
"499 675 OFFCURVE",
"531 717 OFFCURVE",
"538 766 CURVE",
"516 766 LINE",
"512 742 OFFCURVE",
"497 724 OFFCURVE",
"480 724 CURVE SMOOTH",
"442 724 OFFCURVE",
"366 767 OFFCURVE",
"322 767 CURVE SMOOTH",
"286 767 OFFCURVE",
"253 725 OFFCURVE",
"246 676 CURVE"
);
}
);
};
components = (
{
name = N;
},
{
name = tilde.case;
transform = "{1, 0, 0, 1, 143, 0}";
}
);
layerId = UUID0;
width = 641;
},
{
background = {
paths = (
{
closed = 1;
nodes = (
"13 0 LINE",
"171 0 LINE",
"175 29 LINE",
"160 29 OFFCURVE",
"142 28 OFFCURVE",
"127 27 CURVE SMOOTH",
"115 27 OFFCURVE",
"111 34 OFFCURVE",
"113 49 CURVE SMOOTH",
"179 521 LINE",
"480 -6 LINE",
"511 -6 LINE",
"589 548 LINE SMOOTH",
"591 562 OFFCURVE",
"598 569 OFFCURVE",
"607 569 CURVE SMOOTH",
"648 567 LINE",
"652 597 LINE",
"494 597 LINE",
"490 567 LINE",
"542 569 LINE SMOOTH",
"551 569 OFFCURVE",
"556 562 OFFCURVE",
"554 549 CURVE SMOOTH",
"499 158 LINE",
"249 597 LINE",
"97 597 LINE",
"93 567 LINE",
"132 569 LINE SMOOTH",
"144 569 OFFCURVE",
"149 560 OFFCURVE",
"147 548 CURVE SMOOTH",
"77 49 LINE SMOOTH",
"75 34 OFFCURVE",
"68 27 OFFCURVE",
"56 27 CURVE SMOOTH",
"17 29 LINE"
);
},
{
closed = 1;
nodes = (
"268 676 LINE",
"271 700 OFFCURVE",
"287 718 OFFCURVE",
"305 718 CURVE SMOOTH",
"342 718 OFFCURVE",
"420 675 OFFCURVE",
"462 675 CURVE SMOOTH",
"499 675 OFFCURVE",
"531 717 OFFCURVE",
"538 766 CURVE",
"516 766 LINE",
"512 742 OFFCURVE",
"497 724 OFFCURVE",
"480 724 CURVE SMOOTH",
"442 724 OFFCURVE",
"366 767 OFFCURVE",
"322 767 CURVE SMOOTH",
"286 767 OFFCURVE",
"253 725 OFFCURVE",
"246 676 CURVE"
);
}
);
};
components = (
{
name = N;
},
{
name = tilde.case;
transform = "{1, 0, 0, 1, 143, 0}";
}
);
layerId = "E888B586-AF79-49A4-B375-A6F02287AAF4";
width = 682;
}
);
unicode = 00D1;
},
{
color = 4;
glyphname = O;
layers = (
{
anchors = (
{
name = top;
position = "{378, 598}";
}
);
background = {
paths = (
{
closed = 1;
nodes = (
"24 103 OFFCURVE",
"115 -10 OFFCURVE",
"293 -10 CURVE SMOOTH",
"471 -10 OFFCURVE",
"594 103 OFFCURVE",
"621 299 CURVE SMOOTH",
"648 493 OFFCURVE",
"561 607 OFFCURVE",
"379 607 CURVE SMOOTH",
"203 607 OFFCURVE",
"79 499 OFFCURVE",
"51 299 CURVE SMOOTH"
);
},
{
closed = 1;
nodes = (
"181 501 OFFCURVE",
"253 580 OFFCURVE",
"376 580 CURVE SMOOTH",
"499 580 OFFCURVE",
"547 501 OFFCURVE",
"519 299 CURVE SMOOTH",
"491 96 OFFCURVE",
"419 17 OFFCURVE",
"296 17 CURVE SMOOTH",
"173 17 OFFCURVE",
"125 96 OFFCURVE",
"153 299 CURVE SMOOTH"
);
}
);
};
layerId = UUID0;
paths = (
{
closed = 1;
nodes = (
"50 25 OFFCURVE",
"205 -10 OFFCURVE",
"293 -10 CURVE SMOOTH",
"400 -10 OFFCURVE",
"623 36 OFFCURVE",
"623 356 CURVE SMOOTH",
"623 575 OFFCURVE",
"466 607 OFFCURVE",
"379 607 CURVE SMOOTH",
"271 607 OFFCURVE",
"50 562 OFFCURVE",
"50 242 CURVE SMOOTH"
);
},
{
closed = 1;
nodes = (
"148 308 OFFCURVE",
"167 385 OFFCURVE",
"189 443 CURVE SMOOTH",
"222 532 OFFCURVE",
"280 580 OFFCURVE",
"366 580 CURVE SMOOTH",
"476 580 OFFCURVE",
"524 532 OFFCURVE",
"524 383 CURVE SMOOTH",
"524 283 OFFCURVE",
"504 200 OFFCURVE",
"478 139 CURVE SMOOTH",
"444 60 OFFCURVE",
"388 17 OFFCURVE",
"306 17 CURVE SMOOTH",
"197 17 OFFCURVE",
"148 65 OFFCURVE",
"148 215 CURVE SMOOTH"
);
}
);
width = 649;
},
{
anchors = (
{
name = top;
position = "{387, 598}";
}
);
background = {
paths = (
{
closed = 1;
nodes = (
"13 103 OFFCURVE",
"112 -10 OFFCURVE",
"312 -10 CURVE SMOOTH",
"512 -10 OFFCURVE",
"643 103 OFFCURVE",
"670 299 CURVE SMOOTH",
"697 493 OFFCURVE",
"602 607 OFFCURVE",
"398 607 CURVE SMOOTH",
"200 607 OFFCURVE",
"68 499 OFFCURVE",
"40 299 CURVE SMOOTH"
);
},
{
closed = 1;
nodes = (
"237 513 OFFCURVE",
"293 570 OFFCURVE",
"393 570 CURVE SMOOTH",
"493 570 OFFCURVE",
"533 513 OFFCURVE",
"503 299 CURVE SMOOTH",
"473 84 OFFCURVE",
"417 27 OFFCURVE",
"317 27 CURVE SMOOTH",
"217 27 OFFCURVE",
"177 84 OFFCURVE",
"207 299 CURVE SMOOTH"
);
}
);
};
layerId = "E888B586-AF79-49A4-B375-A6F02287AAF4";
paths = (
{
closed = 1;
nodes = (
"35 79 OFFCURVE",
"134 -10 OFFCURVE",
"313 -10 CURVE SMOOTH",
"538 -10 OFFCURVE",
"675 142 OFFCURVE",
"675 341 CURVE SMOOTH",
"675 516 OFFCURVE",
"579 607 OFFCURVE",
"397 607 CURVE SMOOTH",
"174 607 OFFCURVE",
"35 460 OFFCURVE",
"35 258 CURVE SMOOTH"
);
},
{
closed = 1;
nodes = (
"197 243 OFFCURVE",
"206 338 OFFCURVE",
"230 419 CURVE SMOOTH",
"255 503 OFFCURVE",
"295 570 OFFCURVE",
"392 570 CURVE SMOOTH",
"493 570 OFFCURVE",
"512 488 OFFCURVE",
"513 418 CURVE SMOOTH",
"514 352 OFFCURVE",
"503 251 OFFCURVE",
"477 168 CURVE SMOOTH",
"452 89 OFFCURVE",
"414 27 OFFCURVE",
"321 27 CURVE SMOOTH",
"219 27 OFFCURVE",
"198 101 OFFCURVE",
"197 179 CURVE SMOOTH"
);
}
);
width = 686;
}
);
leftKerningGroup = O;
rightKerningGroup = O;
unicode = 004F;
},
{
color = 4;
glyphname = Oacute;
layers = (
{
background = {
paths = (
{
closed = 1;
nodes = (
"50 25 OFFCURVE",
"204 -10 OFFCURVE",
"294 -10 CURVE SMOOTH",
"399 -10 OFFCURVE",
"623 36 OFFCURVE",
"623 356 CURVE SMOOTH",
"623 575 OFFCURVE",
"466 607 OFFCURVE",
"380 607 CURVE SMOOTH",
"271 607 OFFCURVE",
"50 562 OFFCURVE",
"50 242 CURVE SMOOTH"
);
},
{
closed = 1;
nodes = (
"149 446 OFFCURVE",
"206 580 OFFCURVE",
"377 580 CURVE SMOOTH",
"476 580 OFFCURVE",
"525 522 OFFCURVE",
"525 382 CURVE SMOOTH",
"525 149 OFFCURVE",
"465 17 OFFCURVE",
"297 17 CURVE SMOOTH",
"198 17 OFFCURVE",
"149 75 OFFCURVE",
"149 214 CURVE SMOOTH"
);
},
{
closed = 1;
nodes = (
"542 808 OFFCURVE",
"513 826 OFFCURVE",
"489 826 CURVE SMOOTH",
"474 826 OFFCURVE",
"470 820 OFFCURVE",
"454 805 CURVE SMOOTH",
"353 706 LINE SMOOTH",
"340 694 OFFCURVE",
"323 680 OFFCURVE",
"323 673 CURVE SMOOTH",
"323 669 OFFCURVE",
"326 666 OFFCURVE",
"336 666 CURVE SMOOTH",
"343 666 OFFCURVE",
"353 672 OFFCURVE",
"357 675 CURVE SMOOTH",
"532 788 LINE SMOOTH",
"537 791 OFFCURVE",
"542 795 OFFCURVE",
"542 800 CURVE SMOOTH"
);
}
);
};
components = (
{
name = O;
},
{
name = acute.case;
transform = "{1, 0, 0, 1, 222, 0}";
}
);
layerId = UUID0;
width = 649;
},
{
background = {
paths = (
{
closed = 1;
nodes = (
"50 25 OFFCURVE",
"204 -10 OFFCURVE",
"294 -10 CURVE SMOOTH",
"399 -10 OFFCURVE",
"623 36 OFFCURVE",
"623 356 CURVE SMOOTH",
"623 575 OFFCURVE",
"466 607 OFFCURVE",
"380 607 CURVE SMOOTH",
"271 607 OFFCURVE",
"50 562 OFFCURVE",
"50 242 CURVE SMOOTH"
);
},
{
closed = 1;
nodes = (
"149 446 OFFCURVE",
"206 580 OFFCURVE",
"377 580 CURVE SMOOTH",
"476 580 OFFCURVE",
"525 522 OFFCURVE",
"525 382 CURVE SMOOTH",
"525 149 OFFCURVE",
"465 17 OFFCURVE",
"297 17 CURVE SMOOTH",
"198 17 OFFCURVE",
"149 75 OFFCURVE",
"149 214 CURVE SMOOTH"
);
},
{
closed = 1;
nodes = (
"542 808 OFFCURVE",
"513 826 OFFCURVE",
"489 826 CURVE SMOOTH",
"474 826 OFFCURVE",
"470 820 OFFCURVE",
"454 805 CURVE SMOOTH",
"353 706 LINE SMOOTH",
"340 694 OFFCURVE",
"323 680 OFFCURVE",
"323 673 CURVE SMOOTH",
"323 669 OFFCURVE",
"326 666 OFFCURVE",
"336 666 CURVE SMOOTH",
"343 666 OFFCURVE",
"353 672 OFFCURVE",
"357 675 CURVE SMOOTH",
"532 788 LINE SMOOTH",
"537 791 OFFCURVE",
"542 795 OFFCURVE",
"542 800 CURVE SMOOTH"
);
}
);
};
components = (
{
name = O;
},
{
name = acute.case;
transform = "{1, 0, 0, 1, 231, 0}";
}
);
layerId = "E888B586-AF79-49A4-B375-A6F02287AAF4";
width = 686;
}
);
leftKerningGroup = O;
rightKerningGroup = O;
unicode = 00D3;
},
{
color = 4;
glyphname = Ocircumflex;
layers = (
{
background = {
paths = (
{
closed = 1;
nodes = (
"50 25 OFFCURVE",
"204 -10 OFFCURVE",
"294 -10 CURVE SMOOTH",
"399 -10 OFFCURVE",
"623 36 OFFCURVE",
"623 356 CURVE SMOOTH",
"623 575 OFFCURVE",
"466 607 OFFCURVE",
"380 607 CURVE SMOOTH",
"271 607 OFFCURVE",
"50 562 OFFCURVE",
"50 242 CURVE SMOOTH"
);
},
{
closed = 1;
nodes = (
"149 446 OFFCURVE",
"206 580 OFFCURVE",
"377 580 CURVE SMOOTH",
"476 580 OFFCURVE",
"525 522 OFFCURVE",
"525 382 CURVE SMOOTH",
"525 149 OFFCURVE",
"465 17 OFFCURVE",
"297 17 CURVE SMOOTH",
"198 17 OFFCURVE",
"149 75 OFFCURVE",
"149 214 CURVE SMOOTH"
);
},
{
closed = 1;
nodes = (
"238 670 OFFCURVE",
"239 666 OFFCURVE",
"247 666 CURVE SMOOTH",
"254 666 OFFCURVE",
"267 673 OFFCURVE",
"276 678 CURVE SMOOTH",
"401 752 LINE",
"504 678 LINE SMOOTH",
"511 673 OFFCURVE",
"524 666 OFFCURVE",
"531 666 CURVE SMOOTH",
"540 666 OFFCURVE",
"542 671 OFFCURVE",
"542 674 CURVE SMOOTH",
"542 682 OFFCURVE",
"510 706 OFFCURVE",
"475 749 CURVE SMOOTH",
"436 797 LINE SMOOTH",
"423 812 OFFCURVE",
"414 822 OFFCURVE",
"411 822 CURVE SMOOTH",
"407 822 OFFCURVE",
"394 812 OFFCURVE",
"378 797 CURVE SMOOTH",
"324 749 LINE",
"276 703 OFFCURVE",
"238 681 OFFCURVE",
"238 673 CURVE SMOOTH"
);
}
);
};
components = (
{
name = O;
},
{
name = circumflex.case;
transform = "{1, 0, 0, 1, 139, 0}";
}
);
layerId = UUID0;
width = 649;
},
{
background = {
paths = (
{
closed = 1;
nodes = (
"50 25 OFFCURVE",
"204 -10 OFFCURVE",
"294 -10 CURVE SMOOTH",
"399 -10 OFFCURVE",
"623 36 OFFCURVE",
"623 356 CURVE SMOOTH",
"623 575 OFFCURVE",
"466 607 OFFCURVE",
"380 607 CURVE SMOOTH",
"271 607 OFFCURVE",
"50 562 OFFCURVE",
"50 242 CURVE SMOOTH"
);
},
{
closed = 1;
nodes = (
"149 446 OFFCURVE",
"206 580 OFFCURVE",
"377 580 CURVE SMOOTH",
"476 580 OFFCURVE",
"525 522 OFFCURVE",
"525 382 CURVE SMOOTH",
"525 149 OFFCURVE",
"465 17 OFFCURVE",
"297 17 CURVE SMOOTH",
"198 17 OFFCURVE",
"149 75 OFFCURVE",
"149 214 CURVE SMOOTH"
);
},
{
closed = 1;
nodes = (
"238 670 OFFCURVE",
"239 666 OFFCURVE",
"247 666 CURVE SMOOTH",
"254 666 OFFCURVE",
"267 673 OFFCURVE",
"276 678 CURVE SMOOTH",
"401 752 LINE",
"504 678 LINE SMOOTH",
"511 673 OFFCURVE",
"524 666 OFFCURVE",
"531 666 CURVE SMOOTH",
"540 666 OFFCURVE",
"542 671 OFFCURVE",
"542 674 CURVE SMOOTH",
"542 682 OFFCURVE",
"510 706 OFFCURVE",
"475 749 CURVE SMOOTH",
"436 797 LINE SMOOTH",
"423 812 OFFCURVE",
"414 822 OFFCURVE",
"411 822 CURVE SMOOTH",
"407 822 OFFCURVE",
"394 812 OFFCURVE",
"378 797 CURVE SMOOTH",
"324 749 LINE",
"276 703 OFFCURVE",
"238 681 OFFCURVE",
"238 673 CURVE SMOOTH"
);
}
);
};
components = (
{
name = O;
},
{
name = circumflex.case;
transform = "{1, 0, 0, 1, 148, 0}";
}
);
layerId = "E888B586-AF79-49A4-B375-A6F02287AAF4";
width = 686;
}
);
leftKerningGroup = O;
rightKerningGroup = O;
unicode = 00D4;
},
{
color = 4;
glyphname = Odieresis;
layers = (
{
background = {
paths = (
{
closed = 1;
nodes = (
"50 25 OFFCURVE",
"204 -10 OFFCURVE",
"294 -10 CURVE SMOOTH",
"399 -10 OFFCURVE",
"623 36 OFFCURVE",
"623 356 CURVE SMOOTH",
"623 575 OFFCURVE",
"466 607 OFFCURVE",
"380 607 CURVE SMOOTH",
"271 607 OFFCURVE",
"50 562 OFFCURVE",
"50 242 CURVE SMOOTH"
);
},
{
closed = 1;
nodes = (
"148 448 OFFCURVE",
"208 580 OFFCURVE",
"377 580 CURVE SMOOTH",
"476 580 OFFCURVE",
"525 522 OFFCURVE",
"525 382 CURVE SMOOTH",
"525 149 OFFCURVE",
"465 17 OFFCURVE",
"297 17 CURVE SMOOTH",
"198 17 OFFCURVE",
"148 75 OFFCURVE",
"148 215 CURVE SMOOTH"
);
},
{
closed = 1;
nodes = (
"247 693 OFFCURVE",
"267 676 OFFCURVE",
"295 676 CURVE SMOOTH",
"329 676 OFFCURVE",
"356 698 OFFCURVE",
"356 729 CURVE SMOOTH",
"356 754 OFFCURVE",
"335 773 OFFCURVE",
"309 773 CURVE SMOOTH",
"275 773 OFFCURVE",
"247 749 OFFCURVE",
"247 718 CURVE SMOOTH"
);
},
{
closed = 1;
nodes = (
"436 693 OFFCURVE",
"456 676 OFFCURVE",
"483 676 CURVE SMOOTH",
"517 676 OFFCURVE",
"544 698 OFFCURVE",
"544 729 CURVE SMOOTH",
"544 754 OFFCURVE",
"524 773 OFFCURVE",
"497 773 CURVE SMOOTH",
"464 773 OFFCURVE",
"436 749 OFFCURVE",
"436 718 CURVE SMOOTH"
);
}
);
};
components = (
{
name = O;
},
{
name = dieresis.case;
transform = "{1, 0, 0, 1, 182, 0}";
}
);
layerId = UUID0;
width = 649;
},
{
background = {
paths = (
{
closed = 1;
nodes = (
"50 25 OFFCURVE",
"204 -10 OFFCURVE",
"294 -10 CURVE SMOOTH",
"399 -10 OFFCURVE",
"623 36 OFFCURVE",
"623 356 CURVE SMOOTH",
"623 575 OFFCURVE",
"466 607 OFFCURVE",
"380 607 CURVE SMOOTH",
"271 607 OFFCURVE",
"50 562 OFFCURVE",
"50 242 CURVE SMOOTH"
);
},
{
closed = 1;
nodes = (
"148 448 OFFCURVE",
"208 580 OFFCURVE",
"377 580 CURVE SMOOTH",
"476 580 OFFCURVE",
"525 522 OFFCURVE",
"525 382 CURVE SMOOTH",
"525 149 OFFCURVE",
"465 17 OFFCURVE",
"297 17 CURVE SMOOTH",
"198 17 OFFCURVE",
"148 75 OFFCURVE",
"148 215 CURVE SMOOTH"
);
},
{
closed = 1;
nodes = (
"247 693 OFFCURVE",
"267 676 OFFCURVE",
"295 676 CURVE SMOOTH",
"329 676 OFFCURVE",
"356 698 OFFCURVE",
"356 729 CURVE SMOOTH",
"356 754 OFFCURVE",
"335 773 OFFCURVE",
"309 773 CURVE SMOOTH",
"275 773 OFFCURVE",
"247 749 OFFCURVE",
"247 718 CURVE SMOOTH"
);
},
{
closed = 1;
nodes = (
"436 693 OFFCURVE",
"456 676 OFFCURVE",
"483 676 CURVE SMOOTH",
"517 676 OFFCURVE",
"544 698 OFFCURVE",
"544 729 CURVE SMOOTH",
"544 754 OFFCURVE",
"524 773 OFFCURVE",
"497 773 CURVE SMOOTH",
"464 773 OFFCURVE",
"436 749 OFFCURVE",
"436 718 CURVE SMOOTH"
);
}
);
};
components = (
{
name = O;
},
{
name = dieresis.case;
transform = "{1, 0, 0, 1, 191, 0}";
}
);
layerId = "E888B586-AF79-49A4-B375-A6F02287AAF4";
width = 686;
}
);
leftKerningGroup = O;
rightKerningGroup = O;
unicode = 00D6;
},
{
color = 4;
glyphname = Ograve;
layers = (
{
background = {
paths = (
{
closed = 1;
nodes = (
"50 25 OFFCURVE",
"204 -10 OFFCURVE",
"294 -10 CURVE SMOOTH",
"399 -10 OFFCURVE",
"623 36 OFFCURVE",
"623 356 CURVE SMOOTH",
"623 575 OFFCURVE",
"466 607 OFFCURVE",
"380 607 CURVE SMOOTH",
"271 607 OFFCURVE",
"50 562 OFFCURVE",
"50 242 CURVE SMOOTH"
);
},
{
closed = 1;
nodes = (
"149 446 OFFCURVE",
"206 580 OFFCURVE",
"377 580 CURVE SMOOTH",
"476 580 OFFCURVE",
"525 522 OFFCURVE",
"525 382 CURVE SMOOTH",
"525 149 OFFCURVE",
"465 17 OFFCURVE",
"297 17 CURVE SMOOTH",
"198 17 OFFCURVE",
"149 75 OFFCURVE",
"149 214 CURVE SMOOTH"
);
},
{
closed = 1;
nodes = (
"273 794 OFFCURVE",
"277 791 OFFCURVE",
"280 788 CURVE SMOOTH",
"424 675 LINE SMOOTH",
"427 673 OFFCURVE",
"435 666 OFFCURVE",
"443 666 CURVE SMOOTH",
"452 666 OFFCURVE",
"458 669 OFFCURVE",
"458 674 CURVE SMOOTH",
"458 677 OFFCURVE",
"453 684 OFFCURVE",
"448 691 CURVE SMOOTH",
"365 801 LINE SMOOTH",
"353 817 OFFCURVE",
"344 826 OFFCURVE",
"333 826 CURVE SMOOTH",
"309 826 OFFCURVE",
"273 808 OFFCURVE",
"273 799 CURVE SMOOTH"
);
}
);
};
components = (
{
name = O;
},
{
name = grave.case;
transform = "{1, 0, 0, 1, 154, 0}";
}
);
layerId = UUID0;
width = 649;
},
{
background = {
paths = (
{
closed = 1;
nodes = (
"50 25 OFFCURVE",
"204 -10 OFFCURVE",
"294 -10 CURVE SMOOTH",
"399 -10 OFFCURVE",
"623 36 OFFCURVE",
"623 356 CURVE SMOOTH",
"623 575 OFFCURVE",
"466 607 OFFCURVE",
"380 607 CURVE SMOOTH",
"271 607 OFFCURVE",
"50 562 OFFCURVE",
"50 242 CURVE SMOOTH"
);
},
{
closed = 1;
nodes = (
"149 446 OFFCURVE",
"206 580 OFFCURVE",
"377 580 CURVE SMOOTH",
"476 580 OFFCURVE",
"525 522 OFFCURVE",
"525 382 CURVE SMOOTH",
"525 149 OFFCURVE",
"465 17 OFFCURVE",
"297 17 CURVE SMOOTH",
"198 17 OFFCURVE",
"149 75 OFFCURVE",
"149 214 CURVE SMOOTH"
);
},
{
closed = 1;
nodes = (
"273 794 OFFCURVE",
"277 791 OFFCURVE",
"280 788 CURVE SMOOTH",
"424 675 LINE SMOOTH",
"427 673 OFFCURVE",
"435 666 OFFCURVE",
"443 666 CURVE SMOOTH",
"452 666 OFFCURVE",
"458 669 OFFCURVE",
"458 674 CURVE SMOOTH",
"458 677 OFFCURVE",
"453 684 OFFCURVE",
"448 691 CURVE SMOOTH",
"365 801 LINE SMOOTH",
"353 817 OFFCURVE",
"344 826 OFFCURVE",
"333 826 CURVE SMOOTH",
"309 826 OFFCURVE",
"273 808 OFFCURVE",
"273 799 CURVE SMOOTH"
);
}
);
};
components = (
{
name = O;
},
{
name = grave.case;
transform = "{1, 0, 0, 1, 163, 0}";
}
);
layerId = "E888B586-AF79-49A4-B375-A6F02287AAF4";
width = 686;
}
);
leftKerningGroup = O;
rightKerningGroup = O;
unicode = 00D2;
},
{
color = 4;
glyphname = Oslash;
layers = (
{
anchors = (
{
name = top;
position = "{377, 598}";
}
);
components = (
{
name = O;
}
);
layerId = UUID0;
paths = (
{
closed = 1;
nodes = (
"619 666 LINE",
"584 687 LINE",
"46 -74 LINE",
"81 -92 LINE"
);
}
);
width = 644;
},
{
anchors = (
{
name = top;
position = "{377, 598}";
}
);
components = (
{
name = O;
}
);
layerId = "E888B586-AF79-49A4-B375-A6F02287AAF4";
paths = (
{
closed = 1;
nodes = (
"640 661 LINE",
"597 690 LINE",
"44 -70 LINE",
"88 -96 LINE"
);
}
);
width = 686;
}
);
leftKerningGroup = O;
rightKerningGroup = O;
unicode = 00D8;
},
{
color = 4;
glyphname = Otilde;
layers = (
{
background = {
paths = (
{
closed = 1;
nodes = (
"50 25 OFFCURVE",
"204 -10 OFFCURVE",
"294 -10 CURVE SMOOTH",
"399 -10 OFFCURVE",
"623 36 OFFCURVE",
"623 356 CURVE SMOOTH",
"623 575 OFFCURVE",
"466 607 OFFCURVE",
"380 607 CURVE SMOOTH",
"271 607 OFFCURVE",
"50 562 OFFCURVE",
"50 242 CURVE SMOOTH"
);
},
{
closed = 1;
nodes = (
"148 448 OFFCURVE",
"208 580 OFFCURVE",
"377 580 CURVE SMOOTH",
"476 580 OFFCURVE",
"525 522 OFFCURVE",
"525 382 CURVE SMOOTH",
"525 149 OFFCURVE",
"465 17 OFFCURVE",
"297 17 CURVE SMOOTH",
"198 17 OFFCURVE",
"148 75 OFFCURVE",
"148 215 CURVE SMOOTH"
);
},
{
closed = 1;
nodes = (
"272 676 LINE",
"275 700 OFFCURVE",
"291 718 OFFCURVE",
"309 718 CURVE SMOOTH",
"346 718 OFFCURVE",
"424 675 OFFCURVE",
"466 675 CURVE SMOOTH",
"503 675 OFFCURVE",
"535 717 OFFCURVE",
"542 766 CURVE",
"520 766 LINE",
"516 742 OFFCURVE",
"501 724 OFFCURVE",
"484 724 CURVE SMOOTH",
"446 724 OFFCURVE",
"370 767 OFFCURVE",
"326 767 CURVE SMOOTH",
"290 767 OFFCURVE",
"257 725 OFFCURVE",
"250 676 CURVE"
);
}
);
};
components = (
{
name = O;
},
{
name = tilde.case;
transform = "{1, 0, 0, 1, 143, 0}";
}
);
layerId = UUID0;
width = 649;
},
{
background = {
paths = (
{
closed = 1;
nodes = (
"50 25 OFFCURVE",
"204 -10 OFFCURVE",
"294 -10 CURVE SMOOTH",
"399 -10 OFFCURVE",
"623 36 OFFCURVE",
"623 356 CURVE SMOOTH",
"623 575 OFFCURVE",
"466 607 OFFCURVE",
"380 607 CURVE SMOOTH",
"271 607 OFFCURVE",
"50 562 OFFCURVE",
"50 242 CURVE SMOOTH"
);
},
{
closed = 1;
nodes = (
"148 448 OFFCURVE",
"208 580 OFFCURVE",
"377 580 CURVE SMOOTH",
"476 580 OFFCURVE",
"525 522 OFFCURVE",
"525 382 CURVE SMOOTH",
"525 149 OFFCURVE",
"465 17 OFFCURVE",
"297 17 CURVE SMOOTH",
"198 17 OFFCURVE",
"148 75 OFFCURVE",
"148 215 CURVE SMOOTH"
);
},
{
closed = 1;
nodes = (
"272 676 LINE",
"275 700 OFFCURVE",
"291 718 OFFCURVE",
"309 718 CURVE SMOOTH",
"346 718 OFFCURVE",
"424 675 OFFCURVE",
"466 675 CURVE SMOOTH",
"503 675 OFFCURVE",
"535 717 OFFCURVE",
"542 766 CURVE",
"520 766 LINE",
"516 742 OFFCURVE",
"501 724 OFFCURVE",
"484 724 CURVE SMOOTH",
"446 724 OFFCURVE",
"370 767 OFFCURVE",
"326 767 CURVE SMOOTH",
"290 767 OFFCURVE",
"257 725 OFFCURVE",
"250 676 CURVE"
);
}
);
};
components = (
{
name = O;
},
{
name = tilde.case;
transform = "{1, 0, 0, 1, 152, 0}";
}
);
layerId = "E888B586-AF79-49A4-B375-A6F02287AAF4";
width = 686;
}
);
leftKerningGroup = O;
rightKerningGroup = O;
unicode = 00D5;
},
{
color = 4;
glyphname = OE;
layers = (
{
anchors = (
{
name = top;
position = "{474, 598}";
}
);
layerId = UUID0;
paths = (
{
closed = 1;
nodes = (
"151 607 OFFCURVE",
"50 457 OFFCURVE",
"50 237 CURVE SMOOTH",
"50 79 OFFCURVE",
"137 -10 OFFCURVE",
"298 -10 CURVE SMOOTH",
"300 -10 OFFCURVE",
"364 0 OFFCURVE",
"434 0 CURVE SMOOTH",
"675 0 LINE SMOOTH",
"717 0 OFFCURVE",
"745 -1 OFFCURVE",
"762 -3 CURVE",
"787 179 LINE",
"758 179 LINE",
"745 82 OFFCURVE",
"691 27 OFFCURVE",
"603 27 CURVE SMOOTH",
"492 27 LINE SMOOTH",
"485 27 OFFCURVE",
"482 31 OFFCURVE",
"483 40 CURVE SMOOTH",
"519 297 LINE",
"591 297 LINE SMOOTH",
"630 297 OFFCURVE",
"658 255 OFFCURVE",
"649 195 CURVE",
"678 195 LINE",
"711 426 LINE",
"682 426 LINE",
"673 362 OFFCURVE",
"636 324 OFFCURVE",
"595 324 CURVE SMOOTH",
"523 324 LINE",
"555 555 LINE SMOOTH",
"556 564 OFFCURVE",
"561 569 OFFCURVE",
"568 569 CURVE SMOOTH",
"659 569 LINE SMOOTH",
"753 569 OFFCURVE",
"789 534 OFFCURVE",
"776 443 CURVE",
"805 443 LINE",
"827 597 LINE",
"510 597 LINE SMOOTH",
"465 597 OFFCURVE",
"438 607 OFFCURVE",
"387 607 CURVE SMOOTH"
);
},
{
closed = 1;
nodes = (
"429 581 OFFCURVE",
"467 557 OFFCURVE",
"463 526 CURVE SMOOTH",
"402 90 LINE SMOOTH",
"397 56 OFFCURVE",
"374 18 OFFCURVE",
"298 18 CURVE SMOOTH",
"192 18 OFFCURVE",
"144 77 OFFCURVE",
"144 212 CURVE SMOOTH",
"144 292 OFFCURVE",
"150 363 OFFCURVE",
"172 422 CURVE SMOOTH",
"202 520 OFFCURVE",
"264 581 OFFCURVE",
"377 581 CURVE SMOOTH"
);
}
);
width = 834;
},
{
anchors = (
{
name = top;
position = "{474, 598}";
}
);
layerId = "E888B586-AF79-49A4-B375-A6F02287AAF4";
paths = (
{
closed = 1;
nodes = (
"174 607 OFFCURVE",
"35 460 OFFCURVE",
"35 258 CURVE SMOOTH",
"35 79 OFFCURVE",
"134 -10 OFFCURVE",
"313 -10 CURVE SMOOTH",
"347 -10 OFFCURVE",
"378 -6 OFFCURVE",
"408 0 CURVE",
"732 0 LINE SMOOTH",
"775 0 OFFCURVE",
"815 -1 OFFCURVE",
"830 -3 CURVE",
"855 179 LINE",
"818 179 LINE",
"805 88 OFFCURVE",
"750 38 OFFCURVE",
"659 38 CURVE SMOOTH",
"559 38 LINE SMOOTH",
"551 38 OFFCURVE",
"548 42 OFFCURVE",
"549 51 CURVE SMOOTH",
"582 287 LINE",
"646 287 LINE SMOOTH",
"687 287 OFFCURVE",
"716 245 OFFCURVE",
"709 190 CURVE",
"746 190 LINE",
"779 426 LINE",
"742 426 LINE",
"733 362 OFFCURVE",
"696 325 OFFCURVE",
"652 325 CURVE SMOOTH",
"588 325 LINE",
"619 545 LINE SMOOTH",
"620 554 OFFCURVE",
"625 559 OFFCURVE",
"633 559 CURVE SMOOTH",
"700 559 LINE SMOOTH",
"799 559 OFFCURVE",
"837 525 OFFCURVE",
"825 443 CURVE",
"862 443 LINE",
"884 598 LINE",
"499 598 LINE",
"470 598 OFFCURVE",
"432 607 OFFCURVE",
"397 607 CURVE SMOOTH"
);
},
{
closed = 1;
nodes = (
"451 570 OFFCURVE",
"462 549 OFFCURVE",
"464 530 CURVE",
"399 74 LINE",
"386 48 OFFCURVE",
"364 27 OFFCURVE",
"321 27 CURVE SMOOTH",
"219 27 OFFCURVE",
"198 101 OFFCURVE",
"197 179 CURVE",
"197 243 OFFCURVE",
"206 338 OFFCURVE",
"230 419 CURVE SMOOTH",
"255 503 OFFCURVE",
"295 570 OFFCURVE",
"392 570 CURVE SMOOTH"
);
}
);
width = 904;
}
);
leftKerningGroup = O;
leftMetricsKey = "=O";
rightMetricsKey = "=E";
unicode = 0152;
},
{
color = 4;
glyphname = P;
layers = (
{
layerId = UUID0;
paths = (
{
closed = 1;
nodes = (
"102 597 LINE",
"98 567 LINE",
"136 569 LINE SMOOTH",
"150 570 OFFCURVE",
"153 560 OFFCURVE",
"151 547 CURVE SMOOTH",
"81 49 LINE SMOOTH",
"79 34 OFFCURVE",
"72 27 OFFCURVE",
"61 27 CURVE SMOOTH",
"22 29 LINE",
"18 0 LINE",
"233 0 LINE",
"237 29 LINE",
"188 27 LINE",
"177 27 OFFCURVE",
"171 34 OFFCURVE",
"173 49 CURVE SMOOTH",
"203 263 LINE",
"303 263 LINE SMOOTH",
"426 263 OFFCURVE",
"507 345 OFFCURVE",
"507 463 CURVE SMOOTH",
"507 552 OFFCURVE",
"451 597 OFFCURVE",
"330 597 CURVE SMOOTH"
);
},
{
closed = 1;
nodes = (
"374 569 OFFCURVE",
"411 524 OFFCURVE",
"411 458 CURVE SMOOTH",
"411 366 OFFCURVE",
"353 291 OFFCURVE",
"287 291 CURVE SMOOTH",
"207 291 LINE",
"244 557 LINE SMOOTH",
"245 564 OFFCURVE",
"252 569 OFFCURVE",
"256 569 CURVE SMOOTH",
"310 569 LINE SMOOTH"
);
}
);
width = 507;
},
{
layerId = "E888B586-AF79-49A4-B375-A6F02287AAF4";
paths = (
{
closed = 1;
nodes = (
"89 597 LINE",
"83 557 LINE",
"114 559 LINE SMOOTH",
"133 560 OFFCURVE",
"136 552 OFFCURVE",
"133 537 CURVE",
"66 59 LINE SMOOTH",
"64 44 OFFCURVE",
"57 36 OFFCURVE",
"44 37 CURVE SMOOTH",
"10 39 LINE",
"5 0 LINE",
"280 0 LINE",
"285 39 LINE",
"236 37 LINE",
"223 37 OFFCURVE",
"217 44 OFFCURVE",
"219 59 CURVE SMOOTH",
"245 243 LINE",
"340 243 LINE SMOOTH",
"475 243 OFFCURVE",
"567 328 OFFCURVE",
"567 453 CURVE SMOOTH",
"567 549 OFFCURVE",
"501 597 OFFCURVE",
"361 597 CURVE SMOOTH"
);
},
{
closed = 1;
nodes = (
"381 559 OFFCURVE",
"406 517 OFFCURVE",
"406 454 CURVE SMOOTH",
"406 358 OFFCURVE",
"353 281 OFFCURVE",
"295 281 CURVE SMOOTH",
"250 281 LINE",
"288 547 LINE SMOOTH",
"289 554 OFFCURVE",
"297 559 OFFCURVE",
"302 559 CURVE SMOOTH",
"337 559 LINE SMOOTH"
);
}
);
width = 556;
}
);
leftMetricsKey = "=H";
unicode = 0050;
},
{
color = 4;
glyphname = Thorn;
layers = (
{
layerId = UUID0;
paths = (
{
closed = 1;
nodes = (
"102 597 LINE",
"98 567 LINE",
"137 569 LINE SMOOTH",
"149 569 OFFCURVE",
"153 559 OFFCURVE",
"151 548 CURVE SMOOTH",
"81 49 LINE SMOOTH",
"79 35 OFFCURVE",
"73 27 OFFCURVE",
"61 27 CURVE SMOOTH",
"22 29 LINE",
"18 0 LINE",
"233 0 LINE",
"237 29 LINE",
"188 27 LINE SMOOTH",
"175 26 OFFCURVE",
"172 36 OFFCURVE",
"174 49 CURVE SMOOTH",
"190 162 LINE",
"288 162 LINE SMOOTH",
"414 162 OFFCURVE",
"494 243 OFFCURVE",
"494 362 CURVE SMOOTH",
"494 454 OFFCURVE",
"436 496 OFFCURVE",
"314 496 CURVE SMOOTH",
"237 496 LINE",
"244 548 LINE SMOOTH",
"246 559 OFFCURVE",
"254 569 OFFCURVE",
"264 569 CURVE SMOOTH",
"313 567 LINE",
"317 597 LINE"
);
},
{
closed = 1;
nodes = (
"361 471 OFFCURVE",
"398 425 OFFCURVE",
"398 357 CURVE SMOOTH",
"398 264 OFFCURVE",
"333 188 OFFCURVE",
"270 188 CURVE SMOOTH",
"204 188 LINE SMOOTH",
"198 188 OFFCURVE",
"194 194 OFFCURVE",
"195 201 CURVE SMOOTH",
"233 471 LINE",
"295 471 LINE SMOOTH"
);
}
);
width = 508;
},
{
layerId = "E888B586-AF79-49A4-B375-A6F02287AAF4";
paths = (
{
closed = 1;
nodes = (
"89 597 LINE",
"85 567 LINE",
"119 569 LINE SMOOTH",
"132 570 OFFCURVE",
"137 559 OFFCURVE",
"135 548 CURVE",
"65 49 LINE SMOOTH",
"63 36 OFFCURVE",
"56 26 OFFCURVE",
"43 27 CURVE SMOOTH",
"9 29 LINE",
"5 0 LINE",
"280 0 LINE",
"284 29 LINE",
"235 27 LINE SMOOTH",
"220 26 OFFCURVE",
"216 36 OFFCURVE",
"218 49 CURVE SMOOTH",
"234 162 LINE",
"327 162 LINE SMOOTH",
"465 162 OFFCURVE",
"549 231 OFFCURVE",
"549 364 CURVE SMOOTH",
"549 462 OFFCURVE",
"485 496 OFFCURVE",
"353 496 CURVE SMOOTH",
"281 496 LINE",
"288 548 LINE",
"290 559 OFFCURVE",
"299 569 OFFCURVE",
"311 569 CURVE",
"360 567 LINE",
"364 597 LINE"
);
},
{
closed = 1;
nodes = (
"365 471 OFFCURVE",
"393 435 OFFCURVE",
"393 366 CURVE SMOOTH",
"393 259 OFFCURVE",
"342 188 OFFCURVE",
"289 188 CURVE SMOOTH",
"250 188 LINE SMOOTH",
"243 188 OFFCURVE",
"238 194 OFFCURVE",
"239 201 CURVE SMOOTH",
"277 471 LINE",
"313 471 LINE SMOOTH"
);
}
);
width = 551;
}
);
leftMetricsKey = "=H";
rightMetricsKey = "=P";
unicode = 00DE;
},
{
color = 4;
glyphname = Q;
layers = (
{
background = {
paths = (
{
closed = 1;
nodes = (
"50 56 OFFCURVE",
"165 3 OFFCURVE",
"243 -7 CURVE",
"227 -118 OFFCURVE",
"322 -196 OFFCURVE",
"467 -196 CURVE",
"485 -166 LINE",
"386 -166 OFFCURVE",
"330 -98 OFFCURVE",
"343 -7 CURVE",
"342 -7 LINE",
"445 5 OFFCURVE",
"623 76 OFFCURVE",
"623 356 CURVE SMOOTH",
"623 575 OFFCURVE",
"466 607 OFFCURVE",
"380 607 CURVE SMOOTH",
"271 607 OFFCURVE",
"50 562 OFFCURVE",
"50 243 CURVE SMOOTH"
);
},
{
closed = 1;
nodes = (
"148 448 OFFCURVE",
"208 580 OFFCURVE",
"377 580 CURVE SMOOTH",
"476 580 OFFCURVE",
"525 522 OFFCURVE",
"525 382 CURVE SMOOTH",
"525 149 OFFCURVE",
"465 17 OFFCURVE",
"297 17 CURVE SMOOTH",
"198 17 OFFCURVE",
"148 75 OFFCURVE",
"148 215 CURVE SMOOTH"
);
}
);
};
components = (
{
name = O;
}
);
layerId = UUID0;
paths = (
{
closed = 1;
nodes = (
"582 -86 LINE",
"553 -93 OFFCURVE",
"528 -98 OFFCURVE",
"504 -98 CURVE SMOOTH",
"455 -98 OFFCURVE",
"412 -73 OFFCURVE",
"352 14 CURVE",
"304 9 LINE",
"286 2 LINE",
"350 -106 OFFCURVE",
"404 -156 OFFCURVE",
"466 -156 CURVE SMOOTH",
"503 -156 OFFCURVE",
"543 -141 OFFCURVE",
"589 -112 CURVE"
);
}
);
width = 649;
},
{
background = {
paths = (
{
closed = 1;
nodes = (
"50 56 OFFCURVE",
"165 3 OFFCURVE",
"243 -7 CURVE",
"227 -118 OFFCURVE",
"322 -196 OFFCURVE",
"467 -196 CURVE",
"485 -166 LINE",
"386 -166 OFFCURVE",
"330 -98 OFFCURVE",
"343 -7 CURVE",
"342 -7 LINE",
"445 5 OFFCURVE",
"623 76 OFFCURVE",
"623 356 CURVE SMOOTH",
"623 575 OFFCURVE",
"466 607 OFFCURVE",
"380 607 CURVE SMOOTH",
"271 607 OFFCURVE",
"50 562 OFFCURVE",
"50 243 CURVE SMOOTH"
);
},
{
closed = 1;
nodes = (
"148 448 OFFCURVE",
"208 580 OFFCURVE",
"377 580 CURVE SMOOTH",
"476 580 OFFCURVE",
"525 522 OFFCURVE",
"525 382 CURVE SMOOTH",
"525 149 OFFCURVE",
"465 17 OFFCURVE",
"297 17 CURVE SMOOTH",
"198 17 OFFCURVE",
"148 75 OFFCURVE",
"148 215 CURVE SMOOTH"
);
}
);
};
components = (
{
name = O;
}
);
layerId = "E888B586-AF79-49A4-B375-A6F02287AAF4";
paths = (
{
closed = 1;
nodes = (
"642 -86 LINE",
"613 -93 OFFCURVE",
"588 -98 OFFCURVE",
"564 -98 CURVE SMOOTH",
"515 -98 OFFCURVE",
"472 -73 OFFCURVE",
"412 14 CURVE",
"364 9 LINE",
"306 2 LINE",
"378 -127 OFFCURVE",
"438 -186 OFFCURVE",
"506 -186 CURVE SMOOTH",
"549 -186 OFFCURVE",
"595 -162 OFFCURVE",
"649 -112 CURVE"
);
}
);
width = 686;
}
);
leftKerningGroup = O;
rightKerningGroup = O;
unicode = 0051;
},
{
color = 4;
glyphname = R;
layers = (
{
anchors = (
{
name = bottom;
position = "{251, 0}";
},
{
name = top;
position = "{334, 598}";
}
);
background = {
paths = (
{
closed = 1;
nodes = (
"18 0 LINE",
"233 0 LINE",
"237 29 LINE",
"221 29 OFFCURVE",
"204 28 OFFCURVE",
"188 27 CURVE SMOOTH",
"177 27 OFFCURVE",
"171 34 OFFCURVE",
"173 49 CURVE SMOOTH",
"206 286 LINE",
"245 286 LINE SMOOTH",
"325 286 OFFCURVE",
"398 245 OFFCURVE",
"384 137 CURVE SMOOTH",
"380 104 LINE SMOOTH",
"375 68 OFFCURVE",
"372 24 OFFCURVE",
"381 0 CURVE",
"515 0 LINE",
"519 32 LINE",
"513 28 OFFCURVE",
"505 26 OFFCURVE",
"499 26 CURVE SMOOTH",
"477 26 OFFCURVE",
"469 55 OFFCURVE",
"469 90 CURVE SMOOTH",
"469 243 OFFCURVE",
"417 296 OFFCURVE",
"365 297 CURVE",
"445 318 OFFCURVE",
"505 378 OFFCURVE",
"505 467 CURVE SMOOTH",
"505 557 OFFCURVE",
"448 597 OFFCURVE",
"320 597 CURVE SMOOTH",
"102 597 LINE",
"98 567 LINE",
"134 569 LINE SMOOTH",
"148 570 OFFCURVE",
"153 559 OFFCURVE",
"151 548 CURVE SMOOTH",
"81 49 LINE SMOOTH",
"79 34 OFFCURVE",
"72 27 OFFCURVE",
"61 27 CURVE SMOOTH",
"22 29 LINE"
);
},
{
closed = 1;
nodes = (
"210 313 LINE",
"245 559 LINE SMOOTH",
"246 566 OFFCURVE",
"250 569 OFFCURVE",
"256 569 CURVE SMOOTH",
"316 569 LINE SMOOTH",
"381 569 OFFCURVE",
"412 538 OFFCURVE",
"412 469 CURVE SMOOTH",
"412 371 OFFCURVE",
"366 313 OFFCURVE",
"299 313 CURVE SMOOTH"
);
}
);
};
layerId = UUID0;
paths = (
{
closed = 1;
nodes = (
"102 597 LINE",
"98 567 LINE",
"133 569 LINE",
"150 569 OFFCURVE",
"152 559 OFFCURVE",
"150 542 CURVE SMOOTH",
"81 49 LINE SMOOTH",
"79 34 OFFCURVE",
"72 27 OFFCURVE",
"61 27 CURVE",
"22 29 LINE",
"18 0 LINE",
"233 0 LINE",
"237 29 LINE",
"188 27 LINE",
"178 27 OFFCURVE",
"173 33 OFFCURVE",
"173 41 CURVE",
"206 286 LINE",
"252.707 286 LINE",
"318.512 283.186 OFFCURVE",
"377 249.666 OFFCURVE",
"377 161 CURVE SMOOTH",
"377 134 OFFCURVE",
"371 93 OFFCURVE",
"371 64 CURVE SMOOTH",
"371 11 OFFCURVE",
"391 -10 OFFCURVE",
"431 -10 CURVE SMOOTH",
"462 -10 OFFCURVE",
"498 2 OFFCURVE",
"518 13 CURVE",
"510 32 LINE",
"504 28 OFFCURVE",
"497 26 OFFCURVE",
"489 26 CURVE SMOOTH",
"468 26 OFFCURVE",
"460 40 OFFCURVE",
"460 69 CURVE SMOOTH",
"460 89 OFFCURVE",
"464 149 OFFCURVE",
"464 172 CURVE SMOOTH",
"464 238.789 OFFCURVE",
"434.798 286.995 OFFCURVE",
"364.74 296.64 CURVE",
"441.09 317.24 OFFCURVE",
"505 374.36 OFFCURVE",
"505 468 CURVE SMOOTH",
"505 557 OFFCURVE",
"447 597 OFFCURVE",
"320 597 CURVE SMOOTH"
);
},
{
closed = 1;
nodes = (
"383 569 OFFCURVE",
"412 538 OFFCURVE",
"412 465 CURVE SMOOTH",
"412 373 OFFCURVE",
"366 313 OFFCURVE",
"299 313 CURVE SMOOTH",
"210 313 LINE",
"245 559 LINE SMOOTH",
"246 566 OFFCURVE",
"250 569 OFFCURVE",
"256 569 CURVE SMOOTH",
"316 569 LINE SMOOTH"
);
}
);
width = 563;
},
{
anchors = (
{
name = bottom;
position = "{271, 0}";
},
{
name = top;
position = "{354, 598}";
}
);
background = {
paths = (
{
closed = 1;
nodes = (
"18 0 LINE",
"233 0 LINE",
"237 29 LINE",
"221 29 OFFCURVE",
"204 28 OFFCURVE",
"188 27 CURVE SMOOTH",
"177 27 OFFCURVE",
"171 34 OFFCURVE",
"173 49 CURVE SMOOTH",
"206 286 LINE",
"245 286 LINE SMOOTH",
"325 286 OFFCURVE",
"398 245 OFFCURVE",
"384 137 CURVE SMOOTH",
"380 104 LINE SMOOTH",
"375 68 OFFCURVE",
"372 24 OFFCURVE",
"381 0 CURVE",
"515 0 LINE",
"519 32 LINE",
"513 28 OFFCURVE",
"505 26 OFFCURVE",
"499 26 CURVE SMOOTH",
"477 26 OFFCURVE",
"469 55 OFFCURVE",
"469 90 CURVE SMOOTH",
"469 243 OFFCURVE",
"417 296 OFFCURVE",
"365 297 CURVE",
"445 318 OFFCURVE",
"505 378 OFFCURVE",
"505 467 CURVE SMOOTH",
"505 557 OFFCURVE",
"448 597 OFFCURVE",
"320 597 CURVE SMOOTH",
"102 597 LINE",
"98 567 LINE",
"134 569 LINE SMOOTH",
"148 570 OFFCURVE",
"153 559 OFFCURVE",
"151 548 CURVE SMOOTH",
"81 49 LINE SMOOTH",
"79 34 OFFCURVE",
"72 27 OFFCURVE",
"61 27 CURVE SMOOTH",
"22 29 LINE"
);
},
{
closed = 1;
nodes = (
"210 313 LINE",
"245 559 LINE SMOOTH",
"246 566 OFFCURVE",
"250 569 OFFCURVE",
"256 569 CURVE SMOOTH",
"316 569 LINE SMOOTH",
"381 569 OFFCURVE",
"412 538 OFFCURVE",
"412 469 CURVE SMOOTH",
"412 371 OFFCURVE",
"366 313 OFFCURVE",
"299 313 CURVE SMOOTH"
);
}
);
};
layerId = "E888B586-AF79-49A4-B375-A6F02287AAF4";
paths = (
{
closed = 1;
nodes = (
"89 597 LINE",
"83 557 LINE",
"115 559 LINE SMOOTH",
"131 560 OFFCURVE",
"135 549 OFFCURVE",
"134 538 CURVE",
"66 59 LINE SMOOTH",
"64 44 OFFCURVE",
"57 36 OFFCURVE",
"44 37 CURVE SMOOTH",
"10 39 LINE",
"5 0 LINE",
"280 0 LINE",
"285 39 LINE",
"236 37 LINE",
"223 37 OFFCURVE",
"217 44 OFFCURVE",
"219 59 CURVE SMOOTH",
"248 266 LINE",
"281 266 LINE",
"360 266 OFFCURVE",
"359 210 OFFCURVE",
"359 164 CURVE SMOOTH",
"359 141 OFFCURVE",
"351 88 OFFCURVE",
"351 60 CURVE SMOOTH",
"351 10 OFFCURVE",
"379 -10 OFFCURVE",
"435 -10 CURVE SMOOTH",
"479 -10 OFFCURVE",
"530 5 OFFCURVE",
"558 18 CURVE",
"550 42 LINE",
"544 38 OFFCURVE",
"537 36 OFFCURVE",
"529 36 CURVE SMOOTH",
"508 36 OFFCURVE",
"500 48 OFFCURVE",
"500 75 CURVE SMOOTH",
"500 94 OFFCURVE",
"504 147 OFFCURVE",
"504 169 CURVE SMOOTH",
"504 238 OFFCURVE",
"474 286 OFFCURVE",
"401 294 CURVE",
"493 321 OFFCURVE",
"551 382 OFFCURVE",
"551 471 CURVE SMOOTH",
"551 556 OFFCURVE",
"488 597 OFFCURVE",
"360 597 CURVE SMOOTH"
);
},
{
closed = 1;
nodes = (
"374 559 OFFCURVE",
"401 531 OFFCURVE",
"401 466 CURVE SMOOTH",
"401 369 OFFCURVE",
"358 303 OFFCURVE",
"307 303 CURVE SMOOTH",
"254 303 LINE",
"288 549 LINE SMOOTH",
"289 556 OFFCURVE",
"294 559 OFFCURVE",
"302 559 CURVE SMOOTH",
"324 559 LINE SMOOTH"
);
}
);
width = 595;
}
);
leftMetricsKey = "=H";
rightKerningGroup = R;
unicode = 0052;
},
{
color = 4;
glyphname = S;
layers = (
{
anchors = (
{
name = bottom;
position = "{227, 0}";
},
{
name = top;
position = "{297, 598}";
}
);
background = {
paths = (
{
closed = 1;
nodes = (
"44 203 LINE",
"45 199 OFFCURVE",
"45 183 OFFCURVE",
"45 172 CURVE SMOOTH",
"45 57 OFFCURVE",
"26 28 OFFCURVE",
"20 10 CURVE",
"22 11 OFFCURVE",
"49 18 OFFCURVE",
"56 18 CURVE SMOOTH",
"82 18 OFFCURVE",
"161 -10 OFFCURVE",
"228 -10 CURVE SMOOTH",
"336 -10 OFFCURVE",
"438 72 OFFCURVE",
"438 191 CURVE SMOOTH",
"438 255 OFFCURVE",
"403 297 OFFCURVE",
"322 333 CURVE SMOOTH",
"239 370 LINE SMOOTH",
"196 389 OFFCURVE",
"171 422 OFFCURVE",
"171 461 CURVE SMOOTH",
"171 534 OFFCURVE",
"225 580 OFFCURVE",
"297 580 CURVE SMOOTH",
"377 580 OFFCURVE",
"431 522 OFFCURVE",
"419 434 CURVE",
"447 434 LINE",
"446 439 OFFCURVE",
"446 448 OFFCURVE",
"446 458 CURVE SMOOTH",
"446 535 OFFCURVE",
"460 560 OFFCURVE",
"465 577 CURVE",
"454 573 OFFCURVE",
"444 572 OFFCURVE",
"434 572 CURVE SMOOTH",
"428 572 OFFCURVE",
"419 574 OFFCURVE",
"409 578 CURVE SMOOTH",
"395 583 LINE SMOOTH",
"359 596 OFFCURVE",
"333 607 OFFCURVE",
"289 607 CURVE SMOOTH",
"157 607 OFFCURVE",
"83 516 OFFCURVE",
"83 421 CURVE SMOOTH",
"83 364 OFFCURVE",
"113 321 OFFCURVE",
"172 295 CURVE SMOOTH",
"264 254 LINE SMOOTH",
"316 231 OFFCURVE",
"349 191 OFFCURVE",
"343 138 CURVE",
"331 68 OFFCURVE",
"284 18 OFFCURVE",
"221 18 CURVE SMOOTH",
"117 18 OFFCURVE",
"68 82 OFFCURVE",
"71 203 CURVE"
);
}
);
};
layerId = UUID0;
paths = (
{
closed = 1;
nodes = (
"157 607 OFFCURVE",
"83 526 OFFCURVE",
"83 441 CURVE SMOOTH",
"83 360 OFFCURVE",
"136 321 OFFCURVE",
"195 288 CURVE SMOOTH",
"244 261 LINE SMOOTH",
"297 231 OFFCURVE",
"343 197 OFFCURVE",
"343 132 CURVE SMOOTH",
"343 67 OFFCURVE",
"284 18 OFFCURVE",
"221 18 CURVE SMOOTH",
"117 18 OFFCURVE",
"68 82 OFFCURVE",
"71 203 CURVE",
"44 203 LINE",
"45 199 OFFCURVE",
"45 183 OFFCURVE",
"45 172 CURVE SMOOTH",
"45 57 OFFCURVE",
"26 28 OFFCURVE",
"20 10 CURVE",
"22 11 OFFCURVE",
"49 18 OFFCURVE",
"69 18 CURVE SMOOTH",
"84 18 OFFCURVE",
"109 10 OFFCURVE",
"139 3 CURVE SMOOTH",
"166 -4 OFFCURVE",
"196 -10 OFFCURVE",
"228 -10 CURVE SMOOTH",
"336 -10 OFFCURVE",
"438 64 OFFCURVE",
"438 176 CURVE SMOOTH",
"438 254 OFFCURVE",
"387 296 OFFCURVE",
"329 330 CURVE SMOOTH",
"267 365 LINE SMOOTH",
"214 395 OFFCURVE",
"171 426 OFFCURVE",
"171 481 CURVE SMOOTH",
"172 542 OFFCURVE",
"225 580 OFFCURVE",
"297 580 CURVE SMOOTH",
"377 580 OFFCURVE",
"431 522 OFFCURVE",
"419 434 CURVE",
"447 434 LINE",
"446 439 OFFCURVE",
"446 448 OFFCURVE",
"446 458 CURVE SMOOTH",
"446 535 OFFCURVE",
"460 560 OFFCURVE",
"465 577 CURVE",
"454 573 OFFCURVE",
"444 572 OFFCURVE",
"434 572 CURVE SMOOTH",
"428 572 OFFCURVE",
"419 574 OFFCURVE",
"409 578 CURVE SMOOTH",
"359 596 OFFCURVE",
"333 607 OFFCURVE",
"289 607 CURVE SMOOTH"
);
}
);
width = 479;
},
{
anchors = (
{
name = bottom;
position = "{236, 0}";
},
{
name = top;
position = "{317, 598}";
}
);
background = {
paths = (
{
closed = 1;
nodes = (
"44 203 LINE",
"45 199 OFFCURVE",
"45 183 OFFCURVE",
"45 172 CURVE SMOOTH",
"45 57 OFFCURVE",
"26 28 OFFCURVE",
"20 10 CURVE",
"22 11 OFFCURVE",
"49 18 OFFCURVE",
"56 18 CURVE SMOOTH",
"82 18 OFFCURVE",
"161 -10 OFFCURVE",
"228 -10 CURVE SMOOTH",
"336 -10 OFFCURVE",
"438 72 OFFCURVE",
"438 191 CURVE SMOOTH",
"438 255 OFFCURVE",
"403 297 OFFCURVE",
"322 333 CURVE SMOOTH",
"239 370 LINE SMOOTH",
"196 389 OFFCURVE",
"171 422 OFFCURVE",
"171 461 CURVE SMOOTH",
"171 534 OFFCURVE",
"225 580 OFFCURVE",
"297 580 CURVE SMOOTH",
"377 580 OFFCURVE",
"431 522 OFFCURVE",
"419 434 CURVE",
"447 434 LINE",
"446 439 OFFCURVE",
"446 448 OFFCURVE",
"446 458 CURVE SMOOTH",
"446 535 OFFCURVE",
"460 560 OFFCURVE",
"465 577 CURVE",
"454 573 OFFCURVE",
"444 572 OFFCURVE",
"434 572 CURVE SMOOTH",
"428 572 OFFCURVE",
"419 574 OFFCURVE",
"409 578 CURVE SMOOTH",
"395 583 LINE SMOOTH",
"359 596 OFFCURVE",
"333 607 OFFCURVE",
"289 607 CURVE SMOOTH",
"157 607 OFFCURVE",
"83 516 OFFCURVE",
"83 421 CURVE SMOOTH",
"83 364 OFFCURVE",
"113 321 OFFCURVE",
"172 295 CURVE SMOOTH",
"264 254 LINE SMOOTH",
"316 231 OFFCURVE",
"349 191 OFFCURVE",
"343 138 CURVE",
"331 68 OFFCURVE",
"284 18 OFFCURVE",
"221 18 CURVE SMOOTH",
"117 18 OFFCURVE",
"68 82 OFFCURVE",
"71 203 CURVE"
);
}
);
};
layerId = "E888B586-AF79-49A4-B375-A6F02287AAF4";
paths = (
{
closed = 1;
nodes = (
"154 607 OFFCURVE",
"73 521 OFFCURVE",
"73 413 CURVE SMOOTH",
"73 337 OFFCURVE",
"114 290 OFFCURVE",
"178 257 CURVE SMOOTH",
"253 218 LINE SMOOTH",
"309 189 OFFCURVE",
"339 161 OFFCURVE",
"339 119 CURVE SMOOTH",
"339 64 OFFCURVE",
"287 28 OFFCURVE",
"218 28 CURVE SMOOTH",
"132 28 OFFCURVE",
"69 84 OFFCURVE",
"72 203 CURVE",
"36 199 LINE",
"38 199 OFFCURVE",
"38 182 OFFCURVE",
"38 180 CURVE SMOOTH",
"38 114 OFFCURVE",
"24 44 OFFCURVE",
"14 13 CURVE",
"16 14 OFFCURVE",
"39 18 OFFCURVE",
"55 18 CURVE SMOOTH",
"70 18 OFFCURVE",
"89 14 OFFCURVE",
"130 3 CURVE SMOOTH",
"168 -7 OFFCURVE",
"191 -10 OFFCURVE",
"221 -10 CURVE SMOOTH",
"396 -10 OFFCURVE",
"477 86 OFFCURVE",
"477 193 CURVE SMOOTH",
"477 271 OFFCURVE",
"433 306 OFFCURVE",
"348 353 CURVE SMOOTH",
"287 387 LINE SMOOTH",
"231 418 OFFCURVE",
"203 443 OFFCURVE",
"203 485 CURVE SMOOTH",
"203 546 OFFCURVE",
"263 570 OFFCURVE",
"320 570 CURVE SMOOTH",
"408 570 OFFCURVE",
"460 512 OFFCURVE",
"449 434 CURVE",
"485 434 LINE",
"484 440 OFFCURVE",
"483 449 OFFCURVE",
"483 459 CURVE SMOOTH",
"483 497 OFFCURVE",
"498 560 OFFCURVE",
"502 576 CURVE",
"494 573 OFFCURVE",
"482 572 OFFCURVE",
"473 572 CURVE SMOOTH",
"462 572 OFFCURVE",
"455 574 OFFCURVE",
"444 578 CURVE SMOOTH",
"394 595 OFFCURVE",
"366 607 OFFCURVE",
"308 607 CURVE SMOOTH"
);
}
);
width = 502;
}
);
unicode = 0053;
},
{
color = 4;
glyphname = Scaron;
layers = (
{
background = {
paths = (
{
closed = 1;
nodes = (
"44 203 LINE",
"45 199 OFFCURVE",
"45 182 OFFCURVE",
"45 170 CURVE SMOOTH",
"45 57 OFFCURVE",
"27 28 OFFCURVE",
"20 10 CURVE",
"22 11 OFFCURVE",
"49 18 OFFCURVE",
"56 18 CURVE SMOOTH",
"86 18 OFFCURVE",
"164 -10 OFFCURVE",
"228 -10 CURVE SMOOTH",
"336 -10 OFFCURVE",
"439 72 OFFCURVE",
"439 191 CURVE SMOOTH",
"439 255 OFFCURVE",
"404 297 OFFCURVE",
"323 333 CURVE SMOOTH",
"239 370 LINE SMOOTH",
"196 389 OFFCURVE",
"171 422 OFFCURVE",
"171 461 CURVE SMOOTH",
"171 534 OFFCURVE",
"226 580 OFFCURVE",
"297 580 CURVE SMOOTH",
"378 580 OFFCURVE",
"432 522 OFFCURVE",
"420 434 CURVE",
"448 434 LINE",
"446 440 OFFCURVE",
"446 449 OFFCURVE",
"446 460 CURVE SMOOTH",
"446 535 OFFCURVE",
"460 560 OFFCURVE",
"465 577 CURVE",
"455 573 OFFCURVE",
"445 572 OFFCURVE",
"435 572 CURVE SMOOTH",
"428 572 OFFCURVE",
"420 574 OFFCURVE",
"410 578 CURVE SMOOTH",
"397 583 LINE SMOOTH",
"360 597 OFFCURVE",
"334 607 OFFCURVE",
"289 607 CURVE SMOOTH",
"156 607 OFFCURVE",
"84 516 OFFCURVE",
"84 422 CURVE SMOOTH",
"84 365 OFFCURVE",
"114 321 OFFCURVE",
"172 295 CURVE SMOOTH",
"264 254 LINE SMOOTH",
"311 233 OFFCURVE",
"344 196 OFFCURVE",
"344 150 CURVE SMOOTH",
"344 78 OFFCURVE",
"292 18 OFFCURVE",
"221 18 CURVE SMOOTH",
"117 18 OFFCURVE",
"68 82 OFFCURVE",
"71 203 CURVE"
);
},
{
closed = 1;
nodes = (
"171 809 OFFCURVE",
"202 785 OFFCURVE",
"238 741 CURVE SMOOTH",
"277 693 LINE SMOOTH",
"290 678 OFFCURVE",
"299 668 OFFCURVE",
"303 668 CURVE SMOOTH",
"306 668 OFFCURVE",
"320 677 OFFCURVE",
"337 693 CURVE SMOOTH",
"388 741 LINE SMOOTH",
"435 785 OFFCURVE",
"476 809 OFFCURVE",
"476 817 CURVE SMOOTH",
"476 820 OFFCURVE",
"475 824 OFFCURVE",
"467 824 CURVE SMOOTH",
"460 824 OFFCURVE",
"447 817 OFFCURVE",
"438 812 CURVE SMOOTH",
"314 739 LINE",
"209 812 LINE SMOOTH",
"202 817 OFFCURVE",
"190 824 OFFCURVE",
"183 824 CURVE SMOOTH",
"174 824 OFFCURVE",
"171 819 OFFCURVE",
"171 816 CURVE SMOOTH"
);
}
);
};
components = (
{
name = S;
},
{
name = caron.case;
transform = "{1, 0, 0, 1, 58, 0}";
}
);
layerId = UUID0;
width = 479;
},
{
background = {
paths = (
{
closed = 1;
nodes = (
"44 203 LINE",
"45 199 OFFCURVE",
"45 182 OFFCURVE",
"45 170 CURVE SMOOTH",
"45 57 OFFCURVE",
"27 28 OFFCURVE",
"20 10 CURVE",
"22 11 OFFCURVE",
"49 18 OFFCURVE",
"56 18 CURVE SMOOTH",
"86 18 OFFCURVE",
"164 -10 OFFCURVE",
"228 -10 CURVE SMOOTH",
"336 -10 OFFCURVE",
"439 72 OFFCURVE",
"439 191 CURVE SMOOTH",
"439 255 OFFCURVE",
"404 297 OFFCURVE",
"323 333 CURVE SMOOTH",
"239 370 LINE SMOOTH",
"196 389 OFFCURVE",
"171 422 OFFCURVE",
"171 461 CURVE SMOOTH",
"171 534 OFFCURVE",
"226 580 OFFCURVE",
"297 580 CURVE SMOOTH",
"378 580 OFFCURVE",
"432 522 OFFCURVE",
"420 434 CURVE",
"448 434 LINE",
"446 440 OFFCURVE",
"446 449 OFFCURVE",
"446 460 CURVE SMOOTH",
"446 535 OFFCURVE",
"460 560 OFFCURVE",
"465 577 CURVE",
"455 573 OFFCURVE",
"445 572 OFFCURVE",
"435 572 CURVE SMOOTH",
"428 572 OFFCURVE",
"420 574 OFFCURVE",
"410 578 CURVE SMOOTH",
"397 583 LINE SMOOTH",
"360 597 OFFCURVE",
"334 607 OFFCURVE",
"289 607 CURVE SMOOTH",
"156 607 OFFCURVE",
"84 516 OFFCURVE",
"84 422 CURVE SMOOTH",
"84 365 OFFCURVE",
"114 321 OFFCURVE",
"172 295 CURVE SMOOTH",
"264 254 LINE SMOOTH",
"311 233 OFFCURVE",
"344 196 OFFCURVE",
"344 150 CURVE SMOOTH",
"344 78 OFFCURVE",
"292 18 OFFCURVE",
"221 18 CURVE SMOOTH",
"117 18 OFFCURVE",
"68 82 OFFCURVE",
"71 203 CURVE"
);
},
{
closed = 1;
nodes = (
"171 809 OFFCURVE",
"202 785 OFFCURVE",
"238 741 CURVE SMOOTH",
"277 693 LINE SMOOTH",
"290 678 OFFCURVE",
"299 668 OFFCURVE",
"303 668 CURVE SMOOTH",
"306 668 OFFCURVE",
"320 677 OFFCURVE",
"337 693 CURVE SMOOTH",
"388 741 LINE SMOOTH",
"435 785 OFFCURVE",
"476 809 OFFCURVE",
"476 817 CURVE SMOOTH",
"476 820 OFFCURVE",
"475 824 OFFCURVE",
"467 824 CURVE SMOOTH",
"460 824 OFFCURVE",
"447 817 OFFCURVE",
"438 812 CURVE SMOOTH",
"314 739 LINE",
"209 812 LINE SMOOTH",
"202 817 OFFCURVE",
"190 824 OFFCURVE",
"183 824 CURVE SMOOTH",
"174 824 OFFCURVE",
"171 819 OFFCURVE",
"171 816 CURVE SMOOTH"
);
}
);
};
components = (
{
name = S;
},
{
name = caron.case;
transform = "{1, 0, 0, 1, 78, 0}";
}
);
layerId = "E888B586-AF79-49A4-B375-A6F02287AAF4";
width = 502;
}
);
unicode = 0160;
},
{
color = 4;
glyphname = T;
layers = (
{
anchors = (
{
name = bottom;
position = "{226, 0}";
},
{
name = center;
position = "{265, 299}";
},
{
name = top;
position = "{305, 598}";
}
);
layerId = UUID0;
paths = (
{
closed = 1;
nodes = (
"548 598 OFFCURVE",
"534 597 OFFCURVE",
"512 597 CURVE SMOOTH",
"108 597 LINE SMOOTH",
"90 597 OFFCURVE",
"76 598 OFFCURVE",
"68 599 CURVE",
"46 443 LINE",
"74 443 LINE",
"86 528 OFFCURVE",
"125 569 OFFCURVE",
"210 569 CURVE SMOOTH",
"250 569 LINE SMOOTH",
"256 569 OFFCURVE",
"259 565 OFFCURVE",
"258 557 CURVE SMOOTH",
"187 52 LINE SMOOTH",
"185 39 OFFCURVE",
"178 27 OFFCURVE",
"167 27 CURVE SMOOTH",
"113 29 LINE",
"109 0 LINE",
"343 0 LINE",
"347 29 LINE",
"294 27 LINE",
"283 27 OFFCURVE",
"278 34 OFFCURVE",
"280 49 CURVE SMOOTH",
"351 558 LINE SMOOTH",
"352 564 OFFCURVE",
"357 569 OFFCURVE",
"363 569 CURVE SMOOTH",
"403 569 LINE SMOOTH",
"488 569 OFFCURVE",
"514 528 OFFCURVE",
"502 443 CURVE",
"530 443 LINE",
"552 600 LINE"
);
}
);
width = 512;
},
{
anchors = (
{
name = bottom;
position = "{238, 0}";
},
{
name = center;
position = "{277, 299}";
},
{
name = top;
position = "{317, 598}";
}
);
layerId = "E888B586-AF79-49A4-B375-A6F02287AAF4";
paths = (
{
closed = 1;
nodes = (
"583 599 OFFCURVE",
"567 598 OFFCURVE",
"538 598 CURVE SMOOTH",
"119 598 LINE SMOOTH",
"95 598 OFFCURVE",
"78 599 OFFCURVE",
"69 600 CURVE",
"47 444 LINE",
"83 444 LINE",
"94 522 OFFCURVE",
"135 560 OFFCURVE",
"224 560 CURVE SMOOTH",
"235 560 LINE SMOOTH",
"243 560 OFFCURVE",
"246 556 OFFCURVE",
"245 548 CURVE SMOOTH",
"177 62 LINE SMOOTH",
"175 49 OFFCURVE",
"166 37 OFFCURVE",
"154 37 CURVE",
"100 39 LINE",
"95 0 LINE",
"394 0 LINE",
"399 39 LINE",
"346 37 LINE",
"333 37 OFFCURVE",
"327 44 OFFCURVE",
"329 59 CURVE SMOOTH",
"398 549 LINE",
"400 556 OFFCURVE",
"405 560 OFFCURVE",
"412 560 CURVE SMOOTH",
"424 560 LINE SMOOTH",
"513 560 OFFCURVE",
"541 522 OFFCURVE",
"530 444 CURVE",
"566 444 LINE",
"588 600 LINE"
);
}
);
width = 549;
}
);
leftKerningGroup = T;
rightKerningGroup = T;
unicode = 0054;
},
{
color = 4;
glyphname = U;
layers = (
{
anchors = (
{
name = ogonek;
position = "{432, 14}";
},
{
name = top;
position = "{378, 598}";
}
);
layerId = UUID0;
paths = (
{
closed = 1;
nodes = (
"503 597 LINE",
"499 567 LINE",
"548 569 LINE SMOOTH",
"558 569 OFFCURVE",
"563 561 OFFCURVE",
"561 548 CURVE SMOOTH",
"512 198 LINE SMOOTH",
"495 82 OFFCURVE",
"438 26 OFFCURVE",
"324 26 CURVE SMOOTH",
"217 26 OFFCURVE",
"164 92 OFFCURVE",
"180 199 CURVE SMOOTH",
"229 549 LINE SMOOTH",
"231 562 OFFCURVE",
"239 569 OFFCURVE",
"250 569 CURVE SMOOTH",
"299 567 LINE",
"303 597 LINE",
"88 597 LINE",
"84 567 LINE",
"123 569 LINE SMOOTH",
"132 569 OFFCURVE",
"138 560 OFFCURVE",
"136 548 CURVE SMOOTH",
"87 199 LINE SMOOTH",
"68 62 OFFCURVE",
"147 -10 OFFCURVE",
"303 -10 CURVE SMOOTH",
"448 -10 OFFCURVE",
"529 54 OFFCURVE",
"548 189 CURVE SMOOTH",
"599 549 LINE SMOOTH",
"601 562 OFFCURVE",
"608 569 OFFCURVE",
"618 569 CURVE SMOOTH",
"657 567 LINE",
"661 597 LINE"
);
}
);
width = 631;
},
{
anchors = (
{
name = ogonek;
position = "{455, 14}";
},
{
name = top;
position = "{408, 598}";
}
);
layerId = "E888B586-AF79-49A4-B375-A6F02287AAF4";
paths = (
{
closed = 1;
nodes = (
"519 597 LINE",
"513 557 LINE",
"563 559 LINE",
"574 560 OFFCURVE",
"579 551 OFFCURVE",
"578 538 CURVE",
"531 204 LINE SMOOTH",
"517 105 OFFCURVE",
"476 34 OFFCURVE",
"366 34 CURVE SMOOTH",
"274 34 OFFCURVE",
"227 82 OFFCURVE",
"243 199 CURVE SMOOTH",
"291 539 LINE",
"292 551 OFFCURVE",
"302 560 OFFCURVE",
"314 559 CURVE",
"362 557 LINE",
"368 597 LINE",
"89 597 LINE",
"83 557 LINE",
"122 559 LINE",
"133 560 OFFCURVE",
"139 549 OFFCURVE",
"138 538 CURVE",
"90 199 LINE SMOOTH",
"69 52 OFFCURVE",
"156 -10 OFFCURVE",
"332 -10 CURVE SMOOTH",
"489 -10 OFFCURVE",
"557 73 OFFCURVE",
"576 208 CURVE SMOOTH",
"623 539 LINE",
"624 551 OFFCURVE",
"634 560 OFFCURVE",
"646 559 CURVE SMOOTH",
"684 557 LINE",
"690 597 LINE"
);
}
);
width = 661;
}
);
leftKerningGroup = U;
rightKerningGroup = U;
unicode = 0055;
},
{
color = 4;
glyphname = Uacute;
layers = (
{
background = {
paths = (
{
closed = 1;
nodes = (
"84 567 LINE",
"123 569 LINE SMOOTH",
"132 569 OFFCURVE",
"138 560 OFFCURVE",
"136 548 CURVE SMOOTH",
"87 199 LINE SMOOTH",
"68 62 OFFCURVE",
"147 -10 OFFCURVE",
"303 -10 CURVE SMOOTH",
"429 -10 OFFCURVE",
"532 74 OFFCURVE",
"548 189 CURVE SMOOTH",
"599 549 LINE SMOOTH",
"601 562 OFFCURVE",
"609 569 OFFCURVE",
"619 569 CURVE SMOOTH",
"658 567 LINE",
"662 597 LINE",
"504 597 LINE",
"500 567 LINE",
"549 569 LINE SMOOTH",
"558 569 OFFCURVE",
"564 561 OFFCURVE",
"562 548 CURVE SMOOTH",
"513 198 LINE SMOOTH",
"499 97 OFFCURVE",
"419 21 OFFCURVE",
"325 21 CURVE SMOOTH",
"217 21 OFFCURVE",
"164 87 OFFCURVE",
"180 199 CURVE SMOOTH",
"229 549 LINE SMOOTH",
"231 562 OFFCURVE",
"239 569 OFFCURVE",
"250 569 CURVE SMOOTH",
"299 567 LINE",
"303 597 LINE",
"88 597 LINE"
);
},
{
closed = 1;
nodes = (
"545 808 OFFCURVE",
"515 826 OFFCURVE",
"491 826 CURVE SMOOTH",
"481 826 OFFCURVE",
"468 817 OFFCURVE",
"452 801 CURVE SMOOTH",
"345 697 LINE SMOOTH",
"335 687 OFFCURVE",
"325 677 OFFCURVE",
"325 673 CURVE SMOOTH",
"325 669 OFFCURVE",
"329 666 OFFCURVE",
"338 666 CURVE SMOOTH",
"345 666 OFFCURVE",
"355 672 OFFCURVE",
"359 675 CURVE SMOOTH",
"534 788 LINE SMOOTH",
"539 791 OFFCURVE",
"545 795 OFFCURVE",
"545 800 CURVE SMOOTH"
);
}
);
};
components = (
{
name = U;
},
{
name = acute.case;
transform = "{1, 0, 0, 1, 222, 0}";
}
);
layerId = UUID0;
width = 631;
},
{
background = {
paths = (
{
closed = 1;
nodes = (
"84 567 LINE",
"123 569 LINE SMOOTH",
"132 569 OFFCURVE",
"138 560 OFFCURVE",
"136 548 CURVE SMOOTH",
"87 199 LINE SMOOTH",
"68 62 OFFCURVE",
"147 -10 OFFCURVE",
"303 -10 CURVE SMOOTH",
"429 -10 OFFCURVE",
"532 74 OFFCURVE",
"548 189 CURVE SMOOTH",
"599 549 LINE SMOOTH",
"601 562 OFFCURVE",
"609 569 OFFCURVE",
"619 569 CURVE SMOOTH",
"658 567 LINE",
"662 597 LINE",
"504 597 LINE",
"500 567 LINE",
"549 569 LINE SMOOTH",
"558 569 OFFCURVE",
"564 561 OFFCURVE",
"562 548 CURVE SMOOTH",
"513 198 LINE SMOOTH",
"499 97 OFFCURVE",
"419 21 OFFCURVE",
"325 21 CURVE SMOOTH",
"217 21 OFFCURVE",
"164 87 OFFCURVE",
"180 199 CURVE SMOOTH",
"229 549 LINE SMOOTH",
"231 562 OFFCURVE",
"239 569 OFFCURVE",
"250 569 CURVE SMOOTH",
"299 567 LINE",
"303 597 LINE",
"88 597 LINE"
);
},
{
closed = 1;
nodes = (
"545 808 OFFCURVE",
"515 826 OFFCURVE",
"491 826 CURVE SMOOTH",
"481 826 OFFCURVE",
"468 817 OFFCURVE",
"452 801 CURVE SMOOTH",
"345 697 LINE SMOOTH",
"335 687 OFFCURVE",
"325 677 OFFCURVE",
"325 673 CURVE SMOOTH",
"325 669 OFFCURVE",
"329 666 OFFCURVE",
"338 666 CURVE SMOOTH",
"345 666 OFFCURVE",
"355 672 OFFCURVE",
"359 675 CURVE SMOOTH",
"534 788 LINE SMOOTH",
"539 791 OFFCURVE",
"545 795 OFFCURVE",
"545 800 CURVE SMOOTH"
);
}
);
};
components = (
{
name = U;
},
{
name = acute.case;
transform = "{1, 0, 0, 1, 252, 0}";
}
);
layerId = "E888B586-AF79-49A4-B375-A6F02287AAF4";
width = 661;
}
);
leftKerningGroup = U;
rightKerningGroup = U;
unicode = 00DA;
},
{
color = 4;
glyphname = Ucircumflex;
layers = (
{
background = {
paths = (
{
closed = 1;
nodes = (
"84 567 LINE",
"123 569 LINE SMOOTH",
"132 569 OFFCURVE",
"138 560 OFFCURVE",
"136 548 CURVE SMOOTH",
"87 199 LINE SMOOTH",
"68 62 OFFCURVE",
"147 -10 OFFCURVE",
"303 -10 CURVE SMOOTH",
"429 -10 OFFCURVE",
"532 74 OFFCURVE",
"548 189 CURVE SMOOTH",
"599 549 LINE SMOOTH",
"601 562 OFFCURVE",
"609 569 OFFCURVE",
"619 569 CURVE SMOOTH",
"658 567 LINE",
"662 597 LINE",
"504 597 LINE",
"500 567 LINE",
"549 569 LINE SMOOTH",
"558 569 OFFCURVE",
"564 561 OFFCURVE",
"562 548 CURVE SMOOTH",
"513 198 LINE SMOOTH",
"499 97 OFFCURVE",
"419 21 OFFCURVE",
"325 21 CURVE SMOOTH",
"217 21 OFFCURVE",
"164 87 OFFCURVE",
"180 199 CURVE SMOOTH",
"229 549 LINE SMOOTH",
"231 562 OFFCURVE",
"239 569 OFFCURVE",
"250 569 CURVE SMOOTH",
"299 567 LINE",
"303 597 LINE",
"88 597 LINE"
);
},
{
closed = 1;
nodes = (
"239 670 OFFCURVE",
"241 666 OFFCURVE",
"249 666 CURVE SMOOTH",
"256 666 OFFCURVE",
"270 673 OFFCURVE",
"278 678 CURVE SMOOTH",
"403 752 LINE",
"507 678 LINE SMOOTH",
"514 673 OFFCURVE",
"526 666 OFFCURVE",
"533 666 CURVE SMOOTH",
"542 666 OFFCURVE",
"544 671 OFFCURVE",
"544 674 CURVE SMOOTH",
"544 682 OFFCURVE",
"513 706 OFFCURVE",
"478 749 CURVE SMOOTH",
"439 797 LINE SMOOTH",
"426 812 OFFCURVE",
"416 822 OFFCURVE",
"413 822 CURVE SMOOTH",
"409 822 OFFCURVE",
"396 812 OFFCURVE",
"380 797 CURVE SMOOTH",
"327 749 LINE SMOOTH",
"277 705 OFFCURVE",
"239 681 OFFCURVE",
"239 673 CURVE SMOOTH"
);
}
);
};
components = (
{
name = U;
},
{
name = circumflex.case;
transform = "{1, 0, 0, 1, 139, 0}";
}
);
layerId = UUID0;
width = 631;
},
{
background = {
paths = (
{
closed = 1;
nodes = (
"84 567 LINE",
"123 569 LINE SMOOTH",
"132 569 OFFCURVE",
"138 560 OFFCURVE",
"136 548 CURVE SMOOTH",
"87 199 LINE SMOOTH",
"68 62 OFFCURVE",
"147 -10 OFFCURVE",
"303 -10 CURVE SMOOTH",
"429 -10 OFFCURVE",
"532 74 OFFCURVE",
"548 189 CURVE SMOOTH",
"599 549 LINE SMOOTH",
"601 562 OFFCURVE",
"609 569 OFFCURVE",
"619 569 CURVE SMOOTH",
"658 567 LINE",
"662 597 LINE",
"504 597 LINE",
"500 567 LINE",
"549 569 LINE SMOOTH",
"558 569 OFFCURVE",
"564 561 OFFCURVE",
"562 548 CURVE SMOOTH",
"513 198 LINE SMOOTH",
"499 97 OFFCURVE",
"419 21 OFFCURVE",
"325 21 CURVE SMOOTH",
"217 21 OFFCURVE",
"164 87 OFFCURVE",
"180 199 CURVE SMOOTH",
"229 549 LINE SMOOTH",
"231 562 OFFCURVE",
"239 569 OFFCURVE",
"250 569 CURVE SMOOTH",
"299 567 LINE",
"303 597 LINE",
"88 597 LINE"
);
},
{
closed = 1;
nodes = (
"239 670 OFFCURVE",
"241 666 OFFCURVE",
"249 666 CURVE SMOOTH",
"256 666 OFFCURVE",
"270 673 OFFCURVE",
"278 678 CURVE SMOOTH",
"403 752 LINE",
"507 678 LINE SMOOTH",
"514 673 OFFCURVE",
"526 666 OFFCURVE",
"533 666 CURVE SMOOTH",
"542 666 OFFCURVE",
"544 671 OFFCURVE",
"544 674 CURVE SMOOTH",
"544 682 OFFCURVE",
"513 706 OFFCURVE",
"478 749 CURVE SMOOTH",
"439 797 LINE SMOOTH",
"426 812 OFFCURVE",
"416 822 OFFCURVE",
"413 822 CURVE SMOOTH",
"409 822 OFFCURVE",
"396 812 OFFCURVE",
"380 797 CURVE SMOOTH",
"327 749 LINE SMOOTH",
"277 705 OFFCURVE",
"239 681 OFFCURVE",
"239 673 CURVE SMOOTH"
);
}
);
};
components = (
{
name = U;
},
{
name = circumflex.case;
transform = "{1, 0, 0, 1, 169, 0}";
}
);
layerId = "E888B586-AF79-49A4-B375-A6F02287AAF4";
width = 661;
}
);
leftKerningGroup = U;
rightKerningGroup = U;
unicode = 00DB;
},
{
color = 4;
glyphname = Udieresis;
layers = (
{
background = {
paths = (
{
closed = 1;
nodes = (
"84 567 LINE",
"123 569 LINE SMOOTH",
"132 569 OFFCURVE",
"138 560 OFFCURVE",
"136 548 CURVE SMOOTH",
"87 199 LINE SMOOTH",
"68 62 OFFCURVE",
"147 -10 OFFCURVE",
"303 -10 CURVE SMOOTH",
"429 -10 OFFCURVE",
"532 74 OFFCURVE",
"548 189 CURVE SMOOTH",
"599 549 LINE SMOOTH",
"601 562 OFFCURVE",
"608 569 OFFCURVE",
"619 569 CURVE SMOOTH",
"658 567 LINE",
"662 597 LINE",
"504 597 LINE",
"500 567 LINE",
"549 569 LINE SMOOTH",
"558 569 OFFCURVE",
"564 561 OFFCURVE",
"562 548 CURVE SMOOTH",
"513 198 LINE SMOOTH",
"499 97 OFFCURVE",
"419 21 OFFCURVE",
"325 21 CURVE SMOOTH",
"217 21 OFFCURVE",
"164 87 OFFCURVE",
"180 199 CURVE SMOOTH",
"229 549 LINE SMOOTH",
"231 562 OFFCURVE",
"239 569 OFFCURVE",
"250 569 CURVE SMOOTH",
"299 567 LINE",
"303 597 LINE",
"88 597 LINE"
);
},
{
closed = 1;
nodes = (
"439 693 OFFCURVE",
"458 676 OFFCURVE",
"485 676 CURVE SMOOTH",
"519 676 OFFCURVE",
"546 698 OFFCURVE",
"546 729 CURVE SMOOTH",
"546 754 OFFCURVE",
"526 773 OFFCURVE",
"499 773 CURVE SMOOTH",
"466 773 OFFCURVE",
"439 749 OFFCURVE",
"439 718 CURVE SMOOTH"
);
},
{
closed = 1;
nodes = (
"250 693 OFFCURVE",
"269 676 OFFCURVE",
"297 676 CURVE SMOOTH",
"331 676 OFFCURVE",
"358 698 OFFCURVE",
"358 729 CURVE SMOOTH",
"358 754 OFFCURVE",
"338 773 OFFCURVE",
"311 773 CURVE SMOOTH",
"277 773 OFFCURVE",
"250 749 OFFCURVE",
"250 718 CURVE SMOOTH"
);
}
);
};
components = (
{
name = U;
},
{
name = dieresis.case;
transform = "{1, 0, 0, 1, 182, 0}";
}
);
layerId = UUID0;
width = 631;
},
{
background = {
paths = (
{
closed = 1;
nodes = (
"84 567 LINE",
"123 569 LINE SMOOTH",
"132 569 OFFCURVE",
"138 560 OFFCURVE",
"136 548 CURVE SMOOTH",
"87 199 LINE SMOOTH",
"68 62 OFFCURVE",
"147 -10 OFFCURVE",
"303 -10 CURVE SMOOTH",
"429 -10 OFFCURVE",
"532 74 OFFCURVE",
"548 189 CURVE SMOOTH",
"599 549 LINE SMOOTH",
"601 562 OFFCURVE",
"608 569 OFFCURVE",
"619 569 CURVE SMOOTH",
"658 567 LINE",
"662 597 LINE",
"504 597 LINE",
"500 567 LINE",
"549 569 LINE SMOOTH",
"558 569 OFFCURVE",
"564 561 OFFCURVE",
"562 548 CURVE SMOOTH",
"513 198 LINE SMOOTH",
"499 97 OFFCURVE",
"419 21 OFFCURVE",
"325 21 CURVE SMOOTH",
"217 21 OFFCURVE",
"164 87 OFFCURVE",
"180 199 CURVE SMOOTH",
"229 549 LINE SMOOTH",
"231 562 OFFCURVE",
"239 569 OFFCURVE",
"250 569 CURVE SMOOTH",
"299 567 LINE",
"303 597 LINE",
"88 597 LINE"
);
},
{
closed = 1;
nodes = (
"439 693 OFFCURVE",
"458 676 OFFCURVE",
"485 676 CURVE SMOOTH",
"519 676 OFFCURVE",
"546 698 OFFCURVE",
"546 729 CURVE SMOOTH",
"546 754 OFFCURVE",
"526 773 OFFCURVE",
"499 773 CURVE SMOOTH",
"466 773 OFFCURVE",
"439 749 OFFCURVE",
"439 718 CURVE SMOOTH"
);
},
{
closed = 1;
nodes = (
"250 693 OFFCURVE",
"269 676 OFFCURVE",
"297 676 CURVE SMOOTH",
"331 676 OFFCURVE",
"358 698 OFFCURVE",
"358 729 CURVE SMOOTH",
"358 754 OFFCURVE",
"338 773 OFFCURVE",
"311 773 CURVE SMOOTH",
"277 773 OFFCURVE",
"250 749 OFFCURVE",
"250 718 CURVE SMOOTH"
);
}
);
};
components = (
{
name = U;
},
{
name = dieresis.case;
transform = "{1, 0, 0, 1, 212, 0}";
}
);
layerId = "E888B586-AF79-49A4-B375-A6F02287AAF4";
width = 661;
}
);
leftKerningGroup = U;
rightKerningGroup = U;
unicode = 00DC;
},
{
color = 4;
glyphname = Ugrave;
layers = (
{
background = {
paths = (
{
closed = 1;
nodes = (
"84 567 LINE",
"123 569 LINE SMOOTH",
"132 569 OFFCURVE",
"138 560 OFFCURVE",
"136 548 CURVE SMOOTH",
"87 199 LINE SMOOTH",
"68 62 OFFCURVE",
"147 -10 OFFCURVE",
"303 -10 CURVE SMOOTH",
"429 -10 OFFCURVE",
"532 74 OFFCURVE",
"548 189 CURVE SMOOTH",
"599 549 LINE SMOOTH",
"601 562 OFFCURVE",
"609 569 OFFCURVE",
"619 569 CURVE SMOOTH",
"658 567 LINE",
"662 597 LINE",
"504 597 LINE",
"500 567 LINE",
"549 569 LINE SMOOTH",
"558 569 OFFCURVE",
"564 561 OFFCURVE",
"562 548 CURVE SMOOTH",
"513 198 LINE SMOOTH",
"499 97 OFFCURVE",
"419 21 OFFCURVE",
"325 21 CURVE SMOOTH",
"217 21 OFFCURVE",
"164 87 OFFCURVE",
"180 199 CURVE SMOOTH",
"229 549 LINE SMOOTH",
"231 562 OFFCURVE",
"239 569 OFFCURVE",
"250 569 CURVE SMOOTH",
"299 567 LINE",
"303 597 LINE",
"88 597 LINE"
);
},
{
closed = 1;
nodes = (
"276 794 OFFCURVE",
"279 791 OFFCURVE",
"282 788 CURVE SMOOTH",
"426 675 LINE SMOOTH",
"429 673 OFFCURVE",
"437 666 OFFCURVE",
"445 666 CURVE SMOOTH",
"455 666 OFFCURVE",
"460 669 OFFCURVE",
"460 674 CURVE SMOOTH",
"460 677 OFFCURVE",
"455 684 OFFCURVE",
"450 691 CURVE SMOOTH",
"368 801 LINE SMOOTH",
"356 817 OFFCURVE",
"346 826 OFFCURVE",
"335 826 CURVE SMOOTH",
"312 826 OFFCURVE",
"276 808 OFFCURVE",
"276 799 CURVE SMOOTH"
);
}
);
};
components = (
{
name = U;
},
{
name = grave.case;
transform = "{1, 0, 0, 1, 154, 0}";
}
);
layerId = UUID0;
width = 631;
},
{
background = {
paths = (
{
closed = 1;
nodes = (
"84 567 LINE",
"123 569 LINE SMOOTH",
"132 569 OFFCURVE",
"138 560 OFFCURVE",
"136 548 CURVE SMOOTH",
"87 199 LINE SMOOTH",
"68 62 OFFCURVE",
"147 -10 OFFCURVE",
"303 -10 CURVE SMOOTH",
"429 -10 OFFCURVE",
"532 74 OFFCURVE",
"548 189 CURVE SMOOTH",
"599 549 LINE SMOOTH",
"601 562 OFFCURVE",
"609 569 OFFCURVE",
"619 569 CURVE SMOOTH",
"658 567 LINE",
"662 597 LINE",
"504 597 LINE",
"500 567 LINE",
"549 569 LINE SMOOTH",
"558 569 OFFCURVE",
"564 561 OFFCURVE",
"562 548 CURVE SMOOTH",
"513 198 LINE SMOOTH",
"499 97 OFFCURVE",
"419 21 OFFCURVE",
"325 21 CURVE SMOOTH",
"217 21 OFFCURVE",
"164 87 OFFCURVE",
"180 199 CURVE SMOOTH",
"229 549 LINE SMOOTH",
"231 562 OFFCURVE",
"239 569 OFFCURVE",
"250 569 CURVE SMOOTH",
"299 567 LINE",
"303 597 LINE",
"88 597 LINE"
);
},
{
closed = 1;
nodes = (
"276 794 OFFCURVE",
"279 791 OFFCURVE",
"282 788 CURVE SMOOTH",
"426 675 LINE SMOOTH",
"429 673 OFFCURVE",
"437 666 OFFCURVE",
"445 666 CURVE SMOOTH",
"455 666 OFFCURVE",
"460 669 OFFCURVE",
"460 674 CURVE SMOOTH",
"460 677 OFFCURVE",
"455 684 OFFCURVE",
"450 691 CURVE SMOOTH",
"368 801 LINE SMOOTH",
"356 817 OFFCURVE",
"346 826 OFFCURVE",
"335 826 CURVE SMOOTH",
"312 826 OFFCURVE",
"276 808 OFFCURVE",
"276 799 CURVE SMOOTH"
);
}
);
};
components = (
{
name = U;
},
{
name = grave.case;
transform = "{1, 0, 0, 1, 184, 0}";
}
);
layerId = "E888B586-AF79-49A4-B375-A6F02287AAF4";
width = 661;
}
);
leftKerningGroup = U;
rightKerningGroup = U;
unicode = 00D9;
},
{
color = 4;
glyphname = V;
layers = (
{
layerId = UUID0;
paths = (
{
closed = 1;
nodes = (
"485 597 LINE",
"481 567 LINE",
"532 569 LINE",
"545 569 OFFCURVE",
"541 555 OFFCURVE",
"536 546 CURVE SMOOTH",
"299 112 LINE",
"317 112 LINE",
"192 545 LINE SMOOTH",
"188 558 OFFCURVE",
"192 569 OFFCURVE",
"202 569 CURVE SMOOTH",
"255 567 LINE",
"259 597 LINE",
"49 597 LINE",
"45 567 LINE",
"73 569 LINE SMOOTH",
"80 569 OFFCURVE",
"87 561 OFFCURVE",
"91 546 CURVE SMOOTH",
"246 -4 LINE",
"275 -4 LINE",
"577 546 LINE SMOOTH",
"585 561 OFFCURVE",
"590 569 OFFCURVE",
"599 569 CURVE SMOOTH",
"635 567 LINE",
"639 597 LINE"
);
}
);
width = 564;
},
{
layerId = "E888B586-AF79-49A4-B375-A6F02287AAF4";
paths = (
{
closed = 1;
nodes = (
"526 597 LINE",
"520 557 LINE",
"568 559 LINE SMOOTH",
"583 560 OFFCURVE",
"582 549 OFFCURVE",
"568 524 CURVE SMOOTH",
"340 127 LINE",
"376 127 LINE",
"255 535 LINE",
"253 546 OFFCURVE",
"259 559 OFFCURVE",
"268 559 CURVE",
"316 557 LINE",
"322 597 LINE",
"53 597 LINE",
"47 557 LINE",
"76 559 LINE",
"85 559 OFFCURVE",
"90 551 OFFCURVE",
"95 536 CURVE",
"252 -4 LINE",
"313 -4 LINE",
"623 536 LINE",
"633 552 OFFCURVE",
"637 560 OFFCURVE",
"648 559 CURVE SMOOTH",
"683 557 LINE",
"689 597 LINE"
);
}
);
width = 615;
}
);
leftKerningGroup = V;
rightKerningGroup = V;
unicode = 0056;
},
{
color = 4;
glyphname = W;
layers = (
{
anchors = (
{
name = top;
position = "{507, 598}";
}
);
layerId = UUID0;
paths = (
{
closed = 1;
nodes = (
"778 597 LINE",
"774 567 LINE",
"826 569 LINE SMOOTH",
"839 569 OFFCURVE",
"836 558 OFFCURVE",
"832 549 CURVE SMOOTH",
"642 111 LINE",
"666 109 LINE",
"552 547 LINE SMOOTH",
"548 561 OFFCURVE",
"553 569 OFFCURVE",
"561 569 CURVE SMOOTH",
"605 567 LINE",
"609 597 LINE",
"406 597 LINE",
"402 567 LINE",
"443 569 LINE SMOOTH",
"453 569 OFFCURVE",
"456 565 OFFCURVE",
"458 557 CURVE SMOOTH",
"602 -10 LINE",
"620 -10 LINE",
"869 548 LINE SMOOTH",
"874 558 OFFCURVE",
"882 569 OFFCURVE",
"894 569 CURVE",
"925 567 LINE",
"929 597 LINE"
);
},
{
closed = 1;
nodes = (
"49 597 LINE",
"45 567 LINE",
"75 569 LINE SMOOTH",
"83 569 OFFCURVE",
"88 562 OFFCURVE",
"91 547 CURVE SMOOTH",
"221 -10 LINE",
"242 -10 LINE",
"499 568 LINE",
"466 574 LINE",
"269 125 LINE",
"293 123 LINE",
"192 547 LINE SMOOTH",
"189 559 OFFCURVE",
"188 569 OFFCURVE",
"200 569 CURVE SMOOTH",
"256 567 LINE",
"260 597 LINE"
);
}
);
width = 854;
},
{
anchors = (
{
name = top;
position = "{547, 598}";
}
);
layerId = "E888B586-AF79-49A4-B375-A6F02287AAF4";
paths = (
{
closed = 1;
nodes = (
"832 597 LINE",
"825 557 LINE",
"878 559 LINE",
"889 560 OFFCURVE",
"891 550 OFFCURVE",
"886 539 CURVE SMOOTH",
"694 143 LINE",
"709 143 LINE",
"624 537 LINE",
"623 545 OFFCURVE",
"627 559 OFFCURVE",
"638 559 CURVE",
"679 557 LINE",
"685 597 LINE",
"425 597 LINE",
"419 557 LINE",
"461 559 LINE SMOOTH",
"476 560 OFFCURVE",
"478 544 OFFCURVE",
"483 526 CURVE",
"611 -10 LINE",
"667 -10 LINE",
"931 538 LINE SMOOTH",
"935 547 OFFCURVE",
"946 560 OFFCURVE",
"959 559 CURVE SMOOTH",
"988 557 LINE",
"994 597 LINE"
);
},
{
closed = 1;
nodes = (
"52 597 LINE",
"46 557 LINE",
"77 559 LINE",
"86 559 OFFCURVE",
"92 552 OFFCURVE",
"94 537 CURVE",
"216 -10 LINE",
"275 -10 LINE",
"548 553 LINE",
"507 560 LINE",
"317 174 LINE",
"329 174 LINE",
"251 537 LINE SMOOTH",
"248 550 OFFCURVE",
"249 560 OFFCURVE",
"265 559 CURVE SMOOTH",
"314 557 LINE",
"320 597 LINE"
);
}
);
width = 920;
}
);
leftKerningGroup = V;
rightKerningGroup = V;
unicode = 0057;
},
{
color = 4;
glyphname = Wacute;
layers = (
{
background = {
paths = (
{
closed = 1;
nodes = (
"45 567 LINE",
"75 569 LINE SMOOTH",
"83 569 OFFCURVE",
"88 562 OFFCURVE",
"91 547 CURVE SMOOTH",
"217 -10 LINE",
"238 -10 LINE",
"473 506 LINE",
"599 -10 LINE",
"617 -10 LINE",
"870 548 LINE SMOOTH",
"875 558 OFFCURVE",
"884 569 OFFCURVE",
"896 569 CURVE",
"926 567 LINE",
"930 597 LINE",
"779 597 LINE",
"775 567 LINE",
"827 569 LINE SMOOTH",
"833 569 OFFCURVE",
"837 566 OFFCURVE",
"837 559 CURVE SMOOTH",
"837 555 OFFCURVE",
"836 553 OFFCURVE",
"834 549 CURVE SMOOTH",
"654 145 LINE",
"553 547 LINE SMOOTH",
"553 549 OFFCURVE",
"552 551 OFFCURVE",
"552 554 CURVE SMOOTH",
"552 558 OFFCURVE",
"553 569 OFFCURVE",
"564 569 CURVE",
"606 567 LINE",
"610 597 LINE",
"406 597 LINE",
"402 567 LINE",
"443 569 LINE SMOOTH",
"454 569 OFFCURVE",
"459 565 OFFCURVE",
"459 557 CURVE SMOOTH",
"459 553 OFFCURVE",
"458 550 OFFCURVE",
"456 547 CURVE SMOOTH",
"281 159 LINE",
"192 547 LINE",
"192 551 OFFCURVE",
"192 556 OFFCURVE",
"192 557 CURVE SMOOTH",
"192 566 OFFCURVE",
"195 569 OFFCURVE",
"201 569 CURVE SMOOTH",
"256 567 LINE",
"260 597 LINE",
"49 597 LINE"
);
},
{
closed = 1;
nodes = (
"665 808 OFFCURVE",
"635 826 OFFCURVE",
"611 826 CURVE SMOOTH",
"596 826 OFFCURVE",
"593 820 OFFCURVE",
"577 805 CURVE SMOOTH",
"474 705 LINE SMOOTH",
"461 693 OFFCURVE",
"445 679 OFFCURVE",
"445 673 CURVE SMOOTH",
"445 669 OFFCURVE",
"449 666 OFFCURVE",
"458 666 CURVE SMOOTH",
"465 666 OFFCURVE",
"475 672 OFFCURVE",
"479 675 CURVE SMOOTH",
"654 788 LINE SMOOTH",
"659 791 OFFCURVE",
"665 795 OFFCURVE",
"665 800 CURVE SMOOTH"
);
}
);
};
components = (
{
name = W;
},
{
name = acute.case;
transform = "{1, 0, 0, 1, 351, 0}";
}
);
layerId = UUID0;
width = 854;
},
{
background = {
paths = (
{
closed = 1;
nodes = (
"45 567 LINE",
"75 569 LINE SMOOTH",
"83 569 OFFCURVE",
"88 562 OFFCURVE",
"91 547 CURVE SMOOTH",
"217 -10 LINE",
"238 -10 LINE",
"473 506 LINE",
"599 -10 LINE",
"617 -10 LINE",
"870 548 LINE SMOOTH",
"875 558 OFFCURVE",
"884 569 OFFCURVE",
"896 569 CURVE",
"926 567 LINE",
"930 597 LINE",
"779 597 LINE",
"775 567 LINE",
"827 569 LINE SMOOTH",
"833 569 OFFCURVE",
"837 566 OFFCURVE",
"837 559 CURVE SMOOTH",
"837 555 OFFCURVE",
"836 553 OFFCURVE",
"834 549 CURVE SMOOTH",
"654 145 LINE",
"553 547 LINE SMOOTH",
"553 549 OFFCURVE",
"552 551 OFFCURVE",
"552 554 CURVE SMOOTH",
"552 558 OFFCURVE",
"553 569 OFFCURVE",
"564 569 CURVE",
"606 567 LINE",
"610 597 LINE",
"406 597 LINE",
"402 567 LINE",
"443 569 LINE SMOOTH",
"454 569 OFFCURVE",
"459 565 OFFCURVE",
"459 557 CURVE SMOOTH",
"459 553 OFFCURVE",
"458 550 OFFCURVE",
"456 547 CURVE SMOOTH",
"281 159 LINE",
"192 547 LINE",
"192 551 OFFCURVE",
"192 556 OFFCURVE",
"192 557 CURVE SMOOTH",
"192 566 OFFCURVE",
"195 569 OFFCURVE",
"201 569 CURVE SMOOTH",
"256 567 LINE",
"260 597 LINE",
"49 597 LINE"
);
},
{
closed = 1;
nodes = (
"665 808 OFFCURVE",
"635 826 OFFCURVE",
"611 826 CURVE SMOOTH",
"596 826 OFFCURVE",
"593 820 OFFCURVE",
"577 805 CURVE SMOOTH",
"474 705 LINE SMOOTH",
"461 693 OFFCURVE",
"445 679 OFFCURVE",
"445 673 CURVE SMOOTH",
"445 669 OFFCURVE",
"449 666 OFFCURVE",
"458 666 CURVE SMOOTH",
"465 666 OFFCURVE",
"475 672 OFFCURVE",
"479 675 CURVE SMOOTH",
"654 788 LINE SMOOTH",
"659 791 OFFCURVE",
"665 795 OFFCURVE",
"665 800 CURVE SMOOTH"
);
}
);
};
components = (
{
name = W;
},
{
name = acute.case;
transform = "{1, 0, 0, 1, 391, 0}";
}
);
layerId = "E888B586-AF79-49A4-B375-A6F02287AAF4";
width = 920;
}
);
leftKerningGroup = V;
rightKerningGroup = V;
unicode = 1E82;
},
{
color = 4;
glyphname = Wcircumflex;
layers = (
{
background = {
paths = (
{
closed = 1;
nodes = (
"45 567 LINE",
"75 569 LINE SMOOTH",
"83 569 OFFCURVE",
"88 562 OFFCURVE",
"91 547 CURVE SMOOTH",
"217 -10 LINE",
"238 -10 LINE",
"473 506 LINE",
"599 -10 LINE",
"617 -10 LINE",
"870 548 LINE SMOOTH",
"875 558 OFFCURVE",
"884 569 OFFCURVE",
"896 569 CURVE",
"926 567 LINE",
"930 597 LINE",
"779 597 LINE",
"775 567 LINE",
"827 569 LINE SMOOTH",
"833 569 OFFCURVE",
"837 566 OFFCURVE",
"837 559 CURVE SMOOTH",
"837 555 OFFCURVE",
"836 553 OFFCURVE",
"834 549 CURVE SMOOTH",
"654 145 LINE",
"553 547 LINE SMOOTH",
"553 549 OFFCURVE",
"552 551 OFFCURVE",
"552 554 CURVE SMOOTH",
"552 558 OFFCURVE",
"553 569 OFFCURVE",
"564 569 CURVE SMOOTH",
"606 567 LINE",
"610 597 LINE",
"406 597 LINE",
"402 567 LINE",
"443 569 LINE SMOOTH",
"454 569 OFFCURVE",
"459 565 OFFCURVE",
"459 557 CURVE SMOOTH",
"459 553 OFFCURVE",
"458 550 OFFCURVE",
"456 547 CURVE SMOOTH",
"281 159 LINE",
"192 547 LINE",
"192 551 OFFCURVE",
"192 556 OFFCURVE",
"192 557 CURVE SMOOTH",
"192 566 OFFCURVE",
"195 569 OFFCURVE",
"201 569 CURVE SMOOTH",
"256 567 LINE",
"260 597 LINE",
"49 597 LINE"
);
},
{
closed = 1;
nodes = (
"359 671 OFFCURVE",
"360 666 OFFCURVE",
"369 666 CURVE SMOOTH",
"377 666 OFFCURVE",
"391 673 OFFCURVE",
"399 678 CURVE SMOOTH",
"523 752 LINE",
"628 678 LINE SMOOTH",
"634 673 OFFCURVE",
"646 666 OFFCURVE",
"654 666 CURVE SMOOTH",
"663 666 OFFCURVE",
"665 671 OFFCURVE",
"665 674 CURVE SMOOTH",
"665 682 OFFCURVE",
"634 706 OFFCURVE",
"599 749 CURVE SMOOTH",
"560 797 LINE SMOOTH",
"547 812 OFFCURVE",
"537 822 OFFCURVE",
"533 822 CURVE SMOOTH",
"530 822 OFFCURVE",
"517 812 OFFCURVE",
"500 797 CURVE SMOOTH",
"448 749 LINE SMOOTH",
"401 706 OFFCURVE",
"362 682 OFFCURVE",
"360 674 CURVE SMOOTH"
);
}
);
};
components = (
{
name = W;
},
{
name = circumflex.case;
transform = "{1, 0, 0, 1, 268, 0}";
}
);
layerId = UUID0;
width = 854;
},
{
background = {
paths = (
{
closed = 1;
nodes = (
"45 567 LINE",
"75 569 LINE SMOOTH",
"83 569 OFFCURVE",
"88 562 OFFCURVE",
"91 547 CURVE SMOOTH",
"217 -10 LINE",
"238 -10 LINE",
"473 506 LINE",
"599 -10 LINE",
"617 -10 LINE",
"870 548 LINE SMOOTH",
"875 558 OFFCURVE",
"884 569 OFFCURVE",
"896 569 CURVE",
"926 567 LINE",
"930 597 LINE",
"779 597 LINE",
"775 567 LINE",
"827 569 LINE SMOOTH",
"833 569 OFFCURVE",
"837 566 OFFCURVE",
"837 559 CURVE SMOOTH",
"837 555 OFFCURVE",
"836 553 OFFCURVE",
"834 549 CURVE SMOOTH",
"654 145 LINE",
"553 547 LINE SMOOTH",
"553 549 OFFCURVE",
"552 551 OFFCURVE",
"552 554 CURVE SMOOTH",
"552 558 OFFCURVE",
"553 569 OFFCURVE",
"564 569 CURVE SMOOTH",
"606 567 LINE",
"610 597 LINE",
"406 597 LINE",
"402 567 LINE",
"443 569 LINE SMOOTH",
"454 569 OFFCURVE",
"459 565 OFFCURVE",
"459 557 CURVE SMOOTH",
"459 553 OFFCURVE",
"458 550 OFFCURVE",
"456 547 CURVE SMOOTH",
"281 159 LINE",
"192 547 LINE",
"192 551 OFFCURVE",
"192 556 OFFCURVE",
"192 557 CURVE SMOOTH",
"192 566 OFFCURVE",
"195 569 OFFCURVE",
"201 569 CURVE SMOOTH",
"256 567 LINE",
"260 597 LINE",
"49 597 LINE"
);
},
{
closed = 1;
nodes = (
"359 671 OFFCURVE",
"360 666 OFFCURVE",
"369 666 CURVE SMOOTH",
"377 666 OFFCURVE",
"391 673 OFFCURVE",
"399 678 CURVE SMOOTH",
"523 752 LINE",
"628 678 LINE SMOOTH",
"634 673 OFFCURVE",
"646 666 OFFCURVE",
"654 666 CURVE SMOOTH",
"663 666 OFFCURVE",
"665 671 OFFCURVE",
"665 674 CURVE SMOOTH",
"665 682 OFFCURVE",
"634 706 OFFCURVE",
"599 749 CURVE SMOOTH",
"560 797 LINE SMOOTH",
"547 812 OFFCURVE",
"537 822 OFFCURVE",
"533 822 CURVE SMOOTH",
"530 822 OFFCURVE",
"517 812 OFFCURVE",
"500 797 CURVE SMOOTH",
"448 749 LINE SMOOTH",
"401 706 OFFCURVE",
"362 682 OFFCURVE",
"360 674 CURVE SMOOTH"
);
}
);
};
components = (
{
name = W;
},
{
name = circumflex.case;
transform = "{1, 0, 0, 1, 308, 0}";
}
);
layerId = "E888B586-AF79-49A4-B375-A6F02287AAF4";
width = 920;
}
);
leftKerningGroup = V;
rightKerningGroup = V;
unicode = 0174;
},
{
color = 4;
glyphname = Wdieresis;
layers = (
{
background = {
paths = (
{
closed = 1;
nodes = (
"45 567 LINE",
"75 569 LINE SMOOTH",
"83 569 OFFCURVE",
"88 562 OFFCURVE",
"91 547 CURVE SMOOTH",
"217 -10 LINE",
"238 -10 LINE",
"473 506 LINE",
"599 -10 LINE",
"617 -10 LINE",
"870 548 LINE SMOOTH",
"875 558 OFFCURVE",
"883 569 OFFCURVE",
"895 569 CURVE",
"926 567 LINE",
"930 597 LINE",
"779 597 LINE",
"775 567 LINE",
"827 569 LINE SMOOTH",
"833 569 OFFCURVE",
"836 566 OFFCURVE",
"836 560 CURVE SMOOTH",
"836 554 OFFCURVE",
"835 552 OFFCURVE",
"833 549 CURVE SMOOTH",
"654 145 LINE",
"553 547 LINE",
"553 548 OFFCURVE",
"552 551 OFFCURVE",
"552 554 CURVE SMOOTH",
"552 558 OFFCURVE",
"553 569 OFFCURVE",
"564 569 CURVE SMOOTH",
"606 567 LINE",
"610 597 LINE",
"406 597 LINE",
"402 567 LINE",
"443 569 LINE SMOOTH",
"454 569 OFFCURVE",
"459 565 OFFCURVE",
"459 557 CURVE SMOOTH",
"459 553 OFFCURVE",
"458 550 OFFCURVE",
"456 547 CURVE SMOOTH",
"281 159 LINE",
"192 547 LINE",
"192 551 OFFCURVE",
"192 556 OFFCURVE",
"192 557 CURVE SMOOTH",
"192 566 OFFCURVE",
"195 569 OFFCURVE",
"201 569 CURVE SMOOTH",
"256 567 LINE",
"260 597 LINE",
"49 597 LINE"
);
},
{
closed = 1;
nodes = (
"559 693 OFFCURVE",
"578 676 OFFCURVE",
"606 676 CURVE SMOOTH",
"640 676 OFFCURVE",
"668 698 OFFCURVE",
"668 729 CURVE SMOOTH",
"668 754 OFFCURVE",
"647 773 OFFCURVE",
"620 773 CURVE SMOOTH",
"586 773 OFFCURVE",
"559 749 OFFCURVE",
"559 718 CURVE SMOOTH"
);
},
{
closed = 1;
nodes = (
"371 693 OFFCURVE",
"390 676 OFFCURVE",
"418 676 CURVE SMOOTH",
"451 676 OFFCURVE",
"479 698 OFFCURVE",
"479 729 CURVE SMOOTH",
"479 754 OFFCURVE",
"458 773 OFFCURVE",
"432 773 CURVE SMOOTH",
"398 773 OFFCURVE",
"371 749 OFFCURVE",
"371 718 CURVE SMOOTH"
);
}
);
};
components = (
{
name = W;
},
{
name = dieresis.case;
transform = "{1, 0, 0, 1, 311, 0}";
}
);
layerId = UUID0;
width = 854;
},
{
background = {
paths = (
{
closed = 1;
nodes = (
"45 567 LINE",
"75 569 LINE SMOOTH",
"83 569 OFFCURVE",
"88 562 OFFCURVE",
"91 547 CURVE SMOOTH",
"217 -10 LINE",
"238 -10 LINE",
"473 506 LINE",
"599 -10 LINE",
"617 -10 LINE",
"870 548 LINE SMOOTH",
"875 558 OFFCURVE",
"883 569 OFFCURVE",
"895 569 CURVE",
"926 567 LINE",
"930 597 LINE",
"779 597 LINE",
"775 567 LINE",
"827 569 LINE SMOOTH",
"833 569 OFFCURVE",
"836 566 OFFCURVE",
"836 560 CURVE SMOOTH",
"836 554 OFFCURVE",
"835 552 OFFCURVE",
"833 549 CURVE SMOOTH",
"654 145 LINE",
"553 547 LINE",
"553 548 OFFCURVE",
"552 551 OFFCURVE",
"552 554 CURVE SMOOTH",
"552 558 OFFCURVE",
"553 569 OFFCURVE",
"564 569 CURVE SMOOTH",
"606 567 LINE",
"610 597 LINE",
"406 597 LINE",
"402 567 LINE",
"443 569 LINE SMOOTH",
"454 569 OFFCURVE",
"459 565 OFFCURVE",
"459 557 CURVE SMOOTH",
"459 553 OFFCURVE",
"458 550 OFFCURVE",
"456 547 CURVE SMOOTH",
"281 159 LINE",
"192 547 LINE",
"192 551 OFFCURVE",
"192 556 OFFCURVE",
"192 557 CURVE SMOOTH",
"192 566 OFFCURVE",
"195 569 OFFCURVE",
"201 569 CURVE SMOOTH",
"256 567 LINE",
"260 597 LINE",
"49 597 LINE"
);
},
{
closed = 1;
nodes = (
"559 693 OFFCURVE",
"578 676 OFFCURVE",
"606 676 CURVE SMOOTH",
"640 676 OFFCURVE",
"668 698 OFFCURVE",
"668 729 CURVE SMOOTH",
"668 754 OFFCURVE",
"647 773 OFFCURVE",
"620 773 CURVE SMOOTH",
"586 773 OFFCURVE",
"559 749 OFFCURVE",
"559 718 CURVE SMOOTH"
);
},
{
closed = 1;
nodes = (
"371 693 OFFCURVE",
"390 676 OFFCURVE",
"418 676 CURVE SMOOTH",
"451 676 OFFCURVE",
"479 698 OFFCURVE",
"479 729 CURVE SMOOTH",
"479 754 OFFCURVE",
"458 773 OFFCURVE",
"432 773 CURVE SMOOTH",
"398 773 OFFCURVE",
"371 749 OFFCURVE",
"371 718 CURVE SMOOTH"
);
}
);
};
components = (
{
name = W;
},
{
name = dieresis.case;
transform = "{1, 0, 0, 1, 351, 0}";
}
);
layerId = "E888B586-AF79-49A4-B375-A6F02287AAF4";
width = 920;
}
);
leftKerningGroup = V;
rightKerningGroup = V;
unicode = 1E84;
},
{
color = 4;
glyphname = Wgrave;
layers = (
{
background = {
paths = (
{
closed = 1;
nodes = (
"45 567 LINE",
"75 569 LINE SMOOTH",
"83 569 OFFCURVE",
"88 562 OFFCURVE",
"91 547 CURVE SMOOTH",
"217 -10 LINE",
"238 -10 LINE",
"473 506 LINE",
"599 -10 LINE",
"617 -10 LINE",
"870 548 LINE SMOOTH",
"875 558 OFFCURVE",
"884 569 OFFCURVE",
"896 569 CURVE",
"926 567 LINE",
"930 597 LINE",
"779 597 LINE",
"775 567 LINE",
"827 569 LINE SMOOTH",
"833 569 OFFCURVE",
"837 566 OFFCURVE",
"837 559 CURVE SMOOTH",
"837 555 OFFCURVE",
"836 553 OFFCURVE",
"834 549 CURVE SMOOTH",
"654 145 LINE",
"553 547 LINE SMOOTH",
"553 549 OFFCURVE",
"552 551 OFFCURVE",
"552 554 CURVE SMOOTH",
"552 558 OFFCURVE",
"553 569 OFFCURVE",
"564 569 CURVE SMOOTH",
"606 567 LINE",
"610 597 LINE",
"406 597 LINE",
"402 567 LINE",
"443 569 LINE SMOOTH",
"454 569 OFFCURVE",
"459 565 OFFCURVE",
"459 557 CURVE SMOOTH",
"459 553 OFFCURVE",
"458 550 OFFCURVE",
"456 547 CURVE SMOOTH",
"281 159 LINE",
"192 547 LINE",
"192 551 OFFCURVE",
"192 556 OFFCURVE",
"192 557 CURVE SMOOTH",
"192 566 OFFCURVE",
"195 569 OFFCURVE",
"201 569 CURVE SMOOTH",
"256 567 LINE",
"260 597 LINE",
"49 597 LINE"
);
},
{
closed = 1;
nodes = (
"397 794 OFFCURVE",
"400 791 OFFCURVE",
"403 788 CURVE SMOOTH",
"547 675 LINE SMOOTH",
"550 672 OFFCURVE",
"558 666 OFFCURVE",
"566 666 CURVE SMOOTH",
"576 666 OFFCURVE",
"581 669 OFFCURVE",
"581 674 CURVE SMOOTH",
"581 677 OFFCURVE",
"576 684 OFFCURVE",
"571 691 CURVE SMOOTH",
"489 801 LINE",
"477 817 OFFCURVE",
"467 826 OFFCURVE",
"456 826 CURVE SMOOTH",
"432 826 OFFCURVE",
"397 808 OFFCURVE",
"397 799 CURVE SMOOTH"
);
}
);
};
components = (
{
name = W;
},
{
name = grave.case;
transform = "{1, 0, 0, 1, 283, 0}";
}
);
layerId = UUID0;
width = 854;
},
{
background = {
paths = (
{
closed = 1;
nodes = (
"45 567 LINE",
"75 569 LINE SMOOTH",
"83 569 OFFCURVE",
"88 562 OFFCURVE",
"91 547 CURVE SMOOTH",
"217 -10 LINE",
"238 -10 LINE",
"473 506 LINE",
"599 -10 LINE",
"617 -10 LINE",
"870 548 LINE SMOOTH",
"875 558 OFFCURVE",
"884 569 OFFCURVE",
"896 569 CURVE",
"926 567 LINE",
"930 597 LINE",
"779 597 LINE",
"775 567 LINE",
"827 569 LINE SMOOTH",
"833 569 OFFCURVE",
"837 566 OFFCURVE",
"837 559 CURVE SMOOTH",
"837 555 OFFCURVE",
"836 553 OFFCURVE",
"834 549 CURVE SMOOTH",
"654 145 LINE",
"553 547 LINE SMOOTH",
"553 549 OFFCURVE",
"552 551 OFFCURVE",
"552 554 CURVE SMOOTH",
"552 558 OFFCURVE",
"553 569 OFFCURVE",
"564 569 CURVE SMOOTH",
"606 567 LINE",
"610 597 LINE",
"406 597 LINE",
"402 567 LINE",
"443 569 LINE SMOOTH",
"454 569 OFFCURVE",
"459 565 OFFCURVE",
"459 557 CURVE SMOOTH",
"459 553 OFFCURVE",
"458 550 OFFCURVE",
"456 547 CURVE SMOOTH",
"281 159 LINE",
"192 547 LINE",
"192 551 OFFCURVE",
"192 556 OFFCURVE",
"192 557 CURVE SMOOTH",
"192 566 OFFCURVE",
"195 569 OFFCURVE",
"201 569 CURVE SMOOTH",
"256 567 LINE",
"260 597 LINE",
"49 597 LINE"
);
},
{
closed = 1;
nodes = (
"397 794 OFFCURVE",
"400 791 OFFCURVE",
"403 788 CURVE SMOOTH",
"547 675 LINE SMOOTH",
"550 672 OFFCURVE",
"558 666 OFFCURVE",
"566 666 CURVE SMOOTH",
"576 666 OFFCURVE",
"581 669 OFFCURVE",
"581 674 CURVE SMOOTH",
"581 677 OFFCURVE",
"576 684 OFFCURVE",
"571 691 CURVE SMOOTH",
"489 801 LINE",
"477 817 OFFCURVE",
"467 826 OFFCURVE",
"456 826 CURVE SMOOTH",
"432 826 OFFCURVE",
"397 808 OFFCURVE",
"397 799 CURVE SMOOTH"
);
}
);
};
components = (
{
name = W;
},
{
name = grave.case;
transform = "{1, 0, 0, 1, 323, 0}";
}
);
layerId = "E888B586-AF79-49A4-B375-A6F02287AAF4";
width = 920;
}
);
leftKerningGroup = V;
rightKerningGroup = V;
unicode = 1E80;
},
{
color = 4;
glyphname = X;
layers = (
{
layerId = UUID0;
paths = (
{
closed = 1;
nodes = (
"429 597 LINE",
"425 567 LINE",
"468 569 LINE SMOOTH",
"477 569 OFFCURVE",
"481 561 OFFCURVE",
"471 549 CURVE SMOOTH",
"325 354 LINE",
"265 305 LINE",
"74 50 LINE SMOOTH",
"63 35 OFFCURVE",
"52 28 OFFCURVE",
"40 28 CURVE SMOOTH",
"3 30 LINE",
"-1 0 LINE",
"156 0 LINE",
"160 30 LINE",
"114 27 LINE SMOOTH",
"105 27 OFFCURVE",
"106 38 OFFCURVE",
"113 47 CURVE SMOOTH",
"279 270 LINE",
"340 319 LINE",
"511 549 LINE SMOOTH",
"521 562 OFFCURVE",
"533 570 OFFCURVE",
"543 569 CURVE SMOOTH",
"574 567 LINE",
"578 597 LINE"
);
},
{
closed = 1;
nodes = (
"268 271 LINE",
"362 51 LINE SMOOTH",
"367 39 OFFCURVE",
"367 27 OFFCURVE",
"354 27 CURVE SMOOTH",
"305 30 LINE",
"301 0 LINE",
"531 0 LINE",
"535 30 LINE",
"496 27 LINE SMOOTH",
"483 26 OFFCURVE",
"474 36 OFFCURVE",
"470 44 CURVE SMOOTH",
"343 338 LINE"
);
},
{
closed = 1;
nodes = (
"92 597 LINE",
"88 567 LINE",
"121 569 LINE SMOOTH",
"131 569 OFFCURVE",
"141 565 OFFCURVE",
"147 550 CURVE SMOOTH",
"262 286 LINE",
"336 353 LINE",
"254 548 LINE",
"250 556 OFFCURVE",
"252 569 OFFCURVE",
"269 569 CURVE SMOOTH",
"311 567 LINE",
"315 597 LINE"
);
}
);
width = 549;
},
{
layerId = "E888B586-AF79-49A4-B375-A6F02287AAF4";
paths = (
{
closed = 1;
nodes = (
"456 597 LINE",
"450 557 LINE",
"494 559 LINE SMOOTH",
"509 560 OFFCURVE",
"507 550 OFFCURVE",
"499 539 CURVE SMOOTH",
"353 352 LINE",
"253 305 LINE",
"64 60 LINE SMOOTH",
"53 45 OFFCURVE",
"41 38 OFFCURVE",
"27 38 CURVE",
"-8 40 LINE",
"-14 0 LINE",
"155 0 LINE",
"161 40 LINE",
"115 37 LINE SMOOTH",
"107 37 OFFCURVE",
"103 45 OFFCURVE",
"112 57 CURVE SMOOTH",
"277 272 LINE",
"379 319 LINE",
"548 539 LINE SMOOTH",
"558 552 OFFCURVE",
"570 559 OFFCURVE",
"582 559 CURVE",
"617 557 LINE",
"623 597 LINE"
);
},
{
closed = 1;
nodes = (
"245 272 LINE",
"342 59 LINE",
"348 47 OFFCURVE",
"347 35 OFFCURVE",
"332 36 CURVE SMOOTH",
"283 39 LINE",
"278 0 LINE",
"568 0 LINE",
"573 39 LINE",
"544 36 LINE SMOOTH",
"529 34 OFFCURVE",
"520 44 OFFCURVE",
"516 53 CURVE SMOOTH",
"386 337 LINE"
);
},
{
closed = 1;
nodes = (
"84 597 LINE",
"78 557 LINE",
"101 559 LINE SMOOTH",
"112 560 OFFCURVE",
"123 555 OFFCURVE",
"130 540 CURVE SMOOTH",
"245 287 LINE",
"382 351 LINE",
"303 538 LINE",
"298 548 OFFCURVE",
"303 560 OFFCURVE",
"320 559 CURVE SMOOTH",
"361 557 LINE",
"367 597 LINE"
);
}
);
width = 591;
}
);
unicode = 0058;
},
{
color = 4;
glyphname = Y;
layers = (
{
anchors = (
{
name = top;
position = "{309, 598}";
}
);
layerId = UUID0;
paths = (
{
closed = 1;
nodes = (
"49 597 LINE",
"45 567 LINE",
"73 569 LINE",
"82 569 OFFCURVE",
"86 563 OFFCURVE",
"92 550 CURVE SMOOTH",
"219 263 LINE",
"189 49 LINE SMOOTH",
"187 34 OFFCURVE",
"180 27 OFFCURVE",
"169 27 CURVE SMOOTH",
"120 29 LINE",
"116 0 LINE",
"340 0 LINE",
"344 29 LINE",
"296 27 LINE",
"283 27 OFFCURVE",
"279 36 OFFCURVE",
"281 48 CURVE SMOOTH",
"318 312 LINE",
"302 311 LINE",
"200 545 LINE SMOOTH",
"197 553 OFFCURVE",
"194 569 OFFCURVE",
"208 569 CURVE SMOOTH",
"261 567 LINE",
"265 597 LINE"
);
},
{
closed = 1;
nodes = (
"406 597 LINE",
"402 567 LINE",
"453 569 LINE SMOOTH",
"463 569 OFFCURVE",
"461 556 OFFCURVE",
"456 549 CURVE SMOOTH",
"294 312 LINE",
"310 281 LINE",
"492 548 LINE SMOOTH",
"501 561 OFFCURVE",
"512 569 OFFCURVE",
"521 569 CURVE SMOOTH",
"551 567 LINE",
"555 597 LINE"
);
}
);
width = 491;
},
{
anchors = (
{
name = top;
position = "{370, 598}";
}
);
layerId = "E888B586-AF79-49A4-B375-A6F02287AAF4";
paths = (
{
closed = 1;
nodes = (
"55 597 LINE",
"49 557 LINE",
"78 559 LINE",
"87 559 OFFCURVE",
"93 553 OFFCURVE",
"99 540 CURVE SMOOTH",
"231 254 LINE",
"203 59 LINE SMOOTH",
"201 44 OFFCURVE",
"194 37 OFFCURVE",
"181 37 CURVE",
"132 39 LINE",
"127 0 LINE",
"416 0 LINE",
"421 39 LINE",
"373 37 LINE",
"358 37 OFFCURVE",
"354 46 OFFCURVE",
"356 58 CURVE SMOOTH",
"391 309 LINE",
"376 309 LINE",
"272 535 LINE SMOOTH",
"267 546 OFFCURVE",
"268 560 OFFCURVE",
"283 559 CURVE SMOOTH",
"335 557 LINE",
"341 597 LINE"
);
},
{
closed = 1;
nodes = (
"478 597 LINE",
"472 557 LINE",
"525 559 LINE",
"537 559 OFFCURVE",
"534 547 OFFCURVE",
"529 539 CURVE",
"367 309 LINE",
"383 266 LINE",
"574 538 LINE SMOOTH",
"584 552 OFFCURVE",
"594 559 OFFCURVE",
"605 559 CURVE",
"634 557 LINE",
"640 597 LINE"
);
}
);
width = 576;
}
);
leftKerningGroup = Y;
rightKerningGroup = Y;
unicode = 0059;
},
{
color = 4;
glyphname = Yacute;
layers = (
{
background = {
paths = (
{
closed = 1;
nodes = (
"45 567 LINE",
"73 569 LINE SMOOTH",
"81 569 OFFCURVE",
"86 563 OFFCURVE",
"92 550 CURVE SMOOTH",
"219 263 LINE",
"189 49 LINE SMOOTH",
"187 34 OFFCURVE",
"181 27 OFFCURVE",
"169 27 CURVE SMOOTH",
"120 29 LINE",
"116 0 LINE",
"341 0 LINE",
"345 29 LINE",
"329 29 OFFCURVE",
"312 27 OFFCURVE",
"297 27 CURVE SMOOTH",
"283 27 OFFCURVE",
"280 36 OFFCURVE",
"282 48 CURVE SMOOTH",
"316 288 LINE",
"493 548 LINE SMOOTH",
"502 561 OFFCURVE",
"512 569 OFFCURVE",
"522 569 CURVE SMOOTH",
"552 567 LINE",
"556 597 LINE",
"406 597 LINE",
"402 567 LINE",
"454 569 LINE SMOOTH",
"459 569 OFFCURVE",
"461 566 OFFCURVE",
"461 562 CURVE SMOOTH",
"461 558 OFFCURVE",
"460 553 OFFCURVE",
"457 549 CURVE SMOOTH",
"299 319 LINE",
"200 545 LINE SMOOTH",
"198 549 OFFCURVE",
"197 554 OFFCURVE",
"197 557 CURVE SMOOTH",
"197 562 OFFCURVE",
"199 569 OFFCURVE",
"206 569 CURVE SMOOTH",
"207 569 OFFCURVE",
"207 569 OFFCURVE",
"208 569 CURVE",
"261 567 LINE",
"265 597 LINE",
"49 597 LINE"
);
},
{
closed = 1;
nodes = (
"474 808 OFFCURVE",
"444 826 OFFCURVE",
"420 826 CURVE SMOOTH",
"406 826 OFFCURVE",
"401 821 OFFCURVE",
"385 805 CURVE SMOOTH",
"269 691 LINE SMOOTH",
"261 684 OFFCURVE",
"254 677 OFFCURVE",
"254 673 CURVE SMOOTH",
"254 669 OFFCURVE",
"258 666 OFFCURVE",
"267 666 CURVE SMOOTH",
"275 666 OFFCURVE",
"284 672 OFFCURVE",
"288 675 CURVE SMOOTH",
"463 788 LINE SMOOTH",
"468 791 OFFCURVE",
"474 795 OFFCURVE",
"474 800 CURVE SMOOTH"
);
}
);
};
components = (
{
name = Y;
},
{
name = acute.case;
transform = "{1, 0, 0, 1, 153, 0}";
}
);
layerId = UUID0;
width = 491;
},
{
background = {
paths = (
{
closed = 1;
nodes = (
"45 567 LINE",
"73 569 LINE SMOOTH",
"81 569 OFFCURVE",
"86 563 OFFCURVE",
"92 550 CURVE SMOOTH",
"219 263 LINE",
"189 49 LINE SMOOTH",
"187 34 OFFCURVE",
"181 27 OFFCURVE",
"169 27 CURVE SMOOTH",
"120 29 LINE",
"116 0 LINE",
"341 0 LINE",
"345 29 LINE",
"329 29 OFFCURVE",
"312 27 OFFCURVE",
"297 27 CURVE SMOOTH",
"283 27 OFFCURVE",
"280 36 OFFCURVE",
"282 48 CURVE SMOOTH",
"316 288 LINE",
"493 548 LINE SMOOTH",
"502 561 OFFCURVE",
"512 569 OFFCURVE",
"522 569 CURVE SMOOTH",
"552 567 LINE",
"556 597 LINE",
"406 597 LINE",
"402 567 LINE",
"454 569 LINE SMOOTH",
"459 569 OFFCURVE",
"461 566 OFFCURVE",
"461 562 CURVE SMOOTH",
"461 558 OFFCURVE",
"460 553 OFFCURVE",
"457 549 CURVE SMOOTH",
"299 319 LINE",
"200 545 LINE SMOOTH",
"198 549 OFFCURVE",
"197 554 OFFCURVE",
"197 557 CURVE SMOOTH",
"197 562 OFFCURVE",
"199 569 OFFCURVE",
"206 569 CURVE SMOOTH",
"207 569 OFFCURVE",
"207 569 OFFCURVE",
"208 569 CURVE",
"261 567 LINE",
"265 597 LINE",
"49 597 LINE"
);
},
{
closed = 1;
nodes = (
"474 808 OFFCURVE",
"444 826 OFFCURVE",
"420 826 CURVE SMOOTH",
"406 826 OFFCURVE",
"401 821 OFFCURVE",
"385 805 CURVE SMOOTH",
"269 691 LINE SMOOTH",
"261 684 OFFCURVE",
"254 677 OFFCURVE",
"254 673 CURVE SMOOTH",
"254 669 OFFCURVE",
"258 666 OFFCURVE",
"267 666 CURVE SMOOTH",
"275 666 OFFCURVE",
"284 672 OFFCURVE",
"288 675 CURVE SMOOTH",
"463 788 LINE SMOOTH",
"468 791 OFFCURVE",
"474 795 OFFCURVE",
"474 800 CURVE SMOOTH"
);
}
);
};
components = (
{
name = Y;
},
{
name = acute.case;
transform = "{1, 0, 0, 1, 214, 0}";
}
);
layerId = "E888B586-AF79-49A4-B375-A6F02287AAF4";
width = 576;
}
);
leftKerningGroup = Y;
rightKerningGroup = Y;
unicode = 00DD;
},
{
color = 4;
glyphname = Ycircumflex;
layers = (
{
background = {
paths = (
{
closed = 1;
nodes = (
"45 567 LINE",
"73 569 LINE SMOOTH",
"81 569 OFFCURVE",
"86 563 OFFCURVE",
"92 550 CURVE SMOOTH",
"219 263 LINE",
"189 49 LINE SMOOTH",
"187 34 OFFCURVE",
"181 27 OFFCURVE",
"169 27 CURVE SMOOTH",
"120 29 LINE",
"116 0 LINE",
"341 0 LINE",
"345 29 LINE",
"329 29 OFFCURVE",
"312 27 OFFCURVE",
"297 27 CURVE SMOOTH",
"283 27 OFFCURVE",
"280 36 OFFCURVE",
"282 48 CURVE SMOOTH",
"316 288 LINE",
"493 548 LINE SMOOTH",
"502 561 OFFCURVE",
"512 569 OFFCURVE",
"522 569 CURVE SMOOTH",
"552 567 LINE",
"556 597 LINE",
"406 597 LINE",
"402 567 LINE",
"454 569 LINE SMOOTH",
"459 569 OFFCURVE",
"461 566 OFFCURVE",
"461 562 CURVE SMOOTH",
"461 558 OFFCURVE",
"460 553 OFFCURVE",
"457 549 CURVE SMOOTH",
"299 319 LINE",
"200 545 LINE SMOOTH",
"198 549 OFFCURVE",
"197 554 OFFCURVE",
"197 557 CURVE SMOOTH",
"197 565 OFFCURVE",
"201 569 OFFCURVE",
"208 569 CURVE",
"261 567 LINE",
"265 597 LINE",
"49 597 LINE"
);
},
{
closed = 1;
nodes = (
"168 671 OFFCURVE",
"169 666 OFFCURVE",
"178 666 CURVE SMOOTH",
"185 666 OFFCURVE",
"199 673 OFFCURVE",
"208 678 CURVE SMOOTH",
"332 752 LINE",
"436 678 LINE SMOOTH",
"443 673 OFFCURVE",
"455 666 OFFCURVE",
"462 666 CURVE SMOOTH",
"471 666 OFFCURVE",
"473 671 OFFCURVE",
"473 674 CURVE SMOOTH",
"473 683 OFFCURVE",
"444 706 OFFCURVE",
"408 749 CURVE SMOOTH",
"368 797 LINE SMOOTH",
"355 812 OFFCURVE",
"346 822 OFFCURVE",
"342 822 CURVE SMOOTH",
"338 822 OFFCURVE",
"326 812 OFFCURVE",
"309 797 CURVE SMOOTH",
"256 749 LINE SMOOTH",
"207 705 OFFCURVE",
"171 682 OFFCURVE",
"169 674 CURVE SMOOTH"
);
}
);
};
components = (
{
name = Y;
},
{
name = circumflex.case;
transform = "{1, 0, 0, 1, 70, 0}";
}
);
layerId = UUID0;
width = 491;
},
{
background = {
paths = (
{
closed = 1;
nodes = (
"45 567 LINE",
"73 569 LINE SMOOTH",
"81 569 OFFCURVE",
"86 563 OFFCURVE",
"92 550 CURVE SMOOTH",
"219 263 LINE",
"189 49 LINE SMOOTH",
"187 34 OFFCURVE",
"181 27 OFFCURVE",
"169 27 CURVE SMOOTH",
"120 29 LINE",
"116 0 LINE",
"341 0 LINE",
"345 29 LINE",
"329 29 OFFCURVE",
"312 27 OFFCURVE",
"297 27 CURVE SMOOTH",
"283 27 OFFCURVE",
"280 36 OFFCURVE",
"282 48 CURVE SMOOTH",
"316 288 LINE",
"493 548 LINE SMOOTH",
"502 561 OFFCURVE",
"512 569 OFFCURVE",
"522 569 CURVE SMOOTH",
"552 567 LINE",
"556 597 LINE",
"406 597 LINE",
"402 567 LINE",
"454 569 LINE SMOOTH",
"459 569 OFFCURVE",
"461 566 OFFCURVE",
"461 562 CURVE SMOOTH",
"461 558 OFFCURVE",
"460 553 OFFCURVE",
"457 549 CURVE SMOOTH",
"299 319 LINE",
"200 545 LINE SMOOTH",
"198 549 OFFCURVE",
"197 554 OFFCURVE",
"197 557 CURVE SMOOTH",
"197 565 OFFCURVE",
"201 569 OFFCURVE",
"208 569 CURVE",
"261 567 LINE",
"265 597 LINE",
"49 597 LINE"
);
},
{
closed = 1;
nodes = (
"168 671 OFFCURVE",
"169 666 OFFCURVE",
"178 666 CURVE SMOOTH",
"185 666 OFFCURVE",
"199 673 OFFCURVE",
"208 678 CURVE SMOOTH",
"332 752 LINE",
"436 678 LINE SMOOTH",
"443 673 OFFCURVE",
"455 666 OFFCURVE",
"462 666 CURVE SMOOTH",
"471 666 OFFCURVE",
"473 671 OFFCURVE",
"473 674 CURVE SMOOTH",
"473 683 OFFCURVE",
"444 706 OFFCURVE",
"408 749 CURVE SMOOTH",
"368 797 LINE SMOOTH",
"355 812 OFFCURVE",
"346 822 OFFCURVE",
"342 822 CURVE SMOOTH",
"338 822 OFFCURVE",
"326 812 OFFCURVE",
"309 797 CURVE SMOOTH",
"256 749 LINE SMOOTH",
"207 705 OFFCURVE",
"171 682 OFFCURVE",
"169 674 CURVE SMOOTH"
);
}
);
};
components = (
{
name = Y;
},
{
name = circumflex.case;
transform = "{1, 0, 0, 1, 131, 0}";
}
);
layerId = "E888B586-AF79-49A4-B375-A6F02287AAF4";
width = 576;
}
);
leftKerningGroup = Y;
rightKerningGroup = Y;
unicode = 0176;
},
{
color = 4;
glyphname = Ydieresis;
layers = (
{
background = {
paths = (
{
closed = 1;
nodes = (
"45 567 LINE",
"73 569 LINE SMOOTH",
"81 569 OFFCURVE",
"86 563 OFFCURVE",
"92 550 CURVE SMOOTH",
"219 263 LINE",
"189 49 LINE SMOOTH",
"187 34 OFFCURVE",
"181 27 OFFCURVE",
"169 27 CURVE SMOOTH",
"120 29 LINE",
"116 0 LINE",
"341 0 LINE",
"345 29 LINE",
"329 29 OFFCURVE",
"312 27 OFFCURVE",
"297 27 CURVE SMOOTH",
"283 27 OFFCURVE",
"280 36 OFFCURVE",
"282 48 CURVE SMOOTH",
"316 288 LINE",
"493 548 LINE SMOOTH",
"502 561 OFFCURVE",
"512 569 OFFCURVE",
"521 569 CURVE SMOOTH",
"552 567 LINE",
"556 597 LINE",
"406 597 LINE",
"402 567 LINE",
"454 569 LINE SMOOTH",
"459 569 OFFCURVE",
"461 566 OFFCURVE",
"461 562 CURVE SMOOTH",
"461 558 OFFCURVE",
"460 553 OFFCURVE",
"457 549 CURVE SMOOTH",
"299 319 LINE",
"200 545 LINE SMOOTH",
"198 549 OFFCURVE",
"197 554 OFFCURVE",
"197 557 CURVE SMOOTH",
"197 562 OFFCURVE",
"199 569 OFFCURVE",
"206 569 CURVE SMOOTH",
"207 569 OFFCURVE",
"207 569 OFFCURVE",
"208 569 CURVE",
"261 567 LINE",
"265 597 LINE",
"49 597 LINE"
);
},
{
closed = 1;
nodes = (
"368 693 OFFCURVE",
"387 676 OFFCURVE",
"415 676 CURVE SMOOTH",
"449 676 OFFCURVE",
"476 698 OFFCURVE",
"476 729 CURVE SMOOTH",
"476 754 OFFCURVE",
"456 773 OFFCURVE",
"429 773 CURVE SMOOTH",
"395 773 OFFCURVE",
"368 749 OFFCURVE",
"368 718 CURVE SMOOTH"
);
},
{
closed = 1;
nodes = (
"180 693 OFFCURVE",
"199 676 OFFCURVE",
"226 676 CURVE SMOOTH",
"260 676 OFFCURVE",
"288 698 OFFCURVE",
"288 729 CURVE SMOOTH",
"288 754 OFFCURVE",
"267 773 OFFCURVE",
"240 773 CURVE SMOOTH",
"207 773 OFFCURVE",
"180 749 OFFCURVE",
"180 718 CURVE SMOOTH"
);
}
);
};
components = (
{
name = Y;
},
{
name = dieresis.case;
transform = "{1, 0, 0, 1, 113, 0}";
}
);
layerId = UUID0;
width = 491;
},
{
background = {
paths = (
{
closed = 1;
nodes = (
"45 567 LINE",
"73 569 LINE SMOOTH",
"81 569 OFFCURVE",
"86 563 OFFCURVE",
"92 550 CURVE SMOOTH",
"219 263 LINE",
"189 49 LINE SMOOTH",
"187 34 OFFCURVE",
"181 27 OFFCURVE",
"169 27 CURVE SMOOTH",
"120 29 LINE",
"116 0 LINE",
"341 0 LINE",
"345 29 LINE",
"329 29 OFFCURVE",
"312 27 OFFCURVE",
"297 27 CURVE SMOOTH",
"283 27 OFFCURVE",
"280 36 OFFCURVE",
"282 48 CURVE SMOOTH",
"316 288 LINE",
"493 548 LINE SMOOTH",
"502 561 OFFCURVE",
"512 569 OFFCURVE",
"521 569 CURVE SMOOTH",
"552 567 LINE",
"556 597 LINE",
"406 597 LINE",
"402 567 LINE",
"454 569 LINE SMOOTH",
"459 569 OFFCURVE",
"461 566 OFFCURVE",
"461 562 CURVE SMOOTH",
"461 558 OFFCURVE",
"460 553 OFFCURVE",
"457 549 CURVE SMOOTH",
"299 319 LINE",
"200 545 LINE SMOOTH",
"198 549 OFFCURVE",
"197 554 OFFCURVE",
"197 557 CURVE SMOOTH",
"197 562 OFFCURVE",
"199 569 OFFCURVE",
"206 569 CURVE SMOOTH",
"207 569 OFFCURVE",
"207 569 OFFCURVE",
"208 569 CURVE",
"261 567 LINE",
"265 597 LINE",
"49 597 LINE"
);
},
{
closed = 1;
nodes = (
"368 693 OFFCURVE",
"387 676 OFFCURVE",
"415 676 CURVE SMOOTH",
"449 676 OFFCURVE",
"476 698 OFFCURVE",
"476 729 CURVE SMOOTH",
"476 754 OFFCURVE",
"456 773 OFFCURVE",
"429 773 CURVE SMOOTH",
"395 773 OFFCURVE",
"368 749 OFFCURVE",
"368 718 CURVE SMOOTH"
);
},
{
closed = 1;
nodes = (
"180 693 OFFCURVE",
"199 676 OFFCURVE",
"226 676 CURVE SMOOTH",
"260 676 OFFCURVE",
"288 698 OFFCURVE",
"288 729 CURVE SMOOTH",
"288 754 OFFCURVE",
"267 773 OFFCURVE",
"240 773 CURVE SMOOTH",
"207 773 OFFCURVE",
"180 749 OFFCURVE",
"180 718 CURVE SMOOTH"
);
}
);
};
components = (
{
name = Y;
},
{
name = dieresis.case;
transform = "{1, 0, 0, 1, 174, 0}";
}
);
layerId = "E888B586-AF79-49A4-B375-A6F02287AAF4";
width = 576;
}
);
leftKerningGroup = Y;
rightKerningGroup = Y;
unicode = 0178;
},
{
color = 4;
glyphname = Ygrave;
layers = (
{
background = {
paths = (
{
closed = 1;
nodes = (
"45 567 LINE",
"73 569 LINE SMOOTH",
"81 569 OFFCURVE",
"86 563 OFFCURVE",
"92 550 CURVE SMOOTH",
"219 263 LINE",
"189 49 LINE SMOOTH",
"187 34 OFFCURVE",
"181 27 OFFCURVE",
"169 27 CURVE SMOOTH",
"120 29 LINE",
"116 0 LINE",
"341 0 LINE",
"345 29 LINE",
"329 29 OFFCURVE",
"312 27 OFFCURVE",
"297 27 CURVE SMOOTH",
"283 27 OFFCURVE",
"280 36 OFFCURVE",
"282 48 CURVE SMOOTH",
"316 288 LINE",
"493 548 LINE SMOOTH",
"502 561 OFFCURVE",
"512 569 OFFCURVE",
"522 569 CURVE SMOOTH",
"552 567 LINE",
"556 597 LINE",
"406 597 LINE",
"402 567 LINE",
"454 569 LINE SMOOTH",
"459 569 OFFCURVE",
"461 566 OFFCURVE",
"461 562 CURVE SMOOTH",
"461 558 OFFCURVE",
"460 553 OFFCURVE",
"457 549 CURVE SMOOTH",
"299 319 LINE",
"200 545 LINE SMOOTH",
"198 549 OFFCURVE",
"197 554 OFFCURVE",
"197 557 CURVE SMOOTH",
"197 565 OFFCURVE",
"201 569 OFFCURVE",
"208 569 CURVE",
"261 567 LINE",
"265 597 LINE",
"49 597 LINE"
);
},
{
closed = 1;
nodes = (
"205 795 OFFCURVE",
"209 791 OFFCURVE",
"212 788 CURVE SMOOTH",
"356 675 LINE SMOOTH",
"359 672 OFFCURVE",
"367 666 OFFCURVE",
"374 666 CURVE SMOOTH",
"385 666 OFFCURVE",
"389 669 OFFCURVE",
"389 674 CURVE SMOOTH",
"389 678 OFFCURVE",
"385 684 OFFCURVE",
"380 691 CURVE SMOOTH",
"295 805 LINE SMOOTH",
"284 820 OFFCURVE",
"279 826 OFFCURVE",
"265 826 CURVE SMOOTH",
"241 826 OFFCURVE",
"205 808 OFFCURVE",
"205 799 CURVE SMOOTH"
);
}
);
};
components = (
{
name = Y;
},
{
name = grave.case;
transform = "{1, 0, 0, 1, 85, 0}";
}
);
layerId = UUID0;
width = 491;
},
{
background = {
paths = (
{
closed = 1;
nodes = (
"45 567 LINE",
"73 569 LINE SMOOTH",
"81 569 OFFCURVE",
"86 563 OFFCURVE",
"92 550 CURVE SMOOTH",
"219 263 LINE",
"189 49 LINE SMOOTH",
"187 34 OFFCURVE",
"181 27 OFFCURVE",
"169 27 CURVE SMOOTH",
"120 29 LINE",
"116 0 LINE",
"341 0 LINE",
"345 29 LINE",
"329 29 OFFCURVE",
"312 27 OFFCURVE",
"297 27 CURVE SMOOTH",
"283 27 OFFCURVE",
"280 36 OFFCURVE",
"282 48 CURVE SMOOTH",
"316 288 LINE",
"493 548 LINE SMOOTH",
"502 561 OFFCURVE",
"512 569 OFFCURVE",
"522 569 CURVE SMOOTH",
"552 567 LINE",
"556 597 LINE",
"406 597 LINE",
"402 567 LINE",
"454 569 LINE SMOOTH",
"459 569 OFFCURVE",
"461 566 OFFCURVE",
"461 562 CURVE SMOOTH",
"461 558 OFFCURVE",
"460 553 OFFCURVE",
"457 549 CURVE SMOOTH",
"299 319 LINE",
"200 545 LINE SMOOTH",
"198 549 OFFCURVE",
"197 554 OFFCURVE",
"197 557 CURVE SMOOTH",
"197 565 OFFCURVE",
"201 569 OFFCURVE",
"208 569 CURVE",
"261 567 LINE",
"265 597 LINE",
"49 597 LINE"
);
},
{
closed = 1;
nodes = (
"205 795 OFFCURVE",
"209 791 OFFCURVE",
"212 788 CURVE SMOOTH",
"356 675 LINE SMOOTH",
"359 672 OFFCURVE",
"367 666 OFFCURVE",
"374 666 CURVE SMOOTH",
"385 666 OFFCURVE",
"389 669 OFFCURVE",
"389 674 CURVE SMOOTH",
"389 678 OFFCURVE",
"385 684 OFFCURVE",
"380 691 CURVE SMOOTH",
"295 805 LINE SMOOTH",
"284 820 OFFCURVE",
"279 826 OFFCURVE",
"265 826 CURVE SMOOTH",
"241 826 OFFCURVE",
"205 808 OFFCURVE",
"205 799 CURVE SMOOTH"
);
}
);
};
components = (
{
name = Y;
},
{
name = grave.case;
transform = "{1, 0, 0, 1, 146, 0}";
}
);
layerId = "E888B586-AF79-49A4-B375-A6F02287AAF4";
width = 576;
}
);
leftKerningGroup = Y;
rightKerningGroup = Y;
unicode = 1EF2;
},
{
color = 4;
glyphname = Z;
layers = (
{
anchors = (
{
name = top;
position = "{306, 598}";
}
);
layerId = UUID0;
paths = (
{
closed = 1;
nodes = (
"66 444 LINE",
"95 444 LINE",
"107 531 OFFCURVE",
"157 570 OFFCURVE",
"248 570 CURVE SMOOTH",
"411 570 LINE",
"402 585 LINE",
"7 28 LINE",
"3 1 LINE",
"330 1 LINE SMOOTH",
"394 1 OFFCURVE",
"430 0 OFFCURVE",
"439 -4 CURVE",
"471 168 LINE",
"442 168 LINE",
"430 80 OFFCURVE",
"367 28 OFFCURVE",
"280 28 CURVE SMOOTH",
"90 28 LINE",
"101 11 LINE",
"502 574 LINE",
"505 598 LINE",
"195 598 LINE SMOOTH",
"172 598 OFFCURVE",
"107 601 OFFCURVE",
"88 601 CURVE"
);
}
);
width = 497;
},
{
anchors = (
{
name = top;
position = "{373, 598}";
}
);
layerId = "E888B586-AF79-49A4-B375-A6F02287AAF4";
paths = (
{
closed = 1;
nodes = (
"93 443 LINE",
"130 443 LINE",
"142 523 OFFCURVE",
"193 559 OFFCURVE",
"288 559 CURVE SMOOTH",
"439 559 LINE",
"410 590 LINE",
"4 27 LINE",
"0 0 LINE",
"387 0 LINE SMOOTH",
"454 0 OFFCURVE",
"491 -1 OFFCURVE",
"499 -4 CURVE",
"531 167 LINE",
"494 167 LINE",
"483 85 OFFCURVE",
"417 37 OFFCURVE",
"326 37 CURVE SMOOTH",
"146 37 LINE",
"175 7 LINE",
"576 573 LINE",
"579 597 LINE",
"224 597 LINE SMOOTH",
"180 597 OFFCURVE",
"134 600 OFFCURVE",
"115 600 CURVE"
);
}
);
width = 558;
}
);
leftKerningGroup = Z;
rightKerningGroup = Z;
unicode = 005A;
},
{
color = 4;
glyphname = Zcaron;
layers = (
{
background = {
paths = (
{
closed = 1;
nodes = (
"3 1 LINE",
"331 1 LINE SMOOTH",
"395 1 OFFCURVE",
"431 0 OFFCURVE",
"440 -4 CURVE",
"472 168 LINE",
"443 168 LINE",
"431 80 OFFCURVE",
"367 28 OFFCURVE",
"280 28 CURVE SMOOTH",
"114 28 LINE",
"503 574 LINE",
"506 598 LINE",
"195 598 LINE",
"187 599 OFFCURVE",
"176 599 OFFCURVE",
"164 599 CURVE SMOOTH",
"123 600 LINE SMOOTH",
"114 600 OFFCURVE",
"107 601 OFFCURVE",
"101 601 CURVE SMOOTH",
"88 601 LINE",
"66 444 LINE",
"95 444 LINE",
"107 531 OFFCURVE",
"157 570 OFFCURVE",
"248 570 CURVE SMOOTH",
"393 570 LINE",
"7 28 LINE"
);
},
{
closed = 1;
nodes = (
"182 808 OFFCURVE",
"215 784 OFFCURVE",
"248 742 CURVE SMOOTH",
"286 694 LINE SMOOTH",
"299 678 OFFCURVE",
"310 669 OFFCURVE",
"313 669 CURVE SMOOTH",
"317 669 OFFCURVE",
"329 679 OFFCURVE",
"346 694 CURVE SMOOTH",
"399 742 LINE SMOOTH",
"449 787 OFFCURVE",
"487 810 OFFCURVE",
"487 818 CURVE SMOOTH",
"487 821 OFFCURVE",
"485 825 OFFCURVE",
"477 825 CURVE SMOOTH",
"470 825 OFFCURVE",
"456 818 OFFCURVE",
"448 813 CURVE SMOOTH",
"323 740 LINE",
"219 813 LINE SMOOTH",
"212 818 OFFCURVE",
"200 825 OFFCURVE",
"193 825 CURVE SMOOTH",
"184 825 OFFCURVE",
"182 820 OFFCURVE",
"182 817 CURVE SMOOTH"
);
}
);
};
components = (
{
name = Z;
},
{
name = caron.case;
transform = "{1, 0, 0, 1, 67, 0}";
}
);
layerId = UUID0;
width = 497;
},
{
background = {
paths = (
{
closed = 1;
nodes = (
"3 1 LINE",
"331 1 LINE SMOOTH",
"395 1 OFFCURVE",
"431 0 OFFCURVE",
"440 -4 CURVE",
"472 168 LINE",
"443 168 LINE",
"431 80 OFFCURVE",
"367 28 OFFCURVE",
"280 28 CURVE SMOOTH",
"114 28 LINE",
"503 574 LINE",
"506 598 LINE",
"195 598 LINE",
"187 599 OFFCURVE",
"176 599 OFFCURVE",
"164 599 CURVE SMOOTH",
"123 600 LINE SMOOTH",
"114 600 OFFCURVE",
"107 601 OFFCURVE",
"101 601 CURVE SMOOTH",
"88 601 LINE",
"66 444 LINE",
"95 444 LINE",
"107 531 OFFCURVE",
"157 570 OFFCURVE",
"248 570 CURVE SMOOTH",
"393 570 LINE",
"7 28 LINE"
);
},
{
closed = 1;
nodes = (
"182 808 OFFCURVE",
"215 784 OFFCURVE",
"248 742 CURVE SMOOTH",
"286 694 LINE SMOOTH",
"299 678 OFFCURVE",
"310 669 OFFCURVE",
"313 669 CURVE SMOOTH",
"317 669 OFFCURVE",
"329 679 OFFCURVE",
"346 694 CURVE SMOOTH",
"399 742 LINE SMOOTH",
"449 787 OFFCURVE",
"487 810 OFFCURVE",
"487 818 CURVE SMOOTH",
"487 821 OFFCURVE",
"485 825 OFFCURVE",
"477 825 CURVE SMOOTH",
"470 825 OFFCURVE",
"456 818 OFFCURVE",
"448 813 CURVE SMOOTH",
"323 740 LINE",
"219 813 LINE SMOOTH",
"212 818 OFFCURVE",
"200 825 OFFCURVE",
"193 825 CURVE SMOOTH",
"184 825 OFFCURVE",
"182 820 OFFCURVE",
"182 817 CURVE SMOOTH"
);
}
);
};
components = (
{
name = Z;
},
{
name = caron.case;
transform = "{1, 0, 0, 1, 134, 0}";
}
);
layerId = "E888B586-AF79-49A4-B375-A6F02287AAF4";
width = 558;
}
);
leftKerningGroup = Z;
rightKerningGroup = Z;
unicode = 017D;
},
{
color = 4;
glyphname = a;
layers = (
{
anchors = (
{
name = ogonek;
position = "{388, 14}";
},
{
name = top;
position = "{274, 420}";
}
);
background = {
paths = (
{
closed = 1;
nodes = (
"325 201 LINE",
"312 132 OFFCURVE",
"307 70 OFFCURVE",
"307 39 CURVE SMOOTH",
"307 11 OFFCURVE",
"313 -10 OFFCURVE",
"337 -10 CURVE SMOOTH",
"363 -10 OFFCURVE",
"410 7 OFFCURVE",
"459 60 CURVE",
"447 80 LINE",
"430 69 OFFCURVE",
"415 67 OFFCURVE",
"410 67 CURVE SMOOTH",
"394 67 OFFCURVE",
"393 83 OFFCURVE",
"393 94 CURVE SMOOTH",
"393 208 OFFCURVE",
"449 531 OFFCURVE",
"469 651 CURVE SMOOTH",
"473 675 OFFCURVE",
"476 699 OFFCURVE",
"476 708 CURVE SMOOTH",
"476 727 OFFCURVE",
"462 730 OFFCURVE",
"438 730 CURVE SMOOTH",
"404 730 OFFCURVE",
"365 724 OFFCURVE",
"319 698 CURVE",
"325 673 LINE",
"334 675 OFFCURVE",
"342 675 OFFCURVE",
"349 675 CURVE SMOOTH",
"371 675 OFFCURVE",
"384 667 OFFCURVE",
"384 651 CURVE SMOOTH",
"384 643 OFFCURVE",
"364 452 OFFCURVE",
"350 382 CURVE"
);
}
);
};
layerId = UUID0;
paths = (
{
closed = 1;
nodes = (
"143 430 OFFCURVE",
"28 252 OFFCURVE",
"28 112 CURVE SMOOTH",
"28 36 OFFCURVE",
"61 -10 OFFCURVE",
"120 -10 CURVE SMOOTH",
"183 -10 OFFCURVE",
"238 41 OFFCURVE",
"315 187 CURVE",
"304 123 OFFCURVE",
"294 65 OFFCURVE",
"294 36 CURVE SMOOTH",
"294 5 OFFCURVE",
"299 -10 OFFCURVE",
"318 -10 CURVE SMOOTH",
"346 -10 OFFCURVE",
"396 7 OFFCURVE",
"440 60 CURVE",
"428 80 LINE",
"411 69 OFFCURVE",
"398 67 OFFCURVE",
"390 67 CURVE SMOOTH",
"381 67 OFFCURVE",
"377 73 OFFCURVE",
"377 84 CURVE SMOOTH",
"377 120 OFFCURVE",
"397 230 OFFCURVE",
"419 330 CURVE",
"443 429 LINE",
"359 415 LINE",
"346 366 LINE",
"367 367 LINE",
"356 402 OFFCURVE",
"319 430 OFFCURVE",
"275 430 CURVE SMOOTH"
);
},
{
closed = 1;
nodes = (
"314 400 OFFCURVE",
"340 376 OFFCURVE",
"340 346 CURVE SMOOTH",
"340 244 OFFCURVE",
"217 45 OFFCURVE",
"156 45 CURVE SMOOTH",
"134 45 OFFCURVE",
"117 71 OFFCURVE",
"117 123 CURVE SMOOTH",
"117 157 OFFCURVE",
"121 195 OFFCURVE",
"131 232 CURVE SMOOTH",
"152 320 OFFCURVE",
"200 400 OFFCURVE",
"277 400 CURVE SMOOTH"
);
}
);
width = 466;
},
{
anchors = (
{
name = ogonek;
position = "{426, 14}";
},
{
name = top;
position = "{313, 420}";
}
);
background = {
paths = (
{
closed = 1;
nodes = (
"488 90 LINE",
"476 82 OFFCURVE",
"461 77 OFFCURVE",
"450 77 CURVE SMOOTH",
"441 77 OFFCURVE",
"437 83 OFFCURVE",
"437 94 CURVE SMOOTH",
"437 130 OFFCURVE",
"456 241 OFFCURVE",
"480 341 CURVE SMOOTH",
"503 436 LINE",
"359 422 LINE",
"347 377 LINE",
"359 378 LINE",
"352 419 OFFCURVE",
"315 437 OFFCURVE",
"280 437 CURVE SMOOTH",
"135 437 OFFCURVE",
"25 279 OFFCURVE",
"25 112 CURVE SMOOTH",
"25 36 OFFCURVE",
"58 -10 OFFCURVE",
"117 -10 CURVE SMOOTH",
"180 -10 OFFCURVE",
"257 32 OFFCURVE",
"309 157 CURVE",
"301 105 OFFCURVE",
"293 59 OFFCURVE",
"293 36 CURVE SMOOTH",
"293 5 OFFCURVE",
"299 -10 OFFCURVE",
"333 -10 CURVE SMOOTH",
"386 -10 OFFCURVE",
"457 23 OFFCURVE",
"499 60 CURVE"
);
},
{
closed = 1;
nodes = (
"174 167 OFFCURVE",
"180 206 OFFCURVE",
"191 244 CURVE SMOOTH",
"216 337 OFFCURVE",
"258 397 OFFCURVE",
"300 397 CURVE SMOOTH",
"327 397 OFFCURVE",
"340 378 OFFCURVE",
"340 355 CURVE SMOOTH",
"340 259 OFFCURVE",
"247 75 OFFCURVE",
"206 75 CURVE SMOOTH",
"186 75 OFFCURVE",
"174 95 OFFCURVE",
"174 133 CURVE SMOOTH"
);
}
);
};
layerId = "E888B586-AF79-49A4-B375-A6F02287AAF4";
paths = (
{
closed = 1;
nodes = (
"135 437 OFFCURVE",
"25 279 OFFCURVE",
"25 112 CURVE SMOOTH",
"25 36 OFFCURVE",
"58 -10 OFFCURVE",
"117 -10 CURVE SMOOTH",
"180 -10 OFFCURVE",
"257 32 OFFCURVE",
"309 157 CURVE",
"301 105 OFFCURVE",
"293 59 OFFCURVE",
"293 36 CURVE SMOOTH",
"293 5 OFFCURVE",
"299 -10 OFFCURVE",
"333 -10 CURVE SMOOTH",
"386 -10 OFFCURVE",
"457 23 OFFCURVE",
"499 60 CURVE",
"488 90 LINE",
"476 82 OFFCURVE",
"461 77 OFFCURVE",
"450 77 CURVE SMOOTH",
"441 77 OFFCURVE",
"437 83 OFFCURVE",
"437 94 CURVE SMOOTH",
"437 130 OFFCURVE",
"456 241 OFFCURVE",
"480 341 CURVE SMOOTH",
"503 436 LINE",
"359 422 LINE",
"347 377 LINE",
"359 378 LINE",
"352 419 OFFCURVE",
"315 437 OFFCURVE",
"280 437 CURVE SMOOTH"
);
},
{
closed = 1;
nodes = (
"327 397 OFFCURVE",
"340 378 OFFCURVE",
"340 355 CURVE SMOOTH",
"340 259 OFFCURVE",
"248 75 OFFCURVE",
"204 75 CURVE SMOOTH",
"186 75 OFFCURVE",
"174 95 OFFCURVE",
"174 133 CURVE SMOOTH",
"174 167 OFFCURVE",
"180 206 OFFCURVE",
"191 244 CURVE SMOOTH",
"216 337 OFFCURVE",
"258 397 OFFCURVE",
"300 397 CURVE SMOOTH"
);
}
);
width = 526;
}
);
leftKerningGroup = a;
rightKerningGroup = a;
unicode = 0061;
},
{
color = 4;
glyphname = aacute;
layers = (
{
background = {
paths = (
{
closed = 1;
nodes = (
"9 26 OFFCURVE",
"48 -5 OFFCURVE",
"120 -5 CURVE SMOOTH",
"178 -5 OFFCURVE",
"225 15 OFFCURVE",
"263 70 CURVE",
"256 37 LINE SMOOTH",
"255 32 OFFCURVE",
"249 5 OFFCURVE",
"247 0 CURVE",
"388 0 LINE",
"392 26 LINE",
"380 26 OFFCURVE",
"365 25 OFFCURVE",
"353 24 CURVE SMOOTH",
"346 24 OFFCURVE",
"343 30 OFFCURVE",
"345 43 CURVE SMOOTH",
"380 289 LINE SMOOTH",
"393 385 OFFCURVE",
"342 430 OFFCURVE",
"237 430 CURVE SMOOTH",
"133 430 OFFCURVE",
"66 387 OFFCURVE",
"66 328 CURVE SMOOTH",
"66 306 OFFCURVE",
"78 289 OFFCURVE",
"104 289 CURVE SMOOTH",
"129 289 OFFCURVE",
"149 302 OFFCURVE",
"149 327 CURVE SMOOTH",
"149 337 OFFCURVE",
"144 344 OFFCURVE",
"144 356 CURVE SMOOTH",
"144 378 OFFCURVE",
"158 403 OFFCURVE",
"222 403 CURVE SMOOTH",
"284 403 OFFCURVE",
"306 379 OFFCURVE",
"297 316 CURVE SMOOTH",
"289 258 LINE",
"95 258 OFFCURVE",
"9 202 OFFCURVE",
"9 89 CURVE SMOOTH"
);
},
{
closed = 1;
nodes = (
"101 188 OFFCURVE",
"150 231 OFFCURVE",
"285 231 CURVE",
"277 173 LINE SMOOTH",
"265 89 OFFCURVE",
"212 31 OFFCURVE",
"154 31 CURVE SMOOTH",
"120 31 OFFCURVE",
"101 53 OFFCURVE",
"101 97 CURVE SMOOTH"
);
},
{
closed = 1;
nodes = (
"398 636 OFFCURVE",
"369 653 OFFCURVE",
"346 653 CURVE SMOOTH",
"335 653 OFFCURVE",
"322 644 OFFCURVE",
"306 628 CURVE SMOOTH",
"193 518 LINE SMOOTH",
"186 511 OFFCURVE",
"178 504 OFFCURVE",
"178 500 CURVE SMOOTH",
"178 496 OFFCURVE",
"183 493 OFFCURVE",
"192 493 CURVE SMOOTH",
"199 493 OFFCURVE",
"209 499 OFFCURVE",
"214 502 CURVE SMOOTH",
"388 615 LINE SMOOTH",
"393 618 OFFCURVE",
"398 623 OFFCURVE",
"398 627 CURVE SMOOTH"
);
}
);
};
components = (
{
name = a;
},
{
name = acute;
transform = "{1, 0, 0, 1, 143, 0}";
}
);
layerId = UUID0;
width = 466;
},
{
background = {
paths = (
{
closed = 1;
nodes = (
"9 26 OFFCURVE",
"48 -5 OFFCURVE",
"120 -5 CURVE SMOOTH",
"178 -5 OFFCURVE",
"225 15 OFFCURVE",
"263 70 CURVE",
"256 37 LINE SMOOTH",
"255 32 OFFCURVE",
"249 5 OFFCURVE",
"247 0 CURVE",
"388 0 LINE",
"392 26 LINE",
"380 26 OFFCURVE",
"365 25 OFFCURVE",
"353 24 CURVE SMOOTH",
"346 24 OFFCURVE",
"343 30 OFFCURVE",
"345 43 CURVE SMOOTH",
"380 289 LINE SMOOTH",
"393 385 OFFCURVE",
"342 430 OFFCURVE",
"237 430 CURVE SMOOTH",
"133 430 OFFCURVE",
"66 387 OFFCURVE",
"66 328 CURVE SMOOTH",
"66 306 OFFCURVE",
"78 289 OFFCURVE",
"104 289 CURVE SMOOTH",
"129 289 OFFCURVE",
"149 302 OFFCURVE",
"149 327 CURVE SMOOTH",
"149 337 OFFCURVE",
"144 344 OFFCURVE",
"144 356 CURVE SMOOTH",
"144 378 OFFCURVE",
"158 403 OFFCURVE",
"222 403 CURVE SMOOTH",
"284 403 OFFCURVE",
"306 379 OFFCURVE",
"297 316 CURVE SMOOTH",
"289 258 LINE",
"95 258 OFFCURVE",
"9 202 OFFCURVE",
"9 89 CURVE SMOOTH"
);
},
{
closed = 1;
nodes = (
"101 188 OFFCURVE",
"150 231 OFFCURVE",
"285 231 CURVE",
"277 173 LINE SMOOTH",
"265 89 OFFCURVE",
"212 31 OFFCURVE",
"154 31 CURVE SMOOTH",
"120 31 OFFCURVE",
"101 53 OFFCURVE",
"101 97 CURVE SMOOTH"
);
},
{
closed = 1;
nodes = (
"398 636 OFFCURVE",
"369 653 OFFCURVE",
"346 653 CURVE SMOOTH",
"335 653 OFFCURVE",
"322 644 OFFCURVE",
"306 628 CURVE SMOOTH",
"193 518 LINE SMOOTH",
"186 511 OFFCURVE",
"178 504 OFFCURVE",
"178 500 CURVE SMOOTH",
"178 496 OFFCURVE",
"183 493 OFFCURVE",
"192 493 CURVE SMOOTH",
"199 493 OFFCURVE",
"209 499 OFFCURVE",
"214 502 CURVE SMOOTH",
"388 615 LINE SMOOTH",
"393 618 OFFCURVE",
"398 623 OFFCURVE",
"398 627 CURVE SMOOTH"
);
}
);
};
components = (
{
name = a;
},
{
name = acute;
transform = "{1, 0, 0, 1, 182, 0}";
}
);
layerId = "E888B586-AF79-49A4-B375-A6F02287AAF4";
width = 526;
}
);
leftKerningGroup = a;
rightKerningGroup = a;
unicode = 00E1;
},
